G04 Layer_Color=32896*
%FSLAX44Y44*%
%MOMM*%
G71*
G01*
G75*
%ADD23C,0.2500*%
%ADD42C,0.2540*%
%ADD45C,0.2000*%
%ADD46C,0.1000*%
%ADD47C,0.1800*%
%ADD48C,0.1600*%
%ADD76C,0.4000*%
%ADD77C,0.6000*%
%ADD78C,1.0000*%
D23*
X121250Y69000D02*
G03*
X121250Y69000I-1250J0D01*
G01*
X108250Y182000D02*
G03*
X108250Y182000I-1250J0D01*
G01*
X471750Y49250D02*
G03*
X471750Y49250I-1250J0D01*
G01*
X341954Y170222D02*
G03*
X341954Y170222I-1250J0D01*
G01*
X254750Y131750D02*
G03*
X254750Y131750I-1250J0D01*
G01*
X309250Y127500D02*
G03*
X309250Y127500I-1250J0D01*
G01*
D42*
X574414Y115000D02*
G03*
X574414Y115000I-1414J0D01*
G01*
D45*
X60000Y209000D02*
X72000D01*
X60000Y193000D02*
X72000D01*
X158000Y236000D02*
X170000D01*
X158000Y220000D02*
X170000D01*
X120500Y185000D02*
Y215000D01*
X125500Y185000D02*
Y215000D01*
X120500Y185000D02*
X125500D01*
X120500Y215000D02*
X125500D01*
X98000Y136000D02*
Y142000D01*
Y123000D02*
Y129000D01*
X224000Y236000D02*
X230000D01*
X271000Y241000D02*
Y247000D01*
X308000Y163000D02*
Y169000D01*
X607000Y87000D02*
Y93000D01*
X480000Y163000D02*
Y169000D01*
X483000Y128000D02*
X489000D01*
X60000Y234000D02*
X72000D01*
X60000Y218000D02*
X72000D01*
X299565Y219707D02*
X301686Y221828D01*
X310172Y230314D02*
X312293Y232435D01*
X324314Y216172D02*
X326435Y218293D01*
X313707Y205565D02*
X315828Y207686D01*
X334920Y226778D02*
X335981Y227839D01*
X321839Y241981D02*
X335981Y227839D01*
X320778Y240920D02*
X321839Y241981D01*
X304161Y196019D02*
X305045Y196903D01*
X290019Y210161D02*
X304161Y196019D01*
X290019Y210161D02*
X290903Y211045D01*
X354846Y165979D02*
X393737Y204870D01*
Y127088D02*
X432627Y165979D01*
X354846D02*
X393737Y127088D01*
Y204870D02*
X432627Y165979D01*
X220000Y101500D02*
Y104500D01*
X208000Y101500D02*
Y104500D01*
X267000Y112000D02*
X273000D01*
X296000Y102000D02*
Y124000D01*
X210000Y136000D02*
X216000D01*
X224000Y167000D02*
Y173000D01*
X192000Y236000D02*
X198000D01*
X141163Y130991D02*
X145406Y126749D01*
X73000Y88000D02*
X79000D01*
X468000Y22000D02*
X474000D01*
X596000Y113000D02*
X602000D01*
X578000Y206000D02*
X584000D01*
X712000Y46000D02*
X718000D01*
X499000Y112000D02*
X505000D01*
X391000Y80000D02*
X397000D01*
X209000Y236000D02*
X215000D01*
X188000Y28000D02*
Y34000D01*
X484000Y19000D02*
Y37000D01*
X498000Y19000D02*
Y37000D01*
X533500Y11500D02*
Y16500D01*
X558500D01*
Y11500D02*
Y16500D01*
X528500Y86500D02*
X563500D01*
X508500Y31500D02*
Y66500D01*
X528500Y11500D02*
X563500D01*
X583500Y31500D02*
Y66500D01*
X123293Y106121D02*
X127535Y101879D01*
D46*
X512500Y110500D02*
X577500D01*
X512500D02*
Y155500D01*
X577500D01*
Y110500D02*
Y155500D01*
D47*
X177000Y100000D02*
Y107997D01*
X173001D01*
X171668Y106664D01*
Y103999D01*
X173001Y102666D01*
X177000D01*
X174334D02*
X171668Y100000D01*
X169003Y107997D02*
Y102666D01*
X166337Y100000D01*
X163671Y102666D01*
Y107997D01*
X155674Y100000D02*
X161005D01*
X155674Y105332D01*
Y106664D01*
X157006Y107997D01*
X159672D01*
X161005Y106664D01*
X166000Y86000D02*
Y93997D01*
X162001D01*
X160668Y92664D01*
Y89999D01*
X162001Y88666D01*
X166000D01*
X163334D02*
X160668Y86000D01*
X158003Y93997D02*
Y88666D01*
X155337Y86000D01*
X152671Y88666D01*
Y93997D01*
X150005Y86000D02*
X147339D01*
X148672D01*
Y93997D01*
X150005Y92664D01*
X629668Y93665D02*
X631001Y94997D01*
X633667D01*
X635000Y93665D01*
Y88333D01*
X633667Y87000D01*
X631001D01*
X629668Y88333D01*
X621671Y87000D02*
X627003D01*
X621671Y92332D01*
Y93665D01*
X623004Y94997D01*
X625670D01*
X627003Y93665D01*
X344655Y238655D02*
X340885Y242425D01*
X339943Y241483D01*
Y233943D01*
X339000Y233000D01*
X335230Y236770D01*
X330518Y243368D02*
X334287Y247138D01*
X336172D01*
X338058Y245253D01*
X338058Y243368D01*
X334287Y239597D01*
X332402D01*
X330517Y241483D01*
X333345Y242425D02*
X329575D01*
X330517Y241483D02*
X330518Y243368D01*
X327690Y244310D02*
X325805Y246195D01*
X326747Y245253D01*
X332402Y250908D01*
X332402Y249023D01*
X303000Y134997D02*
Y129666D01*
X300334Y127000D01*
X297668Y129666D01*
Y134997D01*
X295003D02*
X289671D01*
X292337D01*
Y127000D01*
X283006D02*
Y134997D01*
X287005Y130999D01*
X281674D01*
X249000Y137997D02*
Y132666D01*
X246334Y130000D01*
X243668Y132666D01*
Y137997D01*
X241003D02*
X235671D01*
X238337D01*
Y130000D01*
X233005Y136664D02*
X231672Y137997D01*
X229007D01*
X227674Y136664D01*
Y135332D01*
X229007Y133999D01*
X230339D01*
X229007D01*
X227674Y132666D01*
Y131333D01*
X229007Y130000D01*
X231672D01*
X233005Y131333D01*
X123000Y31997D02*
Y26666D01*
X120334Y24000D01*
X117668Y26666D01*
Y31997D01*
X115003D02*
X109671D01*
X112337D01*
Y24000D01*
X101674D02*
X107005D01*
X101674Y29332D01*
Y30665D01*
X103006Y31997D01*
X105672D01*
X107005Y30665D01*
X493000Y93997D02*
Y88666D01*
X490334Y86000D01*
X487668Y88666D01*
Y93997D01*
X485003D02*
X479671D01*
X482337D01*
Y86000D01*
X477005D02*
X474339D01*
X475672D01*
Y93997D01*
X477005Y92664D01*
X504997Y41000D02*
X499666D01*
X497000Y43666D01*
X499666Y46332D01*
X504997D01*
Y48997D02*
X497000D01*
Y52996D01*
X498333Y54329D01*
X503665D01*
X504997Y52996D01*
Y48997D01*
X503665Y56995D02*
X504997Y58328D01*
Y60994D01*
X503665Y62326D01*
X502332D01*
X500999Y60994D01*
Y59661D01*
Y60994D01*
X499666Y62326D01*
X498333D01*
X497000Y60994D01*
Y58328D01*
X498333Y56995D01*
X399000Y232997D02*
Y226333D01*
X397667Y225000D01*
X395001D01*
X393668Y226333D01*
Y232997D01*
X391003Y225000D02*
X388337D01*
X389670D01*
Y232997D01*
X391003Y231665D01*
X109000Y110000D02*
Y117997D01*
X105001D01*
X103668Y116664D01*
Y113999D01*
X105001Y112666D01*
X109000D01*
X106334D02*
X103668Y110000D01*
X101003D02*
X98337D01*
X99670D01*
Y117997D01*
X101003Y116664D01*
X94338D02*
X93005Y117997D01*
X90339D01*
X89007Y116664D01*
Y115332D01*
X90339Y113999D01*
X91672D01*
X90339D01*
X89007Y112666D01*
Y111333D01*
X90339Y110000D01*
X93005D01*
X94338Y111333D01*
X110000Y147000D02*
Y154997D01*
X106001D01*
X104668Y153665D01*
Y150999D01*
X106001Y149666D01*
X110000D01*
X107334D02*
X104668Y147000D01*
X102003D02*
X99337D01*
X100670D01*
Y154997D01*
X102003Y153665D01*
X95338D02*
X94005Y154997D01*
X91339D01*
X90006Y153665D01*
Y148333D01*
X91339Y147000D01*
X94005D01*
X95338Y148333D01*
Y153665D01*
X723000Y36000D02*
X730997D01*
Y39999D01*
X729665Y41332D01*
X726999D01*
X725666Y39999D01*
Y36000D01*
Y38666D02*
X723000Y41332D01*
Y49329D02*
Y43997D01*
X728332Y49329D01*
X729665D01*
X730997Y47996D01*
Y45330D01*
X729665Y43997D01*
X723000Y51995D02*
Y54661D01*
Y53328D01*
X730997D01*
X729665Y51995D01*
X586000Y222000D02*
Y229997D01*
X582001D01*
X580668Y228664D01*
Y225999D01*
X582001Y224666D01*
X586000D01*
X583334D02*
X580668Y222000D01*
X572671D02*
X578003D01*
X572671Y227332D01*
Y228664D01*
X574004Y229997D01*
X576670D01*
X578003Y228664D01*
X570005D02*
X568672Y229997D01*
X566006D01*
X564674Y228664D01*
Y223333D01*
X566006Y222000D01*
X568672D01*
X570005Y223333D01*
Y228664D01*
X607000Y104000D02*
X614997D01*
Y107999D01*
X613665Y109332D01*
X610999D01*
X609666Y107999D01*
Y104000D01*
Y106666D02*
X607000Y109332D01*
Y115996D02*
X614997D01*
X610999Y111997D01*
Y117329D01*
X232000Y252000D02*
Y259997D01*
X228001D01*
X226668Y258664D01*
Y255999D01*
X228001Y254666D01*
X232000D01*
X229334D02*
X226668Y252000D01*
X218671D02*
X224003D01*
X218671Y257332D01*
Y258664D01*
X220004Y259997D01*
X222670D01*
X224003Y258664D01*
X210674Y252000D02*
X216005D01*
X210674Y257332D01*
Y258664D01*
X212006Y259997D01*
X214672D01*
X216005Y258664D01*
X237000Y180000D02*
Y187997D01*
X233001D01*
X231668Y186665D01*
Y183999D01*
X233001Y182666D01*
X237000D01*
X234334D02*
X231668Y180000D01*
X229003D02*
X226337D01*
X227670D01*
Y187997D01*
X229003Y186665D01*
X222338Y181333D02*
X221005Y180000D01*
X218339D01*
X217006Y181333D01*
Y186665D01*
X218339Y187997D01*
X221005D01*
X222338Y186665D01*
Y185332D01*
X221005Y183999D01*
X217006D01*
X222000Y152000D02*
Y159997D01*
X218001D01*
X216668Y158665D01*
Y155999D01*
X218001Y154666D01*
X222000D01*
X219334D02*
X216668Y152000D01*
X214003D02*
X211337D01*
X212670D01*
Y159997D01*
X214003Y158665D01*
X207338D02*
X206005Y159997D01*
X203339D01*
X202006Y158665D01*
Y157332D01*
X203339Y155999D01*
X202006Y154666D01*
Y153333D01*
X203339Y152000D01*
X206005D01*
X207338Y153333D01*
Y154666D01*
X206005Y155999D01*
X207338Y157332D01*
Y158665D01*
X206005Y155999D02*
X203339D01*
X475773Y132361D02*
Y140359D01*
X471774D01*
X470441Y139026D01*
Y136360D01*
X471774Y135027D01*
X475773D01*
X473107D02*
X470441Y132361D01*
X467775D02*
X465109D01*
X466442D01*
Y140359D01*
X467775Y139026D01*
X461110Y140359D02*
X455779D01*
Y139026D01*
X461110Y133694D01*
Y132361D01*
X281000Y89000D02*
Y96997D01*
X277001D01*
X275668Y95665D01*
Y92999D01*
X277001Y91666D01*
X281000D01*
X278334D02*
X275668Y89000D01*
X273003D02*
X270337D01*
X271670D01*
Y96997D01*
X273003Y95665D01*
X261006Y96997D02*
X266338D01*
Y92999D01*
X263672Y94332D01*
X262339D01*
X261006Y92999D01*
Y90333D01*
X262339Y89000D01*
X265005D01*
X266338Y90333D01*
X198364Y39036D02*
Y47034D01*
X194365D01*
X193032Y45701D01*
Y43035D01*
X194365Y41702D01*
X198364D01*
X195698D02*
X193032Y39036D01*
X190366D02*
X187700D01*
X189033D01*
Y47034D01*
X190366Y45701D01*
X178370Y39036D02*
X183702D01*
X178370Y44368D01*
Y45701D01*
X179703Y47034D01*
X182369D01*
X183702Y45701D01*
X84000Y78000D02*
X91997D01*
Y81999D01*
X90665Y83332D01*
X87999D01*
X86666Y81999D01*
Y78000D01*
Y80666D02*
X84000Y83332D01*
X90665Y85997D02*
X91997Y87330D01*
Y89996D01*
X90665Y91329D01*
X89332D01*
X87999Y89996D01*
X86666Y91329D01*
X85333D01*
X84000Y89996D01*
Y87330D01*
X85333Y85997D01*
X86666D01*
X87999Y87330D01*
X89332Y85997D01*
X90665D01*
X87999Y87330D02*
Y89996D01*
X474000Y37000D02*
Y44997D01*
X470001D01*
X468668Y43664D01*
Y40999D01*
X470001Y39666D01*
X474000D01*
X471334D02*
X468668Y37000D01*
X466003Y38333D02*
X464670Y37000D01*
X462004D01*
X460671Y38333D01*
Y43664D01*
X462004Y44997D01*
X464670D01*
X466003Y43664D01*
Y42332D01*
X464670Y40999D01*
X460671D01*
X589000Y102997D02*
Y95000D01*
Y98999D01*
X583668D01*
Y102997D01*
Y95000D01*
X581003D02*
Y100332D01*
X578337Y102997D01*
X575671Y100332D01*
Y95000D01*
Y98999D01*
X581003D01*
X573005Y95000D02*
X570339D01*
X571672D01*
Y102997D01*
X573005Y101664D01*
X576000Y167497D02*
Y159500D01*
X572001D01*
X570668Y160833D01*
Y166164D01*
X572001Y167497D01*
X576000D01*
X568003D02*
Y159500D01*
X564004D01*
X562671Y160833D01*
Y166164D01*
X564004Y167497D01*
X568003D01*
X560005Y159500D02*
X557339D01*
X558672D01*
Y167497D01*
X560005Y166164D01*
X142371Y181747D02*
Y173750D01*
X138372D01*
X137039Y175083D01*
Y180415D01*
X138372Y181747D01*
X142371D01*
X134374Y173750D02*
Y179082D01*
X131708Y181747D01*
X129042Y179082D01*
Y173750D01*
Y177749D01*
X134374D01*
X121045Y173750D02*
X126376D01*
X121045Y179082D01*
Y180415D01*
X122378Y181747D01*
X125043D01*
X126376Y180415D01*
X211441Y218293D02*
X212774Y219626D01*
X215440D01*
X216772Y218293D01*
Y212962D01*
X215440Y211629D01*
X212774D01*
X211441Y212962D01*
X208775Y211629D02*
X206109D01*
X207442D01*
Y219626D01*
X208775Y218293D01*
X196779Y219626D02*
X202111D01*
Y215628D01*
X199445Y216961D01*
X198112D01*
X196779Y215628D01*
Y212962D01*
X198112Y211629D01*
X200778D01*
X202111Y212962D01*
X486668Y181665D02*
X488001Y182997D01*
X490667D01*
X492000Y181665D01*
Y176333D01*
X490667Y175000D01*
X488001D01*
X486668Y176333D01*
X484003Y175000D02*
X481337D01*
X482670D01*
Y182997D01*
X484003Y181665D01*
X473339Y175000D02*
Y182997D01*
X477338Y178999D01*
X472006D01*
X408665Y74332D02*
X409997Y72999D01*
Y70333D01*
X408665Y69000D01*
X403333D01*
X402000Y70333D01*
Y72999D01*
X403333Y74332D01*
X402000Y76997D02*
Y79663D01*
Y78330D01*
X409997D01*
X408665Y76997D01*
Y83662D02*
X409997Y84995D01*
Y87661D01*
X408665Y88994D01*
X407332D01*
X405999Y87661D01*
Y86328D01*
Y87661D01*
X404666Y88994D01*
X403333D01*
X402000Y87661D01*
Y84995D01*
X403333Y83662D01*
X313668Y181665D02*
X315001Y182997D01*
X317667D01*
X319000Y181665D01*
Y176333D01*
X317667Y175000D01*
X315001D01*
X313668Y176333D01*
X311003Y175000D02*
X308337D01*
X309670D01*
Y182997D01*
X311003Y181665D01*
X299006Y175000D02*
X304338D01*
X299006Y180332D01*
Y181665D01*
X300339Y182997D01*
X303005D01*
X304338Y181665D01*
X277668Y259664D02*
X279001Y260997D01*
X281667D01*
X283000Y259664D01*
Y254333D01*
X281667Y253000D01*
X279001D01*
X277668Y254333D01*
X275003Y253000D02*
X272337D01*
X273670D01*
Y260997D01*
X275003Y259664D01*
X268338Y253000D02*
X265672D01*
X267005D01*
Y260997D01*
X268338Y259664D01*
X503668Y133665D02*
X505001Y134997D01*
X507667D01*
X509000Y133665D01*
Y128333D01*
X507667Y127000D01*
X505001D01*
X503668Y128333D01*
X501003D02*
X499670Y127000D01*
X497004D01*
X495671Y128333D01*
Y133665D01*
X497004Y134997D01*
X499670D01*
X501003Y133665D01*
Y132332D01*
X499670Y130999D01*
X495671D01*
X95822Y225888D02*
X97155Y224555D01*
Y221889D01*
X95822Y220556D01*
X90490D01*
X89157Y221889D01*
Y224555D01*
X90490Y225888D01*
X95822Y228554D02*
X97155Y229887D01*
Y232553D01*
X95822Y233885D01*
X94489D01*
X93156Y232553D01*
X91823Y233885D01*
X90490D01*
X89157Y232553D01*
Y229887D01*
X90490Y228554D01*
X91823D01*
X93156Y229887D01*
X94489Y228554D01*
X95822D01*
X93156Y229887D02*
Y232553D01*
X138668Y145665D02*
X140001Y146997D01*
X142667D01*
X144000Y145665D01*
Y140333D01*
X142667Y139000D01*
X140001D01*
X138668Y140333D01*
X136003Y146997D02*
X130671D01*
Y145665D01*
X136003Y140333D01*
Y139000D01*
X120668Y121664D02*
X122001Y122997D01*
X124667D01*
X126000Y121664D01*
Y116333D01*
X124667Y115000D01*
X122001D01*
X120668Y116333D01*
X112671Y122997D02*
X115337Y121664D01*
X118003Y118999D01*
Y116333D01*
X116670Y115000D01*
X114004D01*
X112671Y116333D01*
Y117666D01*
X114004Y118999D01*
X118003D01*
X95665Y200332D02*
X96997Y198999D01*
Y196333D01*
X95665Y195000D01*
X90333D01*
X89000Y196333D01*
Y198999D01*
X90333Y200332D01*
X96997Y208329D02*
Y202997D01*
X92999D01*
X94332Y205663D01*
Y206996D01*
X92999Y208329D01*
X90333D01*
X89000Y206996D01*
Y204330D01*
X90333Y202997D01*
X193668Y257665D02*
X195001Y258997D01*
X197667D01*
X199000Y257665D01*
Y252333D01*
X197667Y251000D01*
X195001D01*
X193668Y252333D01*
X187004Y251000D02*
Y258997D01*
X191003Y254999D01*
X185671D01*
X176668Y246665D02*
X178001Y247997D01*
X180667D01*
X182000Y246665D01*
Y241333D01*
X180667Y240000D01*
X178001D01*
X176668Y241333D01*
X174003Y246665D02*
X172670Y247997D01*
X170004D01*
X168671Y246665D01*
Y245332D01*
X170004Y243999D01*
X171337D01*
X170004D01*
X168671Y242666D01*
Y241333D01*
X170004Y240000D01*
X172670D01*
X174003Y241333D01*
X217668Y84664D02*
X219001Y85997D01*
X221667D01*
X223000Y84664D01*
Y79333D01*
X221667Y78000D01*
X219001D01*
X217668Y79333D01*
X215003Y78000D02*
X212337D01*
X213670D01*
Y85997D01*
X215003Y84664D01*
X208338D02*
X207005Y85997D01*
X204339D01*
X203006Y84664D01*
Y79333D01*
X204339Y78000D01*
X207005D01*
X208338Y79333D01*
Y84664D01*
D48*
X489320Y48035D02*
X480750D01*
X485035Y43750D02*
Y52320D01*
D76*
X307136Y192484D02*
G03*
X307136Y192484I-500J0D01*
G01*
D77*
X371988Y165979D02*
G03*
X371988Y165979I-3000J0D01*
G01*
X106000Y39000D02*
Y63000D01*
X481000Y56000D02*
Y80000D01*
X243000Y101000D02*
Y125000D01*
D78*
X538000Y61500D02*
G03*
X538000Y61500I-4500J0D01*
G01*
M02*
