G04 Layer_Physical_Order=1*
G04 Layer_Color=255*
%FSLAX44Y44*%
%MOMM*%
G71*
G01*
G75*
G04:AMPARAMS|DCode=10|XSize=0.95mm|YSize=0.8mm|CornerRadius=0.2mm|HoleSize=0mm|Usage=FLASHONLY|Rotation=270.000|XOffset=0mm|YOffset=0mm|HoleType=Round|Shape=RoundedRectangle|*
%AMROUNDEDRECTD10*
21,1,0.9500,0.4000,0,0,270.0*
21,1,0.5500,0.8000,0,0,270.0*
1,1,0.4000,-0.2000,-0.2750*
1,1,0.4000,-0.2000,0.2750*
1,1,0.4000,0.2000,0.2750*
1,1,0.4000,0.2000,-0.2750*
%
%ADD10ROUNDEDRECTD10*%
%ADD11R,1.3000X2.7000*%
G04:AMPARAMS|DCode=12|XSize=1.75mm|YSize=1mm|CornerRadius=0.25mm|HoleSize=0mm|Usage=FLASHONLY|Rotation=270.000|XOffset=0mm|YOffset=0mm|HoleType=Round|Shape=RoundedRectangle|*
%AMROUNDEDRECTD12*
21,1,1.7500,0.5000,0,0,270.0*
21,1,1.2500,1.0000,0,0,270.0*
1,1,0.5000,-0.2500,-0.6250*
1,1,0.5000,-0.2500,0.6250*
1,1,0.5000,0.2500,0.6250*
1,1,0.5000,0.2500,-0.6250*
%
%ADD12ROUNDEDRECTD12*%
G04:AMPARAMS|DCode=13|XSize=1.6mm|YSize=2.2mm|CornerRadius=0.4mm|HoleSize=0mm|Usage=FLASHONLY|Rotation=180.000|XOffset=0mm|YOffset=0mm|HoleType=Round|Shape=RoundedRectangle|*
%AMROUNDEDRECTD13*
21,1,1.6000,1.4000,0,0,180.0*
21,1,0.8000,2.2000,0,0,180.0*
1,1,0.8000,-0.4000,0.7000*
1,1,0.8000,0.4000,0.7000*
1,1,0.8000,0.4000,-0.7000*
1,1,0.8000,-0.4000,-0.7000*
%
%ADD13ROUNDEDRECTD13*%
G04:AMPARAMS|DCode=14|XSize=0.7mm|YSize=1.8mm|CornerRadius=0.175mm|HoleSize=0mm|Usage=FLASHONLY|Rotation=180.000|XOffset=0mm|YOffset=0mm|HoleType=Round|Shape=RoundedRectangle|*
%AMROUNDEDRECTD14*
21,1,0.7000,1.4500,0,0,180.0*
21,1,0.3500,1.8000,0,0,180.0*
1,1,0.3500,-0.1750,0.7250*
1,1,0.3500,0.1750,0.7250*
1,1,0.3500,0.1750,-0.7250*
1,1,0.3500,-0.1750,-0.7250*
%
%ADD14ROUNDEDRECTD14*%
G04:AMPARAMS|DCode=15|XSize=0.95mm|YSize=0.8mm|CornerRadius=0.2mm|HoleSize=0mm|Usage=FLASHONLY|Rotation=0.000|XOffset=0mm|YOffset=0mm|HoleType=Round|Shape=RoundedRectangle|*
%AMROUNDEDRECTD15*
21,1,0.9500,0.4000,0,0,0.0*
21,1,0.5500,0.8000,0,0,0.0*
1,1,0.4000,0.2750,-0.2000*
1,1,0.4000,-0.2750,-0.2000*
1,1,0.4000,-0.2750,0.2000*
1,1,0.4000,0.2750,0.2000*
%
%ADD15ROUNDEDRECTD15*%
%ADD16R,1.9000X1.9000*%
%ADD17R,1.3000X1.4500*%
%ADD18R,1.4000X0.4000*%
%ADD19R,1.4000X1.6000*%
%ADD20R,2.0000X0.6000*%
%ADD21O,2.0000X0.6000*%
%ADD22C,0.3000*%
%ADD23C,0.2500*%
%ADD24C,1.0000*%
%ADD25C,1.6000*%
%ADD26C,0.7000*%
G36*
X120353Y234420D02*
X120768Y235041D01*
X121333Y235134D01*
X121612Y235164D01*
X122093Y235113D01*
X122902Y233902D01*
X124032Y233147D01*
Y206962D01*
X122859Y206476D01*
X105772Y223563D01*
Y233025D01*
X105791Y233029D01*
X107098Y233902D01*
X107907Y235113D01*
X108388Y235164D01*
X108667Y235134D01*
X109232Y235041D01*
X109647Y234420D01*
X114364Y239136D01*
X115000Y238500D01*
X115636Y239136D01*
X120353Y234420D01*
D02*
G37*
G36*
X716794Y260532D02*
X717840Y256175D01*
X719555Y252035D01*
X721896Y248214D01*
X724806Y244806D01*
X728214Y241896D01*
X732035Y239555D01*
X736175Y237840D01*
X740533Y236794D01*
X741462Y236720D01*
Y28280D01*
X740533Y28206D01*
X736175Y27160D01*
X732035Y25445D01*
X728214Y23104D01*
X724806Y20194D01*
X721896Y16786D01*
X719555Y12965D01*
X717840Y8825D01*
X716794Y4467D01*
X716720Y3538D01*
X28280D01*
X28206Y4467D01*
X27160Y8825D01*
X25445Y12965D01*
X23104Y16786D01*
X20194Y20194D01*
X16786Y23104D01*
X12965Y25445D01*
X8825Y27160D01*
X4467Y28206D01*
X3538Y28280D01*
Y236720D01*
X4467Y236794D01*
X8825Y237840D01*
X12965Y239555D01*
X16786Y241896D01*
X20194Y244806D01*
X23104Y248214D01*
X25445Y252035D01*
X27160Y256175D01*
X28206Y260532D01*
X28280Y261462D01*
X103331D01*
X103857Y260192D01*
X99832Y256168D01*
X99015Y254944D01*
X98991Y254825D01*
X97902Y254098D01*
X97029Y252791D01*
X96723Y251250D01*
Y247773D01*
X85335D01*
X85110Y248109D01*
X83224Y249369D01*
X81000Y249812D01*
X78776Y249369D01*
X76891Y248109D01*
X75631Y246224D01*
X75188Y244000D01*
X75631Y241776D01*
X76891Y239890D01*
X78776Y238631D01*
X81000Y238188D01*
X83224Y238631D01*
X85110Y239890D01*
X85335Y240228D01*
X96723D01*
Y236750D01*
X97029Y235209D01*
X97902Y233902D01*
X98228Y233685D01*
Y222000D01*
X98228Y222000D01*
X98515Y220556D01*
X99332Y219332D01*
X118228Y200437D01*
Y148959D01*
X118200Y147700D01*
X116958Y147700D01*
X100800D01*
Y147694D01*
X99627Y147208D01*
X97968Y148868D01*
X96744Y149685D01*
X95300Y149972D01*
X95300Y149972D01*
X46950D01*
X46837Y149950D01*
X37300D01*
Y141550D01*
Y135050D01*
Y123790D01*
X36960D01*
Y115983D01*
X40864Y119886D01*
X42136Y118614D01*
X38233Y114710D01*
X54767D01*
X50864Y118614D01*
X52136Y119886D01*
X56040Y115983D01*
Y123790D01*
X55700D01*
Y128982D01*
X67043D01*
X70229Y125797D01*
X70631Y123776D01*
X71891Y121890D01*
X73776Y120631D01*
X76000Y120188D01*
X78224Y120631D01*
X80110Y121890D01*
X81369Y123776D01*
X81812Y126000D01*
X81369Y128224D01*
X80110Y130110D01*
X78224Y131369D01*
X76000Y131812D01*
X74468Y131507D01*
X73605Y132370D01*
X74230Y133540D01*
X76000Y133188D01*
X78224Y133631D01*
X80110Y134890D01*
X81369Y136776D01*
X81812Y139000D01*
X81383Y141158D01*
X81374Y141381D01*
X82025Y142428D01*
X93737D01*
X100800Y135365D01*
Y116300D01*
X118200Y116300D01*
X118228Y115041D01*
Y84563D01*
X98832Y65168D01*
X98015Y63944D01*
X97727Y62500D01*
X97233Y61402D01*
X94500D01*
X92471Y60998D01*
X90751Y59849D01*
X89602Y58129D01*
X89198Y56100D01*
X89602Y54071D01*
X90751Y52351D01*
X92471Y51202D01*
X94500Y50798D01*
X108500D01*
X110529Y51202D01*
X112249Y52351D01*
X113398Y54071D01*
X113802Y56100D01*
X113398Y58129D01*
X112249Y59849D01*
X110529Y60998D01*
X108500Y61402D01*
X107396D01*
X106910Y62575D01*
X124668Y80332D01*
X124668Y80332D01*
X125485Y81556D01*
X125772Y83000D01*
Y85594D01*
X126946Y86080D01*
X132147Y80878D01*
X131521Y79708D01*
X131000Y79812D01*
X128776Y79369D01*
X126890Y78109D01*
X125631Y76224D01*
X125188Y74000D01*
X125631Y71776D01*
X126890Y69890D01*
X127227Y69665D01*
Y34563D01*
X114437Y21772D01*
X112214D01*
X110529Y22898D01*
X108500Y23302D01*
X94500D01*
X92471Y22898D01*
X90786Y21772D01*
X84255D01*
X83576Y23043D01*
X83956Y23611D01*
X84130Y24482D01*
X87000D01*
X88346Y24750D01*
X89487Y25513D01*
X90856Y26881D01*
X92471Y25802D01*
X94500Y25398D01*
X108500D01*
X110529Y25802D01*
X112249Y26951D01*
X113398Y28671D01*
X113802Y30700D01*
X113398Y32729D01*
X112249Y34449D01*
X110529Y35598D01*
X108500Y36002D01*
X94500D01*
X92471Y35598D01*
X90751Y34449D01*
X90596Y34218D01*
X89700D01*
X88354Y33950D01*
X87213Y33187D01*
X85543Y31518D01*
X84130D01*
X83956Y32389D01*
X83028Y33778D01*
X81639Y34706D01*
X80000Y35032D01*
X76000D01*
X74361Y34706D01*
X72972Y33778D01*
X72044Y32389D01*
X71718Y30750D01*
Y25250D01*
X72044Y23611D01*
X72424Y23043D01*
X71745Y21772D01*
X68255D01*
X67576Y23043D01*
X67956Y23611D01*
X68282Y25250D01*
Y30750D01*
X67956Y32389D01*
X67028Y33778D01*
X65639Y34706D01*
X64000Y35032D01*
X60000D01*
X58361Y34706D01*
X56972Y33778D01*
X56044Y32389D01*
X55870Y31518D01*
X49130D01*
X48956Y32389D01*
X48028Y33778D01*
X46639Y34706D01*
X45000Y35032D01*
X41000D01*
X39361Y34706D01*
X37972Y33778D01*
X37044Y32389D01*
X36718Y30750D01*
Y25250D01*
X37044Y23611D01*
X37424Y23043D01*
X36745Y21772D01*
X33563D01*
X32463Y22872D01*
X32956Y23611D01*
X33282Y25250D01*
Y30750D01*
X32956Y32389D01*
X32028Y33778D01*
X30773Y34617D01*
Y38383D01*
X32028Y39222D01*
X32956Y40611D01*
X33282Y42250D01*
Y47750D01*
X32956Y49389D01*
X32028Y50778D01*
X30639Y51706D01*
X29000Y52032D01*
X25000D01*
X23361Y51706D01*
X21972Y50778D01*
X21044Y49389D01*
X20718Y47750D01*
Y42250D01*
X21044Y40611D01*
X21972Y39222D01*
X23228Y38383D01*
Y34617D01*
X21972Y33778D01*
X21044Y32389D01*
X20718Y30750D01*
Y25250D01*
X21044Y23611D01*
X21972Y22222D01*
X23361Y21294D01*
X23741Y21218D01*
X24332Y20332D01*
X29332Y15332D01*
X29332Y15332D01*
X30556Y14515D01*
X32000Y14227D01*
X90786D01*
X92471Y13102D01*
X94500Y12698D01*
X108500D01*
X110529Y13102D01*
X112214Y14227D01*
X116000D01*
X116000Y14227D01*
X117444Y14515D01*
X118668Y15332D01*
X133667Y30332D01*
X133668Y30332D01*
X134485Y31556D01*
X134773Y33000D01*
Y69665D01*
X135110Y69890D01*
X136212Y71541D01*
X137373Y71374D01*
X137482Y71330D01*
Y29000D01*
X137750Y27654D01*
X138513Y26513D01*
X149513Y15513D01*
X150654Y14750D01*
X152000Y14482D01*
X152800D01*
Y12800D01*
X177200D01*
Y14482D01*
X181870D01*
X182044Y13611D01*
X182972Y12222D01*
X184361Y11294D01*
X186000Y10968D01*
X190000D01*
X191639Y11294D01*
X193028Y12222D01*
X193956Y13611D01*
X194282Y15250D01*
Y20750D01*
X193956Y22389D01*
X193028Y23778D01*
X191639Y24706D01*
X190000Y25032D01*
X186000D01*
X184361Y24706D01*
X182972Y23778D01*
X182044Y22389D01*
X181870Y21518D01*
X177200D01*
Y23200D01*
X152800D01*
Y23200D01*
X152075Y22900D01*
X144518Y30457D01*
Y75659D01*
X145788Y76045D01*
X145891Y75890D01*
X147776Y74631D01*
X150000Y74188D01*
X150398Y74267D01*
X161227Y63437D01*
Y61402D01*
X158000D01*
X155971Y60998D01*
X154251Y59849D01*
X153102Y58129D01*
X152698Y56100D01*
X153102Y54071D01*
X154251Y52351D01*
X155971Y51202D01*
X158000Y50798D01*
X172000D01*
X174029Y51202D01*
X175749Y52351D01*
X176898Y54071D01*
X177302Y56100D01*
X176898Y58129D01*
X175749Y59849D01*
X174029Y60998D01*
X172000Y61402D01*
X168773D01*
Y65000D01*
X168485Y66444D01*
X167668Y67668D01*
X167668Y67668D01*
X155733Y79602D01*
X155812Y80000D01*
X155369Y82224D01*
X154109Y84109D01*
X152224Y85369D01*
X150000Y85812D01*
X149602Y85733D01*
X143923Y91412D01*
X144927Y92916D01*
X145292Y94750D01*
Y107250D01*
X144927Y109084D01*
X143889Y110639D01*
X142334Y111677D01*
X141772Y111789D01*
Y116300D01*
X147200D01*
Y128228D01*
X158383D01*
X159222Y126972D01*
X160611Y126044D01*
X162250Y125718D01*
X167750D01*
X169389Y126044D01*
X170778Y126972D01*
X171706Y128361D01*
X172032Y130000D01*
Y134000D01*
X171706Y135639D01*
X170778Y137028D01*
X169389Y137956D01*
X167750Y138282D01*
X162250D01*
X160611Y137956D01*
X159222Y137028D01*
X158383Y135772D01*
X147200D01*
Y147700D01*
X131068D01*
Y233214D01*
X132098Y233902D01*
X132971Y235209D01*
X133277Y236750D01*
Y251250D01*
X132971Y252791D01*
X132860Y252957D01*
X133539Y254228D01*
X190437D01*
X206718Y237947D01*
Y234250D01*
X207044Y232611D01*
X207972Y231222D01*
X209228Y230383D01*
Y104000D01*
X209228Y104000D01*
X209515Y102556D01*
X210332Y101332D01*
X224267Y87397D01*
X224188Y87000D01*
X224631Y84776D01*
X225891Y82891D01*
X227776Y81631D01*
X230000Y81188D01*
X232224Y81631D01*
X234109Y82891D01*
X235369Y84776D01*
X235812Y87000D01*
X235369Y89224D01*
X234109Y91110D01*
X232224Y92369D01*
X230000Y92812D01*
X229603Y92733D01*
X216772Y105563D01*
Y230383D01*
X218028Y231222D01*
X218956Y232611D01*
X219282Y234250D01*
Y239750D01*
X218956Y241389D01*
X218028Y242778D01*
X216639Y243706D01*
X215000Y244032D01*
X211303D01*
X195143Y260192D01*
X195669Y261462D01*
X716720D01*
X716794Y260532D01*
D02*
G37*
%LPC*%
G36*
X115000Y237227D02*
X110920Y233147D01*
X111228Y232942D01*
Y232045D01*
X115000Y228273D01*
X118772Y232045D01*
Y232942D01*
X119080Y233147D01*
X115000Y237227D01*
D02*
G37*
G36*
X119864Y230592D02*
X116273Y227000D01*
X119864Y223408D01*
X120689Y224643D01*
X121158Y227000D01*
X120689Y229357D01*
X119864Y230592D01*
D02*
G37*
G36*
X110136Y230592D02*
X109310Y229357D01*
X108842Y227000D01*
X109310Y224643D01*
X110136Y223408D01*
X113727Y227000D01*
X110136Y230592D01*
D02*
G37*
G36*
X115000Y225727D02*
X111408Y222136D01*
X112643Y221311D01*
X115000Y220842D01*
X117357Y221311D01*
X118592Y222136D01*
X115000Y225727D01*
D02*
G37*
G36*
X682500Y249762D02*
X680620Y249515D01*
X678869Y248789D01*
X677365Y247635D01*
X676319Y246273D01*
X623681D01*
X622635Y247635D01*
X621131Y248789D01*
X619380Y249515D01*
X617500Y249762D01*
X615620Y249515D01*
X613869Y248789D01*
X612365Y247635D01*
X611211Y246131D01*
X610485Y244380D01*
X610238Y242500D01*
X610485Y240620D01*
X611211Y238869D01*
X612365Y237365D01*
X613869Y236211D01*
X615620Y235485D01*
X617500Y235238D01*
X619380Y235485D01*
X621131Y236211D01*
X622635Y237365D01*
X623681Y238727D01*
X676319D01*
X677365Y237365D01*
X678869Y236211D01*
X680620Y235485D01*
X682500Y235238D01*
X684380Y235485D01*
X686131Y236211D01*
X687635Y237365D01*
X688789Y238869D01*
X689515Y240620D01*
X689762Y242500D01*
X689515Y244380D01*
X688789Y246131D01*
X687635Y247635D01*
X686131Y248789D01*
X684380Y249515D01*
X682500Y249762D01*
D02*
G37*
G36*
X296364Y241795D02*
X294007Y241326D01*
X292772Y240501D01*
X296364Y236909D01*
X299955Y240501D01*
X298720Y241326D01*
X296364Y241795D01*
D02*
G37*
G36*
X301228Y239228D02*
X297636Y235636D01*
X301228Y232045D01*
X302053Y233280D01*
X302522Y235636D01*
X302053Y237993D01*
X301228Y239228D01*
D02*
G37*
G36*
X291499Y239228D02*
X290674Y237993D01*
X290205Y235636D01*
X290674Y233280D01*
X291499Y232045D01*
X295091Y235636D01*
X291499Y239228D01*
D02*
G37*
G36*
X296364Y234364D02*
X292772Y230772D01*
X294007Y229947D01*
X296364Y229478D01*
X298720Y229947D01*
X299955Y230772D01*
X296364Y234364D01*
D02*
G37*
G36*
X359000Y256812D02*
X356776Y256369D01*
X354891Y255110D01*
X354495Y254518D01*
X293000D01*
X291654Y254250D01*
X290513Y253487D01*
X272513Y235487D01*
X271750Y234346D01*
X271482Y233000D01*
Y232505D01*
X270891Y232110D01*
X269631Y230224D01*
X269451Y229320D01*
X268073Y228902D01*
X253673Y243302D01*
X253812Y244000D01*
X253369Y246224D01*
X252110Y248109D01*
X250224Y249369D01*
X248000Y249812D01*
X245776Y249369D01*
X243890Y248109D01*
X242631Y246224D01*
X242188Y244000D01*
X242631Y241776D01*
X243890Y239890D01*
X245776Y238631D01*
X248000Y238188D01*
X248698Y238327D01*
X274513Y212513D01*
X275654Y211750D01*
X277000Y211482D01*
X342649D01*
X342979Y211042D01*
X342345Y209772D01*
X270335D01*
X270110Y210110D01*
X268224Y211369D01*
X266000Y211812D01*
X265602Y211733D01*
X253733Y223603D01*
X253812Y224000D01*
X253369Y226224D01*
X252110Y228109D01*
X250224Y229369D01*
X248000Y229812D01*
X245776Y229369D01*
X243890Y228109D01*
X242631Y226224D01*
X242188Y224000D01*
X242631Y221776D01*
X243890Y219890D01*
X245776Y218631D01*
X248000Y218188D01*
X248398Y218267D01*
X260267Y206397D01*
X260188Y206000D01*
X260631Y203776D01*
X261891Y201891D01*
X263776Y200631D01*
X266000Y200188D01*
X268224Y200631D01*
X270110Y201891D01*
X270335Y202227D01*
X278594D01*
X279080Y201054D01*
X251878Y173853D01*
X250708Y174479D01*
X250812Y175000D01*
X250369Y177224D01*
X249109Y179109D01*
X248518Y179505D01*
Y210000D01*
X248250Y211346D01*
X247487Y212487D01*
X236487Y223487D01*
X235851Y223913D01*
X235706Y224639D01*
X234778Y226028D01*
X233389Y226956D01*
X232518Y227130D01*
Y230270D01*
X232639Y230294D01*
X234028Y231222D01*
X234956Y232611D01*
X235282Y234250D01*
Y239750D01*
X234956Y241389D01*
X234028Y242778D01*
X232639Y243706D01*
X231000Y244032D01*
X227000D01*
X225361Y243706D01*
X223972Y242778D01*
X223044Y241389D01*
X222718Y239750D01*
Y234250D01*
X223044Y232611D01*
X223972Y231222D01*
X225361Y230294D01*
X225482Y230270D01*
Y227130D01*
X224611Y226956D01*
X223222Y226028D01*
X222294Y224639D01*
X221968Y223000D01*
Y219000D01*
X222294Y217361D01*
X223222Y215972D01*
X224611Y215044D01*
X226250Y214718D01*
X231750D01*
X233389Y215044D01*
X234344Y215682D01*
X241482Y208543D01*
Y179505D01*
X240891Y179109D01*
X239631Y177224D01*
X239188Y175000D01*
X239631Y172776D01*
X240891Y170891D01*
X242776Y169631D01*
X245000Y169188D01*
X245521Y169292D01*
X246147Y168122D01*
X227326Y149301D01*
X227224Y149369D01*
X225000Y149812D01*
X222776Y149369D01*
X220891Y148110D01*
X219631Y146224D01*
X219188Y144000D01*
X219631Y141776D01*
X220891Y139890D01*
X222776Y138631D01*
X225000Y138188D01*
X227224Y138631D01*
X229109Y139890D01*
X230369Y141776D01*
X230523Y142548D01*
X285457Y197482D01*
X465495D01*
X465891Y196891D01*
X466829Y196264D01*
Y194736D01*
X465891Y194109D01*
X465495Y193518D01*
X289000D01*
X287654Y193250D01*
X286513Y192487D01*
X285797Y191771D01*
X283776Y191369D01*
X281891Y190110D01*
X280631Y188224D01*
X280188Y186000D01*
X280631Y183776D01*
X281891Y181891D01*
X283776Y180631D01*
X286000Y180188D01*
X287770Y180540D01*
X288395Y179370D01*
X277543Y168518D01*
X269505D01*
X269109Y169109D01*
X267224Y170369D01*
X265000Y170812D01*
X262776Y170369D01*
X260891Y169109D01*
X259631Y167224D01*
X259188Y165000D01*
X259631Y162776D01*
X260891Y160891D01*
X262776Y159631D01*
X265000Y159188D01*
X267224Y159631D01*
X269109Y160891D01*
X269505Y161482D01*
X279000D01*
X280346Y161750D01*
X281487Y162513D01*
X298457Y179482D01*
X397495D01*
X397891Y178890D01*
X399776Y177631D01*
X402000Y177188D01*
X404224Y177631D01*
X406110Y178890D01*
X407369Y180776D01*
X407812Y183000D01*
X407369Y185224D01*
X407277Y185362D01*
X407876Y186482D01*
X465495D01*
X465891Y185891D01*
X467776Y184631D01*
X470000Y184188D01*
X472224Y184631D01*
X474109Y185891D01*
X475369Y187776D01*
X475812Y190000D01*
X475369Y192224D01*
X474109Y194109D01*
X473171Y194736D01*
Y196264D01*
X474109Y196891D01*
X475369Y198776D01*
X475812Y201000D01*
X475369Y203224D01*
X474109Y205110D01*
X472224Y206369D01*
X470000Y206812D01*
X467776Y206369D01*
X465891Y205110D01*
X465495Y204518D01*
X447876D01*
X447277Y205638D01*
X447369Y205776D01*
X447812Y208000D01*
X447369Y210224D01*
X446110Y212110D01*
X445518Y212505D01*
Y226543D01*
X453996Y235022D01*
X455285Y234514D01*
X455631Y232776D01*
X456890Y230891D01*
X458776Y229631D01*
X461000Y229188D01*
X461698Y229327D01*
X478532Y212493D01*
Y197121D01*
X478800Y195775D01*
X479563Y194634D01*
X482482Y191714D01*
Y152505D01*
X481890Y152109D01*
X480631Y150224D01*
X480188Y148000D01*
X480631Y145776D01*
X481890Y143890D01*
X483541Y142788D01*
X483374Y141627D01*
X483330Y141518D01*
X435457D01*
X407673Y169302D01*
X407812Y170000D01*
X407369Y172224D01*
X406110Y174109D01*
X404224Y175369D01*
X402000Y175812D01*
X399776Y175369D01*
X397891Y174109D01*
X396631Y172224D01*
X396188Y170000D01*
X396631Y167776D01*
X397891Y165891D01*
X399776Y164631D01*
X402000Y164188D01*
X402698Y164327D01*
X431513Y135513D01*
X432654Y134750D01*
X434000Y134482D01*
X598543D01*
X625513Y107513D01*
X626654Y106750D01*
X628000Y106482D01*
X641164D01*
X641211Y106369D01*
X642365Y104865D01*
X643869Y103711D01*
X645620Y102985D01*
X647500Y102738D01*
X649380Y102985D01*
X651131Y103711D01*
X652635Y104865D01*
X653789Y106369D01*
X653836Y106482D01*
X706164D01*
X706211Y106369D01*
X707365Y104865D01*
X708869Y103711D01*
X710620Y102985D01*
X712500Y102738D01*
X714380Y102985D01*
X716131Y103711D01*
X717635Y104865D01*
X718789Y106369D01*
X719515Y108120D01*
X719762Y110000D01*
X719515Y111880D01*
X718789Y113631D01*
X717635Y115135D01*
X716131Y116289D01*
X714380Y117015D01*
X712500Y117262D01*
X710620Y117015D01*
X708869Y116289D01*
X707365Y115135D01*
X706211Y113631D01*
X706164Y113518D01*
X653836D01*
X653789Y113631D01*
X652635Y115135D01*
X651131Y116289D01*
X649380Y117015D01*
X647500Y117262D01*
X645620Y117015D01*
X643869Y116289D01*
X642365Y115135D01*
X641211Y113631D01*
X641164Y113518D01*
X629457D01*
X602487Y140487D01*
X601346Y141250D01*
X600000Y141518D01*
X488670D01*
X488626Y141627D01*
X488459Y142788D01*
X490109Y143890D01*
X491369Y145776D01*
X491812Y148000D01*
X491369Y150224D01*
X490109Y152109D01*
X489518Y152505D01*
Y193171D01*
X489303Y194249D01*
X491224Y194631D01*
X493110Y195891D01*
X494369Y197776D01*
X494812Y200000D01*
X494369Y202224D01*
X493110Y204109D01*
X492518Y204505D01*
Y210124D01*
X493638Y210723D01*
X493776Y210631D01*
X496000Y210188D01*
X498224Y210631D01*
X500109Y211891D01*
X500505Y212482D01*
X513495D01*
X513890Y211891D01*
X515776Y210631D01*
X518000Y210188D01*
X520224Y210631D01*
X522109Y211891D01*
X523369Y213776D01*
X523812Y216000D01*
X523369Y218224D01*
X522109Y220110D01*
X520224Y221369D01*
X518000Y221812D01*
X515776Y221369D01*
X513890Y220110D01*
X513495Y219518D01*
X500505D01*
X500109Y220110D01*
X498224Y221369D01*
X496000Y221812D01*
X493776Y221369D01*
X493638Y221277D01*
X492518Y221875D01*
Y237495D01*
X493110Y237890D01*
X494369Y239776D01*
X494812Y242000D01*
X494369Y244224D01*
X493110Y246110D01*
X492955Y246212D01*
X493341Y247482D01*
X549543D01*
X602013Y195013D01*
X603154Y194250D01*
X604500Y193982D01*
X611164D01*
X611211Y193869D01*
X612365Y192365D01*
X613869Y191211D01*
X615620Y190485D01*
X617500Y190238D01*
X619380Y190485D01*
X621131Y191211D01*
X622635Y192365D01*
X623789Y193869D01*
X623836Y193982D01*
X676164D01*
X676211Y193869D01*
X677365Y192365D01*
X678869Y191211D01*
X680620Y190485D01*
X682500Y190238D01*
X684380Y190485D01*
X686131Y191211D01*
X687635Y192365D01*
X688789Y193869D01*
X689515Y195620D01*
X689762Y197500D01*
X689515Y199380D01*
X688789Y201131D01*
X687635Y202635D01*
X686131Y203789D01*
X684380Y204515D01*
X682500Y204762D01*
X680620Y204515D01*
X678869Y203789D01*
X677365Y202635D01*
X676211Y201131D01*
X676164Y201018D01*
X623836D01*
X623789Y201131D01*
X622635Y202635D01*
X621131Y203789D01*
X619380Y204515D01*
X617500Y204762D01*
X615620Y204515D01*
X613869Y203789D01*
X612365Y202635D01*
X611211Y201131D01*
X611164Y201018D01*
X605957D01*
X553487Y253487D01*
X552346Y254250D01*
X551000Y254518D01*
X465000D01*
X463654Y254250D01*
X462513Y253487D01*
X439513Y230487D01*
X438750Y229346D01*
X438482Y228000D01*
Y212505D01*
X437891Y212110D01*
X436631Y210224D01*
X436188Y208000D01*
X436631Y205776D01*
X436723Y205638D01*
X436124Y204518D01*
X358512D01*
X358026Y205691D01*
X360668Y208332D01*
X361485Y209556D01*
X361772Y211000D01*
X361772Y211000D01*
Y220000D01*
X361485Y221444D01*
X360668Y222668D01*
X360667Y222668D01*
X353733Y229603D01*
X353812Y230000D01*
X353369Y232224D01*
X352109Y234109D01*
X350224Y235369D01*
X348000Y235812D01*
X345776Y235369D01*
X343890Y234109D01*
X342631Y232224D01*
X342188Y230000D01*
X342631Y227776D01*
X343890Y225891D01*
X345776Y224631D01*
X348000Y224188D01*
X348397Y224267D01*
X351864Y220801D01*
X351054Y219814D01*
X350224Y220369D01*
X348000Y220812D01*
X345776Y220369D01*
X343890Y219109D01*
X343495Y218518D01*
X278457D01*
X275902Y221073D01*
X276320Y222451D01*
X277224Y222631D01*
X279109Y223890D01*
X280369Y225776D01*
X280812Y228000D01*
X280369Y230224D01*
X279109Y232109D01*
X279107Y232133D01*
X294457Y247482D01*
X354495D01*
X354891Y246891D01*
X356776Y245631D01*
X359000Y245188D01*
X361224Y245631D01*
X363110Y246891D01*
X364369Y248776D01*
X364812Y251000D01*
X364369Y253224D01*
X363110Y255110D01*
X361224Y256369D01*
X359000Y256812D01*
D02*
G37*
G36*
X155000Y224597D02*
X147000D01*
X145293Y224372D01*
X143702Y223713D01*
X143056Y223217D01*
X151000Y215273D01*
X158944Y223217D01*
X158298Y223713D01*
X156707Y224372D01*
X155000Y224597D01*
D02*
G37*
G36*
X83000D02*
X75000D01*
X73293Y224372D01*
X71702Y223713D01*
X71056Y223217D01*
X79000Y215273D01*
X86944Y223217D01*
X86298Y223713D01*
X84707Y224372D01*
X83000Y224597D01*
D02*
G37*
G36*
X160217Y221944D02*
X151636Y213364D01*
X151000Y214000D01*
X150364Y213364D01*
X141783Y221944D01*
X141287Y221298D01*
X140628Y219707D01*
X140404Y218000D01*
Y204000D01*
X140628Y202293D01*
X141287Y200702D01*
X141783Y200056D01*
X150364Y208636D01*
X151000Y208000D01*
X151636Y208636D01*
X160217Y200056D01*
X160713Y200702D01*
X161372Y202293D01*
X161596Y204000D01*
Y218000D01*
X161372Y219707D01*
X160713Y221298D01*
X160217Y221944D01*
D02*
G37*
G36*
X88217D02*
X79636Y213364D01*
X79000Y214000D01*
X78364Y213364D01*
X69783Y221944D01*
X69287Y221298D01*
X68628Y219707D01*
X68404Y218000D01*
Y204000D01*
X68628Y202293D01*
X69287Y200702D01*
X69783Y200056D01*
X78364Y208636D01*
X79000Y208000D01*
X79636Y208636D01*
X88217Y200056D01*
X88713Y200702D01*
X89372Y202293D01*
X89596Y204000D01*
Y218000D01*
X89372Y219707D01*
X88713Y221298D01*
X88217Y221944D01*
D02*
G37*
G36*
X222467Y209510D02*
X221973Y208771D01*
X221621Y207000D01*
Y203000D01*
X221973Y201229D01*
X222467Y200490D01*
X226977Y205000D01*
X222467Y209510D01*
D02*
G37*
G36*
X235533D02*
X231023Y205000D01*
X235533Y200490D01*
X236027Y201229D01*
X236379Y203000D01*
Y207000D01*
X236027Y208771D01*
X235533Y209510D01*
D02*
G37*
G36*
X231750Y211629D02*
X226250D01*
X224479Y211277D01*
X223740Y210783D01*
X228886Y205636D01*
X228250Y205000D01*
X228886Y204364D01*
X223740Y199217D01*
X224479Y198723D01*
X226250Y198371D01*
X231750D01*
X233521Y198723D01*
X234260Y199217D01*
X229114Y204364D01*
X229750Y205000D01*
X229114Y205636D01*
X234260Y210783D01*
X233521Y211277D01*
X231750Y211629D01*
D02*
G37*
G36*
X151000Y206727D02*
X143056Y198783D01*
X143702Y198287D01*
X145293Y197628D01*
X147000Y197404D01*
X155000D01*
X156707Y197628D01*
X158298Y198287D01*
X158944Y198783D01*
X151000Y206727D01*
D02*
G37*
G36*
X79000D02*
X71056Y198783D01*
X71702Y198287D01*
X73293Y197628D01*
X75000Y197404D01*
X83000D01*
X84707Y197628D01*
X86298Y198287D01*
X86944Y198783D01*
X79000Y206727D01*
D02*
G37*
G36*
X198000Y201812D02*
X195776Y201369D01*
X193890Y200110D01*
X193495Y199518D01*
X179000D01*
X177654Y199250D01*
X176513Y198487D01*
X162513Y184487D01*
X161750Y183346D01*
X161482Y182000D01*
Y177730D01*
X161361Y177706D01*
X159972Y176778D01*
X159044Y175389D01*
X158718Y173750D01*
Y168250D01*
X159044Y166611D01*
X159972Y165222D01*
X161361Y164294D01*
X161482Y164270D01*
Y154130D01*
X160611Y153956D01*
X159222Y153028D01*
X158294Y151639D01*
X157968Y150000D01*
Y146000D01*
X158294Y144361D01*
X159222Y142972D01*
X160611Y142044D01*
X162250Y141718D01*
X167750D01*
X169389Y142044D01*
X170778Y142972D01*
X171706Y144361D01*
X172032Y146000D01*
Y150000D01*
X171706Y151639D01*
X170778Y153028D01*
X169389Y153956D01*
X168518Y154130D01*
Y164270D01*
X168639Y164294D01*
X170028Y165222D01*
X170956Y166611D01*
X171282Y168250D01*
Y173750D01*
X170956Y175389D01*
X170028Y176778D01*
X168639Y177706D01*
X168518Y177730D01*
Y180543D01*
X180457Y192482D01*
X193495D01*
X193890Y191891D01*
X195776Y190631D01*
X198000Y190188D01*
X200224Y190631D01*
X202110Y191891D01*
X203369Y193776D01*
X203812Y196000D01*
X203369Y198224D01*
X202110Y200110D01*
X200224Y201369D01*
X198000Y201812D01*
D02*
G37*
G36*
X49000Y195379D02*
X45000D01*
X43229Y195027D01*
X42490Y194533D01*
X47000Y190023D01*
X51510Y194533D01*
X50771Y195027D01*
X49000Y195379D01*
D02*
G37*
G36*
X52783Y193260D02*
X47636Y188114D01*
X47000Y188750D01*
X46364Y188114D01*
X41217Y193260D01*
X40723Y192521D01*
X40371Y190750D01*
Y185250D01*
X40723Y183479D01*
X41217Y182740D01*
X46364Y187886D01*
X47000Y187250D01*
X47636Y187886D01*
X52783Y182740D01*
X53277Y183479D01*
X53629Y185250D01*
Y190750D01*
X53277Y192521D01*
X52783Y193260D01*
D02*
G37*
G36*
X33000Y195032D02*
X29000D01*
X27361Y194706D01*
X25972Y193778D01*
X25044Y192389D01*
X24918Y191756D01*
X23556Y191485D01*
X22332Y190668D01*
X22332Y190667D01*
X17333Y185667D01*
X16515Y184444D01*
X16228Y183000D01*
X16228Y183000D01*
Y176200D01*
X11300D01*
Y157300D01*
X11300D01*
X10890Y156200D01*
X8300D01*
Y132800D01*
X8300D01*
Y132200D01*
X8300D01*
Y108800D01*
X10890D01*
X11300Y107700D01*
X11300D01*
Y88800D01*
X28700D01*
Y96477D01*
X35300D01*
Y90050D01*
X53700D01*
Y110450D01*
X35300D01*
Y104023D01*
X28700D01*
Y107700D01*
X28700D01*
X29110Y108800D01*
X31700D01*
Y132200D01*
X31700D01*
Y132800D01*
X31700D01*
Y156200D01*
X29110D01*
X28700Y157300D01*
X28700D01*
Y160977D01*
X35300D01*
Y154550D01*
X53700D01*
Y174950D01*
X35300D01*
Y168522D01*
X28700D01*
Y176200D01*
X23772D01*
Y181437D01*
X24697Y182362D01*
X25961Y182238D01*
X25972Y182222D01*
X27361Y181294D01*
X29000Y180968D01*
X33000D01*
X34639Y181294D01*
X36028Y182222D01*
X36956Y183611D01*
X37282Y185250D01*
Y190750D01*
X36956Y192389D01*
X36028Y193778D01*
X34639Y194706D01*
X33000Y195032D01*
D02*
G37*
G36*
X47000Y185977D02*
X42490Y181467D01*
X43229Y180973D01*
X45000Y180621D01*
X49000D01*
X50771Y180973D01*
X51510Y181467D01*
X47000Y185977D01*
D02*
G37*
G36*
X151000Y178379D02*
X147000D01*
X145229Y178027D01*
X144490Y177533D01*
X149000Y173023D01*
X153510Y177533D01*
X152771Y178027D01*
X151000Y178379D01*
D02*
G37*
G36*
X154783Y176260D02*
X149636Y171114D01*
X149000Y171750D01*
X148364Y171114D01*
X143217Y176260D01*
X142723Y175521D01*
X142371Y173750D01*
Y168250D01*
X142723Y166479D01*
X143217Y165740D01*
X148364Y170886D01*
X149000Y170250D01*
X149636Y170886D01*
X154783Y165740D01*
X155277Y166479D01*
X155629Y168250D01*
Y173750D01*
X155277Y175521D01*
X154783Y176260D01*
D02*
G37*
G36*
X149000Y168977D02*
X144490Y164467D01*
X145229Y163973D01*
X147000Y163621D01*
X151000D01*
X152771Y163973D01*
X153510Y164467D01*
X149000Y168977D01*
D02*
G37*
G36*
X190000Y180288D02*
X187337Y179937D01*
X184856Y178910D01*
X182725Y177275D01*
X181090Y175144D01*
X180063Y172663D01*
X179712Y170000D01*
X180063Y167337D01*
X181090Y164856D01*
X182725Y162725D01*
X184856Y161090D01*
X187337Y160063D01*
X190000Y159712D01*
X192663Y160063D01*
X195144Y161090D01*
X197275Y162725D01*
X198910Y164856D01*
X199937Y167337D01*
X200288Y170000D01*
X199937Y172663D01*
X198910Y175144D01*
X197275Y177275D01*
X195144Y178910D01*
X192663Y179937D01*
X190000Y180288D01*
D02*
G37*
G36*
X712500Y162262D02*
X710620Y162015D01*
X708869Y161289D01*
X707365Y160135D01*
X706319Y158772D01*
X653681D01*
X652635Y160135D01*
X651131Y161289D01*
X649380Y162015D01*
X647500Y162262D01*
X645620Y162015D01*
X643869Y161289D01*
X642365Y160135D01*
X641211Y158631D01*
X640485Y156880D01*
X640238Y155000D01*
X640485Y153120D01*
X641211Y151369D01*
X642365Y149865D01*
X643869Y148711D01*
X645620Y147985D01*
X647500Y147738D01*
X649380Y147985D01*
X651131Y148711D01*
X652635Y149865D01*
X653681Y151228D01*
X706319D01*
X707365Y149865D01*
X708869Y148711D01*
X710620Y147985D01*
X712500Y147738D01*
X714380Y147985D01*
X716131Y148711D01*
X717635Y149865D01*
X718789Y151369D01*
X719515Y153120D01*
X719762Y155000D01*
X719515Y156880D01*
X718789Y158631D01*
X717635Y160135D01*
X716131Y161289D01*
X714380Y162015D01*
X712500Y162262D01*
D02*
G37*
G36*
X386000Y168812D02*
X383776Y168369D01*
X381890Y167110D01*
X380631Y165224D01*
X380188Y163000D01*
X380327Y162302D01*
X333698Y115673D01*
X333000Y115812D01*
X330776Y115369D01*
X328890Y114109D01*
X327631Y112224D01*
X327188Y110000D01*
X327451Y108680D01*
X326280Y108055D01*
X319772Y114563D01*
Y138665D01*
X320109Y138890D01*
X321369Y140776D01*
X321812Y143000D01*
X321369Y145224D01*
X320109Y147109D01*
X318224Y148369D01*
X316000Y148812D01*
X313776Y148369D01*
X311891Y147109D01*
X310631Y145224D01*
X310188Y143000D01*
X310631Y140776D01*
X311891Y138890D01*
X312227Y138665D01*
Y113000D01*
X312227Y113000D01*
X312515Y111556D01*
X313332Y110332D01*
X324332Y99332D01*
X325556Y98515D01*
X327000Y98228D01*
X327000Y98228D01*
X372228D01*
Y92335D01*
X371890Y92109D01*
X370631Y90224D01*
X370188Y88000D01*
X370631Y85776D01*
X371890Y83890D01*
X373776Y82631D01*
X376000Y82188D01*
X378224Y82631D01*
X380109Y83890D01*
X381369Y85776D01*
X381812Y88000D01*
X381369Y90224D01*
X380109Y92109D01*
X379772Y92335D01*
Y98228D01*
X433345D01*
X433979Y96958D01*
X433649Y96517D01*
X431000D01*
X429654Y96250D01*
X428513Y95487D01*
X409543Y76518D01*
X294505D01*
X294109Y77109D01*
X292224Y78369D01*
X290000Y78812D01*
X287776Y78369D01*
X285891Y77109D01*
X284631Y75224D01*
X284188Y73000D01*
X284631Y70776D01*
X285891Y68891D01*
X287776Y67631D01*
X290000Y67188D01*
X292224Y67631D01*
X294109Y68891D01*
X294505Y69482D01*
X411000D01*
X412346Y69750D01*
X413487Y70513D01*
X432457Y89482D01*
X434495D01*
X434891Y88890D01*
X436776Y87631D01*
X439000Y87188D01*
X441224Y87631D01*
X443110Y88890D01*
X444369Y90776D01*
X444812Y93000D01*
X444369Y95224D01*
X443211Y96958D01*
X443548Y98228D01*
X480997D01*
X481890Y96890D01*
X483776Y95631D01*
X486000Y95188D01*
X488224Y95631D01*
X490109Y96890D01*
X491369Y98776D01*
X491812Y101000D01*
X491369Y103224D01*
X490109Y105110D01*
X488224Y106369D01*
X486000Y106812D01*
X483776Y106369D01*
X482883Y105772D01*
X470558D01*
X469879Y107043D01*
X470369Y107776D01*
X470812Y110000D01*
X470369Y112224D01*
X469109Y114109D01*
X467224Y115369D01*
X465000Y115812D01*
X462776Y115369D01*
X460891Y114109D01*
X460495Y113518D01*
X354505D01*
X354109Y114109D01*
X352224Y115369D01*
X350000Y115812D01*
X347776Y115369D01*
X345891Y114109D01*
X344631Y112224D01*
X344188Y110000D01*
X344631Y107776D01*
X345121Y107043D01*
X344442Y105772D01*
X338558D01*
X337879Y107043D01*
X338369Y107776D01*
X338812Y110000D01*
X338673Y110698D01*
X385302Y157327D01*
X386000Y157188D01*
X388224Y157631D01*
X390109Y158890D01*
X391369Y160776D01*
X391812Y163000D01*
X391369Y165224D01*
X390109Y167110D01*
X388224Y168369D01*
X386000Y168812D01*
D02*
G37*
G36*
X190000Y154888D02*
X187337Y154537D01*
X184856Y153510D01*
X182725Y151875D01*
X181090Y149744D01*
X180063Y147263D01*
X179712Y144600D01*
X180063Y141937D01*
X181090Y139456D01*
X182725Y137325D01*
X184856Y135690D01*
X187337Y134663D01*
X190000Y134312D01*
X192663Y134663D01*
X195144Y135690D01*
X197275Y137325D01*
X198910Y139456D01*
X199937Y141937D01*
X200288Y144600D01*
X199937Y147263D01*
X198910Y149744D01*
X197275Y151875D01*
X195144Y153510D01*
X192663Y154537D01*
X190000Y154888D01*
D02*
G37*
G36*
X190000Y129488D02*
X187337Y129137D01*
X184856Y128110D01*
X182725Y126475D01*
X181090Y124344D01*
X180063Y121863D01*
X179712Y119200D01*
X180063Y116537D01*
X181090Y114056D01*
X182725Y111925D01*
X184856Y110290D01*
X187337Y109263D01*
X190000Y108912D01*
X192663Y109263D01*
X195144Y110290D01*
X197275Y111925D01*
X198910Y114056D01*
X199937Y116537D01*
X200288Y119200D01*
X199937Y121863D01*
X198910Y124344D01*
X197275Y126475D01*
X195144Y128110D01*
X192663Y129137D01*
X190000Y129488D01*
D02*
G37*
G36*
X110500Y112389D02*
X105500D01*
X103533Y111998D01*
X102629Y111393D01*
X108000Y106023D01*
X113371Y111393D01*
X112466Y111998D01*
X110500Y112389D01*
D02*
G37*
G36*
X565000Y106812D02*
X562776Y106369D01*
X560891Y105110D01*
X560665Y104773D01*
X529335D01*
X529109Y105110D01*
X527224Y106369D01*
X525000Y106812D01*
X522776Y106369D01*
X520891Y105110D01*
X519631Y103224D01*
X519188Y101000D01*
X519631Y98776D01*
X520891Y96890D01*
X522776Y95631D01*
X525000Y95188D01*
X527224Y95631D01*
X529109Y96890D01*
X529335Y97227D01*
X560665D01*
X560891Y96890D01*
X562776Y95631D01*
X565000Y95188D01*
X567224Y95631D01*
X569109Y96890D01*
X570369Y98776D01*
X570812Y101000D01*
X570369Y103224D01*
X569109Y105110D01*
X567224Y106369D01*
X565000Y106812D01*
D02*
G37*
G36*
X190000Y104431D02*
X187248Y104069D01*
X184685Y103007D01*
X183203Y101870D01*
X190000Y95073D01*
X196797Y101870D01*
X195315Y103007D01*
X192752Y104069D01*
X190000Y104431D01*
D02*
G37*
G36*
X101357Y110121D02*
X100752Y109216D01*
X100361Y107250D01*
Y94750D01*
X100752Y92783D01*
X101357Y91879D01*
X107364Y97886D01*
X108000Y97250D01*
X108636Y97886D01*
X114643Y91879D01*
X115247Y92783D01*
X115639Y94750D01*
Y107250D01*
X115247Y109216D01*
X114643Y110121D01*
X108636Y104114D01*
X108000Y104750D01*
X107364Y104114D01*
X101357Y110121D01*
D02*
G37*
G36*
X108000Y95977D02*
X102629Y90606D01*
X103533Y90002D01*
X105500Y89611D01*
X110500D01*
X112466Y90002D01*
X113371Y90607D01*
X108000Y95977D01*
D02*
G37*
G36*
X198070Y100597D02*
X191273Y93800D01*
X198070Y87003D01*
X199207Y88484D01*
X200269Y91048D01*
X200631Y93800D01*
X200269Y96552D01*
X199207Y99115D01*
X198070Y100597D01*
D02*
G37*
G36*
X181930Y100597D02*
X180793Y99115D01*
X179731Y96552D01*
X179369Y93800D01*
X179731Y91048D01*
X180793Y88484D01*
X181930Y87003D01*
X188727Y93800D01*
X181930Y100597D01*
D02*
G37*
G36*
X190000Y92527D02*
X183203Y85730D01*
X184685Y84593D01*
X187248Y83531D01*
X190000Y83169D01*
X192752Y83531D01*
X195315Y84593D01*
X196797Y85730D01*
X190000Y92527D01*
D02*
G37*
G36*
X682500Y74762D02*
X680620Y74515D01*
X678869Y73789D01*
X677365Y72635D01*
X676319Y71273D01*
X623681D01*
X622635Y72635D01*
X621131Y73789D01*
X619380Y74515D01*
X617500Y74762D01*
X615620Y74515D01*
X613869Y73789D01*
X612365Y72635D01*
X611211Y71131D01*
X610485Y69380D01*
X610238Y67500D01*
X610485Y65620D01*
X611211Y63869D01*
X612365Y62365D01*
X613869Y61211D01*
X615620Y60485D01*
X617500Y60238D01*
X619380Y60485D01*
X621131Y61211D01*
X622635Y62365D01*
X623681Y63727D01*
X676319D01*
X677365Y62365D01*
X678869Y61211D01*
X680620Y60485D01*
X682500Y60238D01*
X684380Y60485D01*
X686131Y61211D01*
X687635Y62365D01*
X688789Y63869D01*
X689515Y65620D01*
X689762Y67500D01*
X689515Y69380D01*
X688789Y71131D01*
X687635Y72635D01*
X686131Y73789D01*
X684380Y74515D01*
X682500Y74762D01*
D02*
G37*
G36*
X430000Y76812D02*
X427776Y76369D01*
X425891Y75110D01*
X424631Y73224D01*
X424188Y71000D01*
X424327Y70302D01*
X414543Y60518D01*
X294505D01*
X294109Y61109D01*
X292224Y62369D01*
X290000Y62812D01*
X287776Y62369D01*
X285891Y61109D01*
X284631Y59224D01*
X284188Y57000D01*
X284631Y54776D01*
X285891Y52891D01*
X287776Y51631D01*
X290000Y51188D01*
X292224Y51631D01*
X294109Y52891D01*
X294505Y53482D01*
X416000D01*
X417346Y53750D01*
X418487Y54513D01*
X429302Y65327D01*
X430000Y65188D01*
X432224Y65631D01*
X434109Y66891D01*
X435369Y68776D01*
X435812Y71000D01*
X435369Y73224D01*
X434109Y75110D01*
X432224Y76369D01*
X430000Y76812D01*
D02*
G37*
G36*
X64000Y52032D02*
X60000D01*
X58361Y51706D01*
X56972Y50778D01*
X56044Y49389D01*
X55870Y48518D01*
X49130D01*
X48956Y49389D01*
X48028Y50778D01*
X46639Y51706D01*
X45000Y52032D01*
X41000D01*
X39361Y51706D01*
X37972Y50778D01*
X37044Y49389D01*
X36718Y47750D01*
Y42250D01*
X37044Y40611D01*
X37972Y39222D01*
X39361Y38294D01*
X41000Y37968D01*
X45000D01*
X46639Y38294D01*
X48028Y39222D01*
X48956Y40611D01*
X49130Y41482D01*
X55870D01*
X56044Y40611D01*
X56972Y39222D01*
X58361Y38294D01*
X60000Y37968D01*
X64000D01*
X65639Y38294D01*
X67028Y39222D01*
X67956Y40611D01*
X68282Y42250D01*
Y47750D01*
X67956Y49389D01*
X67028Y50778D01*
X65639Y51706D01*
X64000Y52032D01*
D02*
G37*
G36*
X176504Y46631D02*
X173273Y43400D01*
X176504Y40169D01*
X177219Y41238D01*
X177649Y43400D01*
X177219Y45562D01*
X176504Y46631D01*
D02*
G37*
G36*
X153496Y46631D02*
X152781Y45562D01*
X152352Y43400D01*
X152781Y41238D01*
X153496Y40169D01*
X156727Y43400D01*
X153496Y46631D01*
D02*
G37*
G36*
X80000Y52032D02*
X76000D01*
X74361Y51706D01*
X72972Y50778D01*
X72044Y49389D01*
X71718Y47750D01*
Y42250D01*
X72044Y40611D01*
X72972Y39222D01*
X74361Y38294D01*
X76000Y37968D01*
X80000D01*
X81639Y38294D01*
X83028Y39222D01*
X83821Y40409D01*
X84750Y40693D01*
X85278Y40747D01*
X85513Y40513D01*
X86654Y39750D01*
X88000Y39482D01*
X91003D01*
X92471Y38502D01*
X94500Y38098D01*
X108500D01*
X110529Y38502D01*
X112249Y39651D01*
X113398Y41371D01*
X113802Y43400D01*
X113398Y45429D01*
X112249Y47149D01*
X110529Y48298D01*
X108500Y48702D01*
X94500D01*
X92471Y48298D01*
X90751Y47149D01*
X90575Y46885D01*
X89187Y46788D01*
X88487Y47487D01*
X87346Y48250D01*
X86000Y48518D01*
X84130D01*
X83956Y49389D01*
X83028Y50778D01*
X81639Y51706D01*
X80000Y52032D01*
D02*
G37*
G36*
X172000Y49049D02*
X158000D01*
X155838Y48618D01*
X154769Y47904D01*
X158636Y44036D01*
X158000Y43400D01*
X158636Y42764D01*
X154769Y38896D01*
X155838Y38181D01*
X158000Y37752D01*
X172000D01*
X174162Y38181D01*
X175231Y38896D01*
X171364Y42764D01*
X172000Y43400D01*
X171364Y44036D01*
X175231Y47904D01*
X174162Y48618D01*
X172000Y49049D01*
D02*
G37*
G36*
X206000Y41379D02*
X202000D01*
X200229Y41027D01*
X199490Y40533D01*
X204000Y36023D01*
X208510Y40533D01*
X207771Y41027D01*
X206000Y41379D01*
D02*
G37*
G36*
X190000Y41032D02*
X186000D01*
X184361Y40706D01*
X182972Y39778D01*
X182044Y38389D01*
X181870Y37518D01*
X181000D01*
X179654Y37250D01*
X178513Y36487D01*
X176955Y34930D01*
X175749Y34449D01*
X174029Y35598D01*
X172000Y36002D01*
X158000D01*
X155971Y35598D01*
X154251Y34449D01*
X153102Y32729D01*
X152698Y30700D01*
X153102Y28671D01*
X154251Y26951D01*
X155971Y25802D01*
X158000Y25398D01*
X172000D01*
X174029Y25802D01*
X175749Y26951D01*
X175904Y27182D01*
X177700D01*
X179046Y27450D01*
X180187Y28213D01*
X180970Y28995D01*
X182580Y28809D01*
X182972Y28222D01*
X184361Y27294D01*
X186000Y26968D01*
X190000D01*
X191639Y27294D01*
X193028Y28222D01*
X193956Y29611D01*
X194282Y31250D01*
Y36750D01*
X193956Y38389D01*
X193028Y39778D01*
X191639Y40706D01*
X190000Y41032D01*
D02*
G37*
G36*
X355000Y51812D02*
X352776Y51369D01*
X350891Y50110D01*
X349631Y48224D01*
X349188Y46000D01*
X349631Y43776D01*
X350891Y41891D01*
X351227Y41665D01*
Y35363D01*
X345234Y29369D01*
X343863Y29938D01*
X341200Y30288D01*
X338537Y29938D01*
X336056Y28910D01*
X333925Y27275D01*
X332290Y25144D01*
X331263Y22663D01*
X330912Y20000D01*
X331263Y17337D01*
X332290Y14856D01*
X333925Y12725D01*
X336056Y11090D01*
X338537Y10063D01*
X341200Y9712D01*
X343863Y10063D01*
X346344Y11090D01*
X348475Y12725D01*
X350110Y14856D01*
X351137Y17337D01*
X351488Y20000D01*
X351137Y22663D01*
X350569Y24034D01*
X357668Y31132D01*
X358485Y32356D01*
X358773Y33800D01*
Y41665D01*
X359109Y41891D01*
X360369Y43776D01*
X360812Y46000D01*
X360369Y48224D01*
X359109Y50110D01*
X357224Y51369D01*
X355000Y51812D01*
D02*
G37*
G36*
X198217Y39260D02*
X197723Y38521D01*
X197371Y36750D01*
Y31250D01*
X197723Y29479D01*
X198217Y28740D01*
X203364Y33886D01*
X204000Y33250D01*
X204636Y33886D01*
X209783Y28740D01*
X210277Y29479D01*
X210629Y31250D01*
Y36750D01*
X210277Y38521D01*
X209783Y39260D01*
X204636Y34114D01*
X204000Y34750D01*
X203364Y34114D01*
X198217Y39260D01*
D02*
G37*
G36*
X375000Y30631D02*
X372248Y30269D01*
X369685Y29207D01*
X368203Y28070D01*
X375000Y21273D01*
X381797Y28070D01*
X380316Y29207D01*
X377752Y30269D01*
X375000Y30631D01*
D02*
G37*
G36*
X265000D02*
X262248Y30269D01*
X259685Y29207D01*
X258203Y28070D01*
X265000Y21273D01*
X271797Y28070D01*
X270315Y29207D01*
X267752Y30269D01*
X265000Y30631D01*
D02*
G37*
G36*
X204000Y31977D02*
X199490Y27467D01*
X200229Y26973D01*
X202000Y26621D01*
Y25379D01*
X200229Y25027D01*
X199490Y24533D01*
X204000Y20023D01*
X208510Y24533D01*
X207771Y25027D01*
X206000Y25379D01*
Y26621D01*
X207771Y26973D01*
X208510Y27467D01*
X204000Y31977D01*
D02*
G37*
G36*
X398829Y154812D02*
X396605Y154369D01*
X394719Y153110D01*
X393460Y151224D01*
X393017Y149000D01*
X393460Y146776D01*
X394719Y144890D01*
X396605Y143631D01*
X398829Y143188D01*
X399670Y143356D01*
X416513Y126513D01*
X417654Y125750D01*
X419000Y125482D01*
X476543D01*
X582013Y20013D01*
X583154Y19250D01*
X584500Y18982D01*
X611164D01*
X611211Y18869D01*
X612365Y17365D01*
X613869Y16211D01*
X615620Y15485D01*
X617500Y15238D01*
X619380Y15485D01*
X621131Y16211D01*
X622635Y17365D01*
X623789Y18869D01*
X623836Y18982D01*
X676164D01*
X676211Y18869D01*
X677365Y17365D01*
X678869Y16211D01*
X680620Y15485D01*
X682500Y15238D01*
X684380Y15485D01*
X686131Y16211D01*
X687635Y17365D01*
X688789Y18869D01*
X689515Y20620D01*
X689762Y22500D01*
X689515Y24380D01*
X688789Y26131D01*
X687635Y27635D01*
X686131Y28789D01*
X684380Y29515D01*
X682500Y29762D01*
X680620Y29515D01*
X678869Y28789D01*
X677365Y27635D01*
X676211Y26131D01*
X676164Y26018D01*
X623836D01*
X623789Y26131D01*
X622635Y27635D01*
X621131Y28789D01*
X619380Y29515D01*
X617500Y29762D01*
X615620Y29515D01*
X613869Y28789D01*
X612365Y27635D01*
X611211Y26131D01*
X611164Y26018D01*
X585957D01*
X480487Y131487D01*
X479346Y132250D01*
X478000Y132518D01*
X420457D01*
X404530Y148445D01*
X404641Y149000D01*
X404198Y151224D01*
X402938Y153110D01*
X401053Y154369D01*
X398829Y154812D01*
D02*
G37*
G36*
X383070Y26797D02*
X376273Y20000D01*
X383070Y13203D01*
X384207Y14685D01*
X385269Y17249D01*
X385631Y20000D01*
X385269Y22752D01*
X384207Y25315D01*
X383070Y26797D01*
D02*
G37*
G36*
X273070D02*
X266273Y20000D01*
X273070Y13203D01*
X274207Y14685D01*
X275269Y17249D01*
X275631Y20000D01*
X275269Y22752D01*
X274207Y25315D01*
X273070Y26797D01*
D02*
G37*
G36*
X366930Y26797D02*
X365793Y25315D01*
X364731Y22752D01*
X364369Y20000D01*
X364731Y17249D01*
X365793Y14685D01*
X366930Y13203D01*
X373727Y20000D01*
X366930Y26797D01*
D02*
G37*
G36*
X256930D02*
X255793Y25315D01*
X254731Y22752D01*
X254369Y20000D01*
X254731Y17249D01*
X255793Y14685D01*
X256930Y13203D01*
X263727Y20000D01*
X256930Y26797D01*
D02*
G37*
G36*
X198217Y23260D02*
X197723Y22521D01*
X197371Y20750D01*
Y15250D01*
X197723Y13479D01*
X198217Y12740D01*
X203364Y17886D01*
X204000Y17250D01*
X204636Y17886D01*
X209783Y12740D01*
X210277Y13479D01*
X210629Y15250D01*
Y20750D01*
X210277Y22521D01*
X209783Y23260D01*
X204636Y18114D01*
X204000Y18750D01*
X203364Y18114D01*
X198217Y23260D01*
D02*
G37*
G36*
X204000Y15977D02*
X199490Y11467D01*
X200229Y10973D01*
X202000Y10621D01*
X206000D01*
X207771Y10973D01*
X208510Y11467D01*
X204000Y15977D01*
D02*
G37*
G36*
X451200Y30288D02*
X448537Y29938D01*
X446056Y28910D01*
X443925Y27275D01*
X442290Y25144D01*
X441263Y22663D01*
X440912Y20000D01*
X441263Y17337D01*
X442290Y14856D01*
X443925Y12725D01*
X446056Y11090D01*
X448537Y10063D01*
X451200Y9712D01*
X453863Y10063D01*
X456344Y11090D01*
X458475Y12725D01*
X460110Y14856D01*
X461138Y17337D01*
X461488Y20000D01*
X461138Y22663D01*
X460110Y25144D01*
X458475Y27275D01*
X456344Y28910D01*
X453863Y29938D01*
X451200Y30288D01*
D02*
G37*
G36*
X425800D02*
X423137Y29938D01*
X420656Y28910D01*
X418525Y27275D01*
X416890Y25144D01*
X415863Y22663D01*
X415512Y20000D01*
X415863Y17337D01*
X416890Y14856D01*
X418525Y12725D01*
X420656Y11090D01*
X423137Y10063D01*
X425800Y9712D01*
X428463Y10063D01*
X430944Y11090D01*
X433075Y12725D01*
X434710Y14856D01*
X435737Y17337D01*
X436088Y20000D01*
X435737Y22663D01*
X434710Y25144D01*
X433075Y27275D01*
X430944Y28910D01*
X428463Y29938D01*
X425800Y30288D01*
D02*
G37*
G36*
X400400D02*
X397737Y29938D01*
X395256Y28910D01*
X393125Y27275D01*
X391490Y25144D01*
X390463Y22663D01*
X390112Y20000D01*
X390463Y17337D01*
X391490Y14856D01*
X393125Y12725D01*
X395256Y11090D01*
X397737Y10063D01*
X400400Y9712D01*
X403063Y10063D01*
X405544Y11090D01*
X407675Y12725D01*
X409310Y14856D01*
X410337Y17337D01*
X410688Y20000D01*
X410337Y22663D01*
X409310Y25144D01*
X407675Y27275D01*
X405544Y28910D01*
X403063Y29938D01*
X400400Y30288D01*
D02*
G37*
G36*
X315800D02*
X313137Y29938D01*
X310656Y28910D01*
X308525Y27275D01*
X306890Y25144D01*
X305863Y22663D01*
X305512Y20000D01*
X305863Y17337D01*
X306890Y14856D01*
X308525Y12725D01*
X310656Y11090D01*
X313137Y10063D01*
X315800Y9712D01*
X318463Y10063D01*
X320944Y11090D01*
X323075Y12725D01*
X324710Y14856D01*
X325737Y17337D01*
X326088Y20000D01*
X325737Y22663D01*
X324710Y25144D01*
X323075Y27275D01*
X320944Y28910D01*
X318463Y29938D01*
X315800Y30288D01*
D02*
G37*
G36*
X290400D02*
X287737Y29938D01*
X285256Y28910D01*
X283125Y27275D01*
X281490Y25144D01*
X280463Y22663D01*
X280112Y20000D01*
X280463Y17337D01*
X281490Y14856D01*
X283125Y12725D01*
X285256Y11090D01*
X287737Y10063D01*
X290400Y9712D01*
X293063Y10063D01*
X295544Y11090D01*
X297675Y12725D01*
X299310Y14856D01*
X300337Y17337D01*
X300688Y20000D01*
X300337Y22663D01*
X299310Y25144D01*
X297675Y27275D01*
X295544Y28910D01*
X293063Y29938D01*
X290400Y30288D01*
D02*
G37*
G36*
X375000Y18727D02*
X368203Y11930D01*
X369685Y10793D01*
X372248Y9731D01*
X375000Y9369D01*
X377752Y9731D01*
X380316Y10793D01*
X381797Y11930D01*
X375000Y18727D01*
D02*
G37*
G36*
X265000D02*
X258203Y11930D01*
X259685Y10793D01*
X262248Y9731D01*
X265000Y9369D01*
X267752Y9731D01*
X270315Y10793D01*
X271797Y11930D01*
X265000Y18727D01*
D02*
G37*
%LPD*%
D10*
X204000Y34000D02*
D03*
X188000D02*
D03*
X204000Y18000D02*
D03*
X188000D02*
D03*
X43000Y45000D02*
D03*
X27000D02*
D03*
X43000Y28000D02*
D03*
X27000D02*
D03*
X78000Y45000D02*
D03*
X62000D02*
D03*
X78000Y28000D02*
D03*
X62000D02*
D03*
X47000Y188000D02*
D03*
X31000D02*
D03*
X149000Y171000D02*
D03*
X165000D02*
D03*
X229000Y237000D02*
D03*
X213000D02*
D03*
D11*
X138500Y132000D02*
D03*
X109500D02*
D03*
D12*
X108000Y101000D02*
D03*
X138000D02*
D03*
D13*
X151000Y211000D02*
D03*
X79000D02*
D03*
D14*
X115000Y244000D02*
D03*
X127500D02*
D03*
X102500D02*
D03*
D15*
X165000Y148000D02*
D03*
Y132000D02*
D03*
X229000Y205000D02*
D03*
Y221000D02*
D03*
D16*
X20000Y120500D02*
D03*
Y144500D02*
D03*
D17*
Y166750D02*
D03*
Y98250D02*
D03*
D18*
X46500Y119250D02*
D03*
Y145750D02*
D03*
Y125750D02*
D03*
Y139250D02*
D03*
Y132500D02*
D03*
D19*
X44500Y164750D02*
D03*
Y100250D02*
D03*
D20*
X165000Y18000D02*
D03*
D21*
Y30700D02*
D03*
Y43400D02*
D03*
Y56100D02*
D03*
X101500Y18000D02*
D03*
Y30700D02*
D03*
Y43400D02*
D03*
Y56100D02*
D03*
D22*
X30000Y188000D02*
X31000Y187000D01*
X30000Y188000D02*
X31000D01*
X25000D02*
X30000D01*
X20000Y166750D02*
Y183000D01*
X25000Y188000D01*
X20000Y145500D02*
Y165000D01*
X20250Y164750D02*
X44500D01*
X19000Y121500D02*
Y144500D01*
X20000Y145500D01*
Y98250D02*
Y120500D01*
X22000Y100250D02*
X44500D01*
X46500Y145750D02*
X46950Y146200D01*
X95300D01*
X109500Y132000D01*
X138000Y131500D02*
X138500Y132000D01*
X138000Y101000D02*
Y131500D01*
X138500Y132000D02*
X165000D01*
X348000Y230000D02*
X358000Y220000D01*
Y211000D02*
Y220000D01*
X353000Y206000D02*
X358000Y211000D01*
X266000Y206000D02*
X353000D01*
X265000D02*
Y207000D01*
Y206000D02*
X266000D01*
X131000Y33000D02*
Y74000D01*
X116000Y18000D02*
X131000Y33000D01*
X101500Y18000D02*
X116000D01*
X122000Y83000D02*
Y202000D01*
X101500Y62500D02*
X122000Y83000D01*
X101500Y56100D02*
Y62500D01*
X150000Y80000D02*
X165000Y65000D01*
X138000Y92000D02*
X150000Y80000D01*
X165000Y56100D02*
Y65000D01*
X138000Y92000D02*
Y101000D01*
X327000Y102000D02*
X376000D01*
Y88000D02*
Y102000D01*
X486000D01*
Y101000D02*
Y102000D01*
X316000Y113000D02*
X327000Y102000D01*
X316000Y113000D02*
Y143000D01*
X355000Y33800D02*
Y46000D01*
X341200Y20000D02*
X355000Y33800D01*
X248000Y224000D02*
X265000Y207000D01*
X102000Y222000D02*
Y246500D01*
X81000Y244000D02*
X102000D01*
X192000Y258000D02*
X213000Y237000D01*
X107000Y258000D02*
X192000D01*
X102500Y253500D02*
X107000Y258000D01*
X102500Y247000D02*
Y253500D01*
X213000Y104000D02*
Y237000D01*
Y104000D02*
X230000Y87000D01*
X102000Y222000D02*
X122000Y202000D01*
X115000Y227000D02*
Y247000D01*
X32000Y18000D02*
X101500D01*
X27000Y23000D02*
X32000Y18000D01*
X27000Y23000D02*
Y28000D01*
Y45000D01*
X525000Y101000D02*
X565000D01*
X617500Y242500D02*
X682500D01*
X647500Y155000D02*
X712500D01*
X617500Y67500D02*
X682500D01*
D23*
X46500Y139250D02*
X77750D01*
X431000Y93000D02*
X439000D01*
X411000Y73000D02*
X431000Y93000D01*
X290000Y73000D02*
X411000D01*
X248000Y244000D02*
X277000Y215000D01*
X348000D01*
X141000Y29000D02*
Y77000D01*
X127550Y90450D02*
X141000Y77000D01*
X127550Y90450D02*
Y246950D01*
X141000Y29000D02*
X152000Y18000D01*
X398829Y149000D02*
X399000D01*
X419000Y129000D01*
X402000Y170000D02*
X434000Y138000D01*
X600000D02*
X628000Y110000D01*
X290000Y57000D02*
X416000D01*
X288000D02*
X290000D01*
X416000D02*
X430000Y71000D01*
X333000Y110000D02*
X386000Y163000D01*
X489000Y200000D02*
Y242000D01*
X179000Y196000D02*
X198000D01*
X165000Y182000D02*
X179000Y196000D01*
X165000Y171000D02*
Y182000D01*
X297000Y183000D02*
X402000D01*
X279000Y165000D02*
X297000Y183000D01*
X265000Y165000D02*
X279000D01*
X245000Y175000D02*
Y210000D01*
X234000Y221000D02*
X245000Y210000D01*
X229000Y221000D02*
X234000D01*
X229000D02*
Y237000D01*
X286000Y187000D02*
X289000Y190000D01*
X442000Y228000D02*
X465000Y251000D01*
X442000Y208000D02*
Y228000D01*
X461000Y235000D02*
X482050Y213950D01*
Y197121D02*
Y213950D01*
Y197121D02*
X486000Y193171D01*
Y148000D02*
Y193171D01*
X496000Y216000D02*
X518000D01*
X289000Y190000D02*
X470000D01*
X284000Y201000D02*
X470000D01*
X227000Y144000D02*
X284000Y201000D01*
X165000Y148000D02*
Y171000D01*
X127500Y247000D02*
X127550Y246950D01*
X181000Y34000D02*
X188000D01*
X177700Y30700D02*
X181000Y34000D01*
X165000Y30700D02*
X177700D01*
X165000Y18000D02*
X188000D01*
X152000D02*
X165000D01*
X75000Y126000D02*
X76000D01*
X68500Y132500D02*
X75000Y126000D01*
X46500Y132500D02*
X68500D01*
X76000Y139000D02*
X77500D01*
X77750Y139250D01*
X43000Y28000D02*
X62000D01*
X43000Y45000D02*
X62000D01*
X78000Y28000D02*
X87000D01*
X89700Y30700D01*
X101500D01*
X101100Y43000D02*
X101500Y43400D01*
X88000Y43000D02*
X101100D01*
X86000Y45000D02*
X88000Y43000D01*
X78000Y45000D02*
X86000D01*
X286000Y186000D02*
Y187000D01*
X225000Y144000D02*
X227000D01*
X350000Y110000D02*
X465000D01*
X628000Y110000D02*
X647500D01*
X465000Y251000D02*
X551000D01*
X604500Y197500D01*
X617500D01*
X434000Y138000D02*
X600000D01*
X419000Y129000D02*
X478000D01*
X584500Y22500D01*
X617500D01*
X647500Y110000D02*
X712500D01*
X617500Y197500D02*
X682500D01*
X617500Y22500D02*
X682500D01*
X275000Y228000D02*
Y233000D01*
X293000Y251000D01*
X359000D01*
D24*
X712500Y155000D02*
D03*
X647500D02*
D03*
Y110000D02*
D03*
X712500D02*
D03*
X682500Y67500D02*
D03*
X617500D02*
D03*
Y22500D02*
D03*
X682500D02*
D03*
Y242500D02*
D03*
X617500D02*
D03*
Y197500D02*
D03*
X682500D02*
D03*
D25*
X341200Y20000D02*
D03*
X315800D02*
D03*
X290400D02*
D03*
X265000D02*
D03*
X451200D02*
D03*
X425800D02*
D03*
X400400D02*
D03*
X375000D02*
D03*
X190000Y93800D02*
D03*
Y170000D02*
D03*
Y144600D02*
D03*
X190000Y119200D02*
D03*
D26*
X296364Y235636D02*
D03*
X359000Y251000D02*
D03*
X348000Y230000D02*
D03*
Y215000D02*
D03*
X131000Y74000D02*
D03*
X150000Y80000D02*
D03*
X398829Y149000D02*
D03*
X402000Y170000D02*
D03*
X376000Y88000D02*
D03*
X486000Y101000D02*
D03*
X316000Y143000D02*
D03*
X439000Y93000D02*
D03*
X355000Y46000D02*
D03*
X248000Y224000D02*
D03*
X266000Y206000D02*
D03*
X248000Y244000D02*
D03*
X386000Y163000D02*
D03*
X333000Y110000D02*
D03*
X489000Y242000D02*
D03*
X275000Y228000D02*
D03*
X198000Y196000D02*
D03*
X245000Y175000D02*
D03*
X265000Y165000D02*
D03*
X81000Y244000D02*
D03*
X230000Y87000D02*
D03*
X402000Y183000D02*
D03*
X442000Y208000D02*
D03*
X518000Y216000D02*
D03*
X496000D02*
D03*
X470000Y190000D02*
D03*
Y201000D02*
D03*
X461000Y235000D02*
D03*
X489000Y200000D02*
D03*
X115000Y227000D02*
D03*
X76000Y126000D02*
D03*
Y139000D02*
D03*
X290000Y73000D02*
D03*
Y57000D02*
D03*
X430000Y71000D02*
D03*
X525000Y101000D02*
D03*
X565000D02*
D03*
X286000Y186000D02*
D03*
X225000Y144000D02*
D03*
X350000Y110000D02*
D03*
X465000D02*
D03*
X486000Y148000D02*
D03*
M02*
