G04 Layer_Physical_Order=2*
G04 Layer_Color=16711680*
%FSLAX44Y44*%
%MOMM*%
G71*
G01*
G75*
G04:AMPARAMS|DCode=10|XSize=0.95mm|YSize=0.8mm|CornerRadius=0.2mm|HoleSize=0mm|Usage=FLASHONLY|Rotation=270.000|XOffset=0mm|YOffset=0mm|HoleType=Round|Shape=RoundedRectangle|*
%AMROUNDEDRECTD10*
21,1,0.9500,0.4000,0,0,270.0*
21,1,0.5500,0.8000,0,0,270.0*
1,1,0.4000,-0.2000,-0.2750*
1,1,0.4000,-0.2000,0.2750*
1,1,0.4000,0.2000,0.2750*
1,1,0.4000,0.2000,-0.2750*
%
%ADD10ROUNDEDRECTD10*%
G04:AMPARAMS|DCode=14|XSize=1.75mm|YSize=1mm|CornerRadius=0.25mm|HoleSize=0mm|Usage=FLASHONLY|Rotation=270.000|XOffset=0mm|YOffset=0mm|HoleType=Round|Shape=RoundedRectangle|*
%AMROUNDEDRECTD14*
21,1,1.7500,0.5000,0,0,270.0*
21,1,1.2500,1.0000,0,0,270.0*
1,1,0.5000,-0.2500,-0.6250*
1,1,0.5000,-0.2500,0.6250*
1,1,0.5000,0.2500,0.6250*
1,1,0.5000,0.2500,-0.6250*
%
%ADD14ROUNDEDRECTD14*%
G04:AMPARAMS|DCode=21|XSize=0.95mm|YSize=0.8mm|CornerRadius=0.2mm|HoleSize=0mm|Usage=FLASHONLY|Rotation=0.000|XOffset=0mm|YOffset=0mm|HoleType=Round|Shape=RoundedRectangle|*
%AMROUNDEDRECTD21*
21,1,0.9500,0.4000,0,0,0.0*
21,1,0.5500,0.8000,0,0,0.0*
1,1,0.4000,0.2750,-0.2000*
1,1,0.4000,-0.2750,-0.2000*
1,1,0.4000,-0.2750,0.2000*
1,1,0.4000,0.2750,0.2000*
%
%ADD21ROUNDEDRECTD21*%
%ADD22C,0.2500*%
%ADD23C,0.3000*%
%ADD24C,1.6000*%
%ADD26C,0.7000*%
G04:AMPARAMS|DCode=27|XSize=0.65mm|YSize=0.6mm|CornerRadius=0.15mm|HoleSize=0mm|Usage=FLASHONLY|Rotation=135.000|XOffset=0mm|YOffset=0mm|HoleType=Round|Shape=RoundedRectangle|*
%AMROUNDEDRECTD27*
21,1,0.6500,0.3000,0,0,135.0*
21,1,0.3500,0.6000,0,0,135.0*
1,1,0.3000,-0.0177,0.2298*
1,1,0.3000,0.2298,-0.0177*
1,1,0.3000,0.0177,-0.2298*
1,1,0.3000,-0.2298,0.0177*
%
%ADD27ROUNDEDRECTD27*%
%ADD28O,1.2000X0.9000*%
%ADD29O,1.5000X0.6000*%
G04:AMPARAMS|DCode=30|XSize=0.4mm|YSize=2.6mm|CornerRadius=0mm|HoleSize=0mm|Usage=FLASHONLY|Rotation=225.000|XOffset=0mm|YOffset=0mm|HoleType=Round|Shape=Rectangle|*
%AMROTATEDRECTD30*
4,1,4,-0.7778,1.0607,1.0607,-0.7778,0.7778,-1.0607,-1.0607,0.7778,-0.7778,1.0607,0.0*
%
%ADD30ROTATEDRECTD30*%

G04:AMPARAMS|DCode=31|XSize=0.3mm|YSize=1.8mm|CornerRadius=0mm|HoleSize=0mm|Usage=FLASHONLY|Rotation=225.000|XOffset=0mm|YOffset=0mm|HoleType=Round|Shape=Round|*
%AMOVALD31*
21,1,1.5000,0.3000,0.0000,0.0000,315.0*
1,1,0.3000,-0.5303,0.5303*
1,1,0.3000,0.5303,-0.5303*
%
%ADD31OVALD31*%

G04:AMPARAMS|DCode=32|XSize=0.3mm|YSize=1.8mm|CornerRadius=0mm|HoleSize=0mm|Usage=FLASHONLY|Rotation=315.000|XOffset=0mm|YOffset=0mm|HoleType=Round|Shape=Round|*
%AMOVALD32*
21,1,1.5000,0.3000,0.0000,0.0000,45.0*
1,1,0.3000,-0.5303,-0.5303*
1,1,0.3000,0.5303,0.5303*
%
%ADD32OVALD32*%

%ADD33R,1.5000X0.5500*%
G04:AMPARAMS|DCode=34|XSize=1.5mm|YSize=0.55mm|CornerRadius=0mm|HoleSize=0mm|Usage=FLASHONLY|Rotation=90.000|XOffset=0mm|YOffset=0mm|HoleType=Round|Shape=Octagon|*
%AMOCTAGOND34*
4,1,8,0.1375,0.7500,-0.1375,0.7500,-0.2750,0.6125,-0.2750,-0.6125,-0.1375,-0.7500,0.1375,-0.7500,0.2750,-0.6125,0.2750,0.6125,0.1375,0.7500,0.0*
%
%ADD34OCTAGOND34*%

%ADD35R,0.5500X1.5000*%
G04:AMPARAMS|DCode=36|XSize=1.35mm|YSize=0.9mm|CornerRadius=0.225mm|HoleSize=0mm|Usage=FLASHONLY|Rotation=0.000|XOffset=0mm|YOffset=0mm|HoleType=Round|Shape=RoundedRectangle|*
%AMROUNDEDRECTD36*
21,1,1.3500,0.4500,0,0,0.0*
21,1,0.9000,0.9000,0,0,0.0*
1,1,0.4500,0.4500,-0.2250*
1,1,0.4500,-0.4500,-0.2250*
1,1,0.4500,-0.4500,0.2250*
1,1,0.4500,0.4500,0.2250*
%
%ADD36ROUNDEDRECTD36*%
%ADD37O,1.1500X0.8000*%
G04:AMPARAMS|DCode=38|XSize=0.95mm|YSize=0.8mm|CornerRadius=0.2mm|HoleSize=0mm|Usage=FLASHONLY|Rotation=135.000|XOffset=0mm|YOffset=0mm|HoleType=Round|Shape=RoundedRectangle|*
%AMROUNDEDRECTD38*
21,1,0.9500,0.4000,0,0,135.0*
21,1,0.5500,0.8000,0,0,135.0*
1,1,0.4000,-0.0530,0.3359*
1,1,0.4000,0.3359,-0.0530*
1,1,0.4000,0.0530,-0.3359*
1,1,0.4000,-0.3359,0.0530*
%
%ADD38ROUNDEDRECTD38*%
G04:AMPARAMS|DCode=39|XSize=1.05mm|YSize=0.5mm|CornerRadius=0.125mm|HoleSize=0mm|Usage=FLASHONLY|Rotation=90.000|XOffset=0mm|YOffset=0mm|HoleType=Round|Shape=RoundedRectangle|*
%AMROUNDEDRECTD39*
21,1,1.0500,0.2500,0,0,90.0*
21,1,0.8000,0.5000,0,0,90.0*
1,1,0.2500,0.1250,0.4000*
1,1,0.2500,0.1250,-0.4000*
1,1,0.2500,-0.1250,-0.4000*
1,1,0.2500,-0.1250,0.4000*
%
%ADD39ROUNDEDRECTD39*%
%ADD40R,2.2000X2.2000*%
%ADD41R,1.0000X1.0000*%
%ADD42C,0.2540*%
%ADD43O,4.0000X2.0000*%
G36*
X320778Y238092D02*
X319364Y236678D01*
X330678Y225364D01*
X332092Y226778D01*
X335627Y223243D01*
X329971Y217586D01*
X326435Y221121D01*
X327849Y222535D01*
X316536Y233849D01*
X315121Y232435D01*
X311586Y235971D01*
X317243Y241627D01*
X320778Y238092D01*
D02*
G37*
G36*
X553482Y163372D02*
Y155700D01*
X537950D01*
Y155700D01*
X536378D01*
X536250Y156346D01*
X535487Y157487D01*
X494507Y198468D01*
X494812Y200000D01*
X494369Y202224D01*
X493110Y204109D01*
X491224Y205369D01*
X489000Y205812D01*
X486776Y205369D01*
X484891Y204109D01*
X483631Y202224D01*
X483188Y200000D01*
X483631Y197776D01*
X484891Y195891D01*
X486776Y194631D01*
X488797Y194229D01*
X526152Y156873D01*
X525666Y155700D01*
X520050D01*
Y137950D01*
X513025D01*
X512487Y138487D01*
X511346Y139250D01*
X510000Y139518D01*
X492730D01*
X492706Y139639D01*
X491778Y141028D01*
X490389Y141956D01*
X489518Y142130D01*
Y143495D01*
X490109Y143890D01*
X491369Y145776D01*
X491812Y148000D01*
X491369Y150224D01*
X490109Y152109D01*
X488224Y153369D01*
X486000Y153812D01*
X483776Y153369D01*
X481890Y152109D01*
X480631Y150224D01*
X480188Y148000D01*
X480631Y145776D01*
X481890Y143890D01*
X482482Y143495D01*
Y142130D01*
X481611Y141956D01*
X480222Y141028D01*
X479294Y139639D01*
X478968Y138000D01*
Y134000D01*
X479294Y132361D01*
X480222Y130972D01*
X481611Y130044D01*
X483250Y129718D01*
X488750D01*
X490389Y130044D01*
X491778Y130972D01*
X492706Y132361D01*
X492730Y132482D01*
X508543D01*
X510513Y130513D01*
X511654Y129750D01*
X512300Y129622D01*
Y128050D01*
X520050D01*
Y123772D01*
X508617D01*
X507778Y125028D01*
X506389Y125956D01*
X504750Y126282D01*
X499250D01*
X497611Y125956D01*
X496222Y125028D01*
X495383Y123772D01*
X492617D01*
X491778Y125028D01*
X490389Y125956D01*
X488750Y126282D01*
X483250D01*
X481611Y125956D01*
X480222Y125028D01*
X479389Y124946D01*
X475773Y128563D01*
Y159383D01*
X477028Y160222D01*
X477956Y161611D01*
X478282Y163250D01*
Y168750D01*
X477956Y170389D01*
X477028Y171778D01*
X475639Y172706D01*
X474000Y173032D01*
X470303D01*
X465496Y177839D01*
X464272Y178657D01*
X462828Y178944D01*
X462828Y178944D01*
X450518D01*
X449620Y180214D01*
X449672Y180475D01*
X449478Y181450D01*
X448926Y182277D01*
X448099Y182830D01*
X447911Y183110D01*
X443588D01*
Y184910D01*
X447528D01*
X447468Y185212D01*
X448206Y186482D01*
X465495D01*
X465891Y185891D01*
X467776Y184631D01*
X470000Y184188D01*
X472224Y184631D01*
X474109Y185891D01*
X475369Y187776D01*
X475812Y190000D01*
X475369Y192224D01*
X474109Y194109D01*
X473171Y194736D01*
Y196264D01*
X474109Y196891D01*
X475369Y198776D01*
X475812Y201000D01*
X475369Y203224D01*
X474109Y205110D01*
X472224Y206369D01*
X470000Y206812D01*
X467776Y206369D01*
X465891Y205110D01*
X465495Y204518D01*
X447876D01*
X447277Y205638D01*
X447369Y205776D01*
X447812Y208000D01*
X447369Y210224D01*
X446709Y211212D01*
X447388Y212482D01*
X491495D01*
X491890Y211891D01*
X493776Y210631D01*
X496000Y210188D01*
X498224Y210631D01*
X500109Y211891D01*
X501334Y213724D01*
X501483Y213891D01*
X502685Y214169D01*
X553482Y163372D01*
D02*
G37*
G36*
X299565Y216879D02*
X298151Y215464D01*
X309464Y204151D01*
X310879Y205565D01*
X314414Y202029D01*
X308757Y196373D01*
X305222Y199908D01*
X306636Y201322D01*
X295322Y212636D01*
X293908Y211222D01*
X290373Y214757D01*
X296029Y220414D01*
X299565Y216879D01*
D02*
G37*
G36*
X716794Y260532D02*
X717840Y256175D01*
X719555Y252035D01*
X721896Y248214D01*
X724806Y244806D01*
X728214Y241896D01*
X732035Y239555D01*
X736175Y237840D01*
X740533Y236794D01*
X741462Y236720D01*
Y28280D01*
X740533Y28206D01*
X736175Y27160D01*
X732035Y25445D01*
X728214Y23104D01*
X724806Y20194D01*
X721896Y16786D01*
X719555Y12965D01*
X717840Y8825D01*
X716794Y4467D01*
X716720Y3538D01*
X590219D01*
X590200Y4800D01*
X590200Y4808D01*
Y31200D01*
X563800D01*
Y4808D01*
X563800Y4800D01*
X563781Y3538D01*
X526382D01*
X526257Y4808D01*
X526858Y4928D01*
X527586Y5414D01*
X528072Y6142D01*
X528243Y7000D01*
Y29000D01*
X528200Y29217D01*
Y31200D01*
X526217D01*
X526000Y31243D01*
X507877D01*
X507391Y32416D01*
X551457Y76482D01*
X563800D01*
Y66800D01*
X590200D01*
Y86482D01*
X592870D01*
X593044Y85611D01*
X593972Y84222D01*
X595361Y83294D01*
X597000Y82968D01*
X601000D01*
X602639Y83294D01*
X604028Y84222D01*
X604956Y85611D01*
X605282Y87250D01*
Y92750D01*
X604956Y94389D01*
X604028Y95778D01*
X602639Y96706D01*
X602518Y96730D01*
Y98870D01*
X603389Y99044D01*
X604778Y99972D01*
X605706Y101361D01*
X606032Y103000D01*
Y107000D01*
X605706Y108639D01*
X604778Y110028D01*
X603389Y110956D01*
X601750Y111282D01*
X596250D01*
X594611Y110956D01*
X593222Y110028D01*
X592294Y108639D01*
X591968Y107000D01*
Y103000D01*
X592294Y101361D01*
X593222Y99972D01*
X594611Y99044D01*
X595482Y98870D01*
Y96730D01*
X595361Y96706D01*
X593972Y95778D01*
X593044Y94389D01*
X592870Y93518D01*
X587000D01*
X585654Y93250D01*
X585579Y93200D01*
X563800D01*
Y83518D01*
X550000D01*
X548654Y83250D01*
X547513Y82487D01*
X488513Y23487D01*
X488314Y23190D01*
X487263Y22487D01*
X486500Y21346D01*
X486232Y20000D01*
Y12000D01*
X486500Y10654D01*
X487263Y9513D01*
X488404Y8750D01*
X489750Y8482D01*
X492250D01*
X493596Y8750D01*
X494737Y9513D01*
X495500Y10654D01*
X495768Y12000D01*
Y20000D01*
X495636Y20661D01*
X500584Y25609D01*
X501757Y25123D01*
Y19000D01*
X501928Y18142D01*
X502414Y17414D01*
X514414Y5414D01*
X515142Y4928D01*
X515743Y4808D01*
X515618Y3538D01*
X441732D01*
X441246Y4711D01*
X447166Y10631D01*
X448537Y10063D01*
X451200Y9712D01*
X453863Y10063D01*
X456344Y11090D01*
X458475Y12725D01*
X460110Y14856D01*
X461138Y17337D01*
X461488Y20000D01*
X461138Y22663D01*
X460110Y25144D01*
X458475Y27275D01*
X456344Y28910D01*
X453863Y29938D01*
X451200Y30288D01*
X448537Y29938D01*
X446056Y28910D01*
X443925Y27275D01*
X442290Y25144D01*
X441263Y22663D01*
X440912Y20000D01*
X441263Y17337D01*
X441831Y15966D01*
X435637Y9772D01*
X431081D01*
X430828Y11042D01*
X430944Y11090D01*
X433075Y12725D01*
X434710Y14856D01*
X435737Y17337D01*
X436088Y20000D01*
X435737Y22663D01*
X435064Y24289D01*
X454187Y43413D01*
X454950Y44554D01*
X455218Y45900D01*
Y67988D01*
X456482Y68000D01*
X456750Y66654D01*
X457513Y65513D01*
X462561Y60464D01*
X462472Y60249D01*
X462242Y58500D01*
X462472Y56751D01*
X463148Y55121D01*
X464221Y53721D01*
X465621Y52648D01*
X467251Y51972D01*
X467482Y51942D01*
Y36130D01*
X466611Y35956D01*
X465222Y35028D01*
X464294Y33639D01*
X463968Y32000D01*
Y28000D01*
X464294Y26361D01*
X465222Y24972D01*
X466611Y24044D01*
X468250Y23718D01*
X473750D01*
X475389Y24044D01*
X476778Y24972D01*
X477706Y26361D01*
X478032Y28000D01*
Y32000D01*
X477706Y33639D01*
X476778Y35028D01*
X475389Y35956D01*
X474518Y36130D01*
Y52291D01*
X475379Y52648D01*
X476778Y53721D01*
X477852Y55121D01*
X478527Y56751D01*
X478758Y58500D01*
X478527Y60249D01*
X477852Y61879D01*
X476778Y63278D01*
X475379Y64352D01*
X473749Y65027D01*
X472000Y65258D01*
X469000D01*
X467866Y65108D01*
X463518Y69457D01*
Y71232D01*
X464788Y71859D01*
X465450Y71351D01*
X467162Y70641D01*
X469000Y70399D01*
X472000D01*
X473838Y70641D01*
X475550Y71351D01*
X476301Y71926D01*
X471364Y76864D01*
X472000Y77500D01*
X471364Y78136D01*
X476301Y83074D01*
X475550Y83649D01*
X473838Y84359D01*
X472000Y84601D01*
X469000D01*
X467162Y84359D01*
X465450Y83649D01*
X464788Y83141D01*
X463518Y83768D01*
Y103440D01*
X464477Y104292D01*
X465000Y104188D01*
X467224Y104631D01*
X469109Y105891D01*
X470369Y107776D01*
X470812Y110000D01*
X470369Y112224D01*
X469109Y114109D01*
X467224Y115369D01*
X465000Y115812D01*
X462776Y115369D01*
X460891Y114109D01*
X459631Y112224D01*
X459188Y110000D01*
X459327Y109302D01*
X457513Y107487D01*
X456750Y106346D01*
X456482Y105000D01*
X455218Y105012D01*
Y111551D01*
X454950Y112897D01*
X454187Y114039D01*
X434356Y133870D01*
X434603Y135419D01*
X434783Y135539D01*
X435336Y136366D01*
X435530Y137341D01*
X436516Y138328D01*
X437492Y138522D01*
X438319Y139075D01*
X438871Y139902D01*
X439066Y140877D01*
X440052Y141863D01*
X441027Y142058D01*
X441855Y142610D01*
X442407Y143437D01*
X442601Y144412D01*
X443588Y145399D01*
X444563Y145593D01*
X445390Y146146D01*
X445942Y146973D01*
X446137Y147948D01*
X447123Y148935D01*
X448099Y149129D01*
X448926Y149681D01*
X449478Y150508D01*
X449672Y151483D01*
X449478Y152459D01*
X448926Y153286D01*
X438319Y163892D01*
X437492Y164445D01*
X436517Y164639D01*
X435541Y164445D01*
X434714Y163892D01*
X434162Y163066D01*
X433968Y162090D01*
X432981Y161104D01*
X432006Y160910D01*
X431179Y160357D01*
X430626Y159530D01*
X430432Y158555D01*
X429445Y157568D01*
X428470Y157374D01*
X427643Y156821D01*
X427091Y155995D01*
X426897Y155019D01*
X425910Y154032D01*
X424935Y153839D01*
X424108Y153286D01*
X423555Y152459D01*
X423361Y151483D01*
X422374Y150497D01*
X421399Y150303D01*
X420572Y149750D01*
X420019Y148923D01*
X419825Y147948D01*
X418839Y146961D01*
X417863Y146767D01*
X417037Y146215D01*
X416484Y145388D01*
X416290Y144412D01*
X415303Y143426D01*
X414328Y143232D01*
X413501Y142679D01*
X412948Y141852D01*
X412754Y140877D01*
X411768Y139890D01*
X410792Y139696D01*
X409965Y139144D01*
X409413Y138317D01*
X409219Y137341D01*
X408232Y136355D01*
X407257Y136161D01*
X406430Y135608D01*
X405877Y134781D01*
X405683Y133806D01*
X404697Y132819D01*
X403721Y132625D01*
X402894Y132073D01*
X402342Y131246D01*
X402061Y131058D01*
Y126735D01*
X401161D01*
Y125835D01*
X396838Y125835D01*
X396650Y125554D01*
X395823Y125002D01*
X395271Y124175D01*
X395077Y123199D01*
X395271Y122224D01*
X395823Y121397D01*
X398459Y118761D01*
X391332Y111635D01*
X390515Y110411D01*
X390228Y108967D01*
X390228Y108967D01*
Y94079D01*
X389611Y93956D01*
X388222Y93028D01*
X387383Y91772D01*
X380335D01*
X380109Y92109D01*
X378224Y93369D01*
X376000Y93812D01*
X373776Y93369D01*
X371890Y92109D01*
X370631Y90224D01*
X370188Y88000D01*
X370267Y87603D01*
X352332Y69668D01*
X351515Y68444D01*
X351227Y67000D01*
X351227Y67000D01*
Y50335D01*
X350891Y50110D01*
X349631Y48224D01*
X349188Y46000D01*
X349631Y43776D01*
X350891Y41891D01*
X352776Y40631D01*
X355000Y40188D01*
X357224Y40631D01*
X359109Y41891D01*
X360369Y43776D01*
X360812Y46000D01*
X360369Y48224D01*
X359109Y50110D01*
X358773Y50335D01*
Y65437D01*
X375602Y82267D01*
X376000Y82188D01*
X378224Y82631D01*
X380109Y83890D01*
X380335Y84228D01*
X387383D01*
X388222Y82972D01*
X389611Y82044D01*
X391250Y81718D01*
X396750D01*
X398389Y82044D01*
X399778Y82972D01*
X400706Y84361D01*
X401032Y86000D01*
Y90000D01*
X400706Y91639D01*
X399778Y93028D01*
X398389Y93956D01*
X397772Y94079D01*
Y107404D01*
X403794Y113426D01*
X406430Y110790D01*
X407257Y110238D01*
X408232Y110044D01*
X409208Y110238D01*
X410035Y110790D01*
X410587Y111617D01*
X410868Y111805D01*
Y116128D01*
X412668D01*
Y112188D01*
X413212Y112296D01*
X413577Y112220D01*
X414482Y111736D01*
Y71457D01*
X379543Y36518D01*
X328800D01*
X327454Y36250D01*
X326313Y35487D01*
X320089Y29264D01*
X318463Y29938D01*
X315800Y30288D01*
X313137Y29938D01*
X310656Y28910D01*
X308525Y27275D01*
X306890Y25144D01*
X305863Y22663D01*
X305512Y20000D01*
X305863Y17337D01*
X306890Y14856D01*
X308525Y12725D01*
X310656Y11090D01*
X310772Y11042D01*
X310519Y9772D01*
X295681D01*
X295428Y11042D01*
X295544Y11090D01*
X297675Y12725D01*
X299310Y14856D01*
X300337Y17337D01*
X300688Y20000D01*
X300337Y22663D01*
X299310Y25144D01*
X298206Y26583D01*
X387032Y115409D01*
X387794Y116550D01*
X388040Y117787D01*
X391650Y121397D01*
X392202Y122224D01*
X392396Y123199D01*
X392202Y124175D01*
X391650Y125002D01*
X390823Y125554D01*
X389847Y125748D01*
X388861Y126735D01*
X388667Y127710D01*
X388114Y128537D01*
X387287Y129090D01*
X386312Y129284D01*
X385325Y130270D01*
X385131Y131246D01*
X384579Y132073D01*
X383752Y132625D01*
X382776Y132819D01*
X381790Y133806D01*
X381596Y134781D01*
X381043Y135608D01*
X380216Y136161D01*
X379241Y136355D01*
X378254Y137341D01*
X378060Y138317D01*
X377508Y139144D01*
X376681Y139696D01*
X375705Y139890D01*
X374719Y140877D01*
X374525Y141852D01*
X373972Y142679D01*
X373145Y143232D01*
X372170Y143426D01*
X371183Y144412D01*
X370989Y145388D01*
X370437Y146215D01*
X369610Y146767D01*
X369422Y147048D01*
X365099Y147048D01*
Y147948D01*
X364199D01*
X364199Y152271D01*
X363918Y152459D01*
X363366Y153286D01*
X362539Y153838D01*
X361563Y154032D01*
X360577Y155019D01*
X360383Y155995D01*
X359830Y156821D01*
X359003Y157374D01*
X358816Y157655D01*
X354492Y157655D01*
Y158555D01*
X353592D01*
X353592Y162878D01*
X353312Y163066D01*
X352759Y163892D01*
X351932Y164445D01*
X350957Y164639D01*
X349981Y164445D01*
X349154Y163892D01*
X346519Y161257D01*
X341796Y165979D01*
X346519Y170702D01*
X349154Y168066D01*
X349981Y167513D01*
X350957Y167319D01*
X351932Y167513D01*
X352759Y168066D01*
X352879Y168246D01*
X354428Y168493D01*
X356409Y166513D01*
X357550Y165750D01*
X358896Y165482D01*
X378543D01*
X380327Y163698D01*
X380188Y163000D01*
X380631Y160776D01*
X381890Y158890D01*
X383776Y157631D01*
X386000Y157188D01*
X388224Y157631D01*
X390109Y158890D01*
X391369Y160776D01*
X391812Y163000D01*
X391369Y165224D01*
X390109Y167110D01*
X388224Y168369D01*
X386000Y168812D01*
X385302Y168673D01*
X382487Y171487D01*
X381346Y172250D01*
X380000Y172518D01*
X360353D01*
X359403Y173468D01*
X359650Y175017D01*
X359830Y175137D01*
X360383Y175964D01*
X360577Y176939D01*
X361563Y177926D01*
X362539Y178120D01*
X363366Y178673D01*
X363918Y179499D01*
X364112Y180475D01*
X365099Y181462D01*
X366074Y181656D01*
X366901Y182208D01*
X367454Y183035D01*
X367648Y184010D01*
X368634Y184997D01*
X369610Y185191D01*
X370437Y185744D01*
X370989Y186570D01*
X371183Y187546D01*
X372170Y188533D01*
X373145Y188727D01*
X373972Y189279D01*
X374525Y190106D01*
X374805Y190294D01*
Y194617D01*
X375705D01*
Y195517D01*
X380029D01*
X380216Y195798D01*
X381043Y196350D01*
X381164Y196530D01*
X381296Y196578D01*
X382482Y196218D01*
Y186000D01*
X382750Y184654D01*
X383513Y183513D01*
X396327Y170698D01*
X396188Y170000D01*
X396631Y167776D01*
X397891Y165891D01*
X399776Y164631D01*
X402000Y164188D01*
X404224Y164631D01*
X406110Y165891D01*
X407369Y167776D01*
X407812Y170000D01*
X407369Y172224D01*
X406110Y174109D01*
X404224Y175369D01*
X402115Y175789D01*
X401934Y175922D01*
X401903Y175973D01*
X401912Y176080D01*
X402585Y177305D01*
X404224Y177631D01*
X406110Y178890D01*
X406239Y179084D01*
X406823D01*
X408169Y179351D01*
X409212Y180049D01*
X409788Y179916D01*
X410482Y179628D01*
Y165628D01*
X399527Y154673D01*
X398829Y154812D01*
X396605Y154369D01*
X394719Y153110D01*
X393460Y151224D01*
X393017Y149000D01*
X393460Y146776D01*
X394719Y144890D01*
X396605Y143631D01*
X398829Y143188D01*
X401053Y143631D01*
X402938Y144890D01*
X404198Y146776D01*
X404641Y149000D01*
X404502Y149698D01*
X416487Y161684D01*
X417250Y162825D01*
X417518Y164171D01*
Y181250D01*
X418903Y182635D01*
X420452Y182388D01*
X420572Y182208D01*
X421399Y181656D01*
X422374Y181462D01*
X423361Y180475D01*
X423555Y179499D01*
X424108Y178673D01*
X424935Y178120D01*
X425910Y177926D01*
X426897Y176939D01*
X427091Y175964D01*
X427643Y175137D01*
X428470Y174585D01*
X428657Y174304D01*
X432981D01*
Y173404D01*
X433881D01*
X433881Y169080D01*
X434162Y168893D01*
X434714Y168066D01*
X435541Y167513D01*
X436517Y167319D01*
X437492Y167513D01*
X438319Y168066D01*
X441680Y171427D01*
X441820Y171399D01*
X461266D01*
X465718Y166947D01*
Y163250D01*
X466044Y161611D01*
X466972Y160222D01*
X468228Y159383D01*
Y127000D01*
X468228Y127000D01*
X468515Y125556D01*
X469332Y124332D01*
X476332Y117332D01*
X476332Y117332D01*
X477556Y116515D01*
X479000Y116228D01*
X479000Y116228D01*
X479383D01*
X480222Y114972D01*
X481611Y114044D01*
X482228Y113921D01*
Y105335D01*
X481890Y105110D01*
X480631Y103224D01*
X480188Y101000D01*
X480631Y98776D01*
X481890Y96890D01*
X483776Y95631D01*
X486000Y95188D01*
X488224Y95631D01*
X490109Y96890D01*
X491369Y98776D01*
X491812Y101000D01*
X491369Y103224D01*
X490109Y105110D01*
X489772Y105335D01*
Y113921D01*
X490389Y114044D01*
X491778Y114972D01*
X492617Y116228D01*
X495383D01*
X496222Y114972D01*
X497611Y114044D01*
X499250Y113718D01*
X504750D01*
X506389Y114044D01*
X507778Y114972D01*
X508617Y116228D01*
X520050D01*
Y110300D01*
X521227D01*
Y105335D01*
X520891Y105110D01*
X519631Y103224D01*
X519188Y101000D01*
X519631Y98776D01*
X520891Y96890D01*
X522776Y95631D01*
X525000Y95188D01*
X527224Y95631D01*
X529109Y96890D01*
X530369Y98776D01*
X530812Y101000D01*
X530369Y103224D01*
X529109Y105110D01*
X528773Y105335D01*
Y109960D01*
X546290D01*
Y110300D01*
X551710D01*
Y109960D01*
X561227D01*
Y105335D01*
X560891Y105110D01*
X559631Y103224D01*
X559188Y101000D01*
X559631Y98776D01*
X560891Y96890D01*
X562776Y95631D01*
X565000Y95188D01*
X567224Y95631D01*
X569109Y96890D01*
X569335Y97227D01*
X571000D01*
X571000Y97227D01*
X572444Y97515D01*
X573668Y98332D01*
X591747Y116412D01*
X593011Y116288D01*
X593222Y115972D01*
X594611Y115044D01*
X596250Y114718D01*
X601750D01*
X603389Y115044D01*
X604778Y115972D01*
X605617Y117227D01*
X613500D01*
X613500Y117227D01*
X614944Y117515D01*
X616168Y118333D01*
X640530Y142695D01*
X657500D01*
X660685Y143114D01*
X663653Y144343D01*
X666201Y146299D01*
X667664Y148205D01*
X669254Y148411D01*
X678727Y138937D01*
Y79805D01*
X672500D01*
X669315Y79386D01*
X666347Y78157D01*
X663799Y76201D01*
X661843Y73653D01*
X660614Y70685D01*
X660195Y67500D01*
X660614Y64315D01*
X661843Y61347D01*
X663799Y58799D01*
X666347Y56843D01*
X669315Y55614D01*
X672500Y55195D01*
X692500D01*
X695685Y55614D01*
X698653Y56843D01*
X701201Y58799D01*
X703157Y61347D01*
X704386Y64315D01*
X704805Y67500D01*
X704386Y70685D01*
X703157Y73653D01*
X701201Y76201D01*
X698653Y78157D01*
X695685Y79386D01*
X692500Y79805D01*
X686273D01*
Y140500D01*
X685985Y141944D01*
X685168Y143168D01*
X685167Y143168D01*
X670668Y157668D01*
X669444Y158485D01*
X669245Y158525D01*
X668157Y161153D01*
X666201Y163701D01*
X663653Y165657D01*
X660685Y166886D01*
X657500Y167305D01*
X651273D01*
Y234500D01*
X650985Y235944D01*
X650168Y237167D01*
X642168Y245168D01*
X640944Y245985D01*
X639500Y246273D01*
X639500Y246273D01*
X639142D01*
X638157Y248653D01*
X636201Y251201D01*
X633653Y253157D01*
X630685Y254386D01*
X627500Y254805D01*
X607500D01*
X604315Y254386D01*
X601347Y253157D01*
X598799Y251201D01*
X596843Y248653D01*
X595614Y245685D01*
X595195Y242500D01*
X595614Y239315D01*
X596843Y236347D01*
X598799Y233799D01*
X601347Y231843D01*
X604315Y230614D01*
X607500Y230195D01*
X627500D01*
X630685Y230614D01*
X633653Y231843D01*
X636201Y233799D01*
X638157Y236347D01*
X638352Y236819D01*
X639598Y237067D01*
X643727Y232937D01*
Y167305D01*
X637500D01*
X634315Y166886D01*
X631347Y165657D01*
X628799Y163701D01*
X626843Y161153D01*
X625614Y158185D01*
X625195Y155000D01*
X625614Y151815D01*
X626843Y148847D01*
X628799Y146299D01*
X630422Y145053D01*
X630533Y143368D01*
X611937Y124773D01*
X605617D01*
X604778Y126028D01*
X603389Y126956D01*
X601750Y127282D01*
X596250D01*
X594611Y126956D01*
X593222Y126028D01*
X592383Y124773D01*
X591000D01*
X591000Y124773D01*
X589556Y124485D01*
X588332Y123668D01*
X588332Y123667D01*
X570291Y105626D01*
X569878Y105446D01*
X568773Y105904D01*
Y111597D01*
X569950Y112775D01*
Y127225D01*
X570292Y128050D01*
X577700D01*
Y129482D01*
X580000D01*
X581346Y129750D01*
X582487Y130513D01*
X583487Y131513D01*
X584250Y132654D01*
X584518Y134000D01*
Y164000D01*
X584250Y165346D01*
X583487Y166487D01*
X519837Y230137D01*
X518696Y230900D01*
X517350Y231168D01*
X466642D01*
X466043Y232288D01*
X466369Y232776D01*
X466812Y235000D01*
X466369Y237224D01*
X465742Y238162D01*
X466421Y239433D01*
X483860D01*
X484891Y237890D01*
X486776Y236631D01*
X489000Y236188D01*
X491224Y236631D01*
X493110Y237890D01*
X494369Y239776D01*
X494812Y242000D01*
X494369Y244224D01*
X493110Y246110D01*
X491224Y247369D01*
X489000Y247812D01*
X486776Y247369D01*
X485427Y246468D01*
X395950D01*
X394604Y246200D01*
X393463Y245437D01*
X371513Y223487D01*
X370750Y222346D01*
X370482Y221000D01*
Y220616D01*
X369309Y220130D01*
X362518Y226922D01*
Y246495D01*
X363110Y246891D01*
X364369Y248776D01*
X364812Y251000D01*
X364369Y253224D01*
X363110Y255110D01*
X361224Y256369D01*
X359000Y256812D01*
X356776Y256369D01*
X354891Y255110D01*
X353631Y253224D01*
X353188Y251000D01*
X353631Y248776D01*
X354891Y246891D01*
X355482Y246495D01*
Y229584D01*
X354212Y229021D01*
X353708Y229478D01*
X353812Y230000D01*
X353369Y232224D01*
X352109Y234109D01*
X350224Y235369D01*
X348000Y235812D01*
X345776Y235369D01*
X343890Y234109D01*
X342631Y232224D01*
X342188Y230000D01*
X342631Y227776D01*
X343890Y225891D01*
X345776Y224631D01*
X347838Y224221D01*
X350437Y221622D01*
X349811Y220451D01*
X348000Y220812D01*
X345776Y220369D01*
X343890Y219109D01*
X342666Y217276D01*
X342517Y217109D01*
X341315Y216831D01*
X336851Y221294D01*
X337214Y221657D01*
X337700Y222384D01*
X337870Y223243D01*
X337700Y224101D01*
X337214Y224829D01*
X333678Y228364D01*
X332950Y228850D01*
X332092Y229021D01*
X331233Y228850D01*
X330712Y228502D01*
X322502Y236712D01*
X322850Y237233D01*
X323021Y238092D01*
X322850Y238950D01*
X322364Y239678D01*
X322364Y239678D01*
X318829Y243214D01*
X318101Y243700D01*
X317243Y243871D01*
X316384Y243700D01*
X315657Y243214D01*
X315657Y243214D01*
X310000Y237557D01*
X310000Y237557D01*
X309513Y236829D01*
X309343Y235971D01*
X309513Y235112D01*
X310000Y234384D01*
X313535Y230849D01*
X314263Y230363D01*
X315121Y230192D01*
X315980Y230363D01*
X316501Y230711D01*
X324711Y222501D01*
X324363Y221980D01*
X324192Y221121D01*
X324363Y220263D01*
X324849Y219535D01*
X328385Y216000D01*
X329112Y215513D01*
X329971Y215343D01*
X330829Y215513D01*
X331557Y216000D01*
X331877Y216320D01*
X344409Y203788D01*
X344077Y202704D01*
X343938Y202518D01*
X316560D01*
X316487Y202888D01*
X316000Y203615D01*
X312465Y207151D01*
X312465Y207151D01*
X311737Y207637D01*
X310879Y207808D01*
X310020Y207637D01*
X309499Y207289D01*
X301289Y215499D01*
X301637Y216020D01*
X301808Y216879D01*
X301637Y217737D01*
X301151Y218465D01*
X297616Y222000D01*
X296888Y222487D01*
X296029Y222657D01*
X295171Y222487D01*
X294443Y222000D01*
X288787Y216343D01*
X288300Y215616D01*
X288130Y214757D01*
X288300Y213899D01*
X288787Y213171D01*
X292322Y209636D01*
X293050Y209149D01*
X293908Y208979D01*
X294767Y209149D01*
X295288Y209498D01*
X303498Y201288D01*
X303150Y200767D01*
X302979Y199908D01*
X303150Y199050D01*
X303636Y198322D01*
X307171Y194786D01*
X307899Y194300D01*
X308757Y194130D01*
X309616Y194300D01*
X310343Y194786D01*
X311163Y195606D01*
X311787Y195482D01*
X348652D01*
X349581Y194553D01*
X349334Y193004D01*
X349154Y192884D01*
X348602Y192057D01*
X348408Y191082D01*
X347421Y190095D01*
X346446Y189901D01*
X345619Y189348D01*
X345066Y188521D01*
X344872Y187546D01*
X343885Y186559D01*
X342910Y186365D01*
X342083Y185813D01*
X341531Y184986D01*
X341337Y184010D01*
X340350Y183024D01*
X339375Y182830D01*
X338548Y182277D01*
X337995Y181450D01*
X337801Y180475D01*
X337995Y179499D01*
X338548Y178673D01*
X341183Y176037D01*
X334919Y169772D01*
X322079D01*
X321956Y170389D01*
X321028Y171778D01*
X319639Y172706D01*
X318000Y173032D01*
X314485D01*
X278850Y208668D01*
X277626Y209485D01*
X276182Y209772D01*
X276182Y209772D01*
X270335D01*
X270110Y210110D01*
X268224Y211369D01*
X266000Y211812D01*
X265479Y211708D01*
X264853Y212878D01*
X274302Y222327D01*
X275000Y222188D01*
X277224Y222631D01*
X279109Y223890D01*
X280369Y225776D01*
X280812Y228000D01*
X280369Y230224D01*
X279109Y232110D01*
X277224Y233369D01*
X275000Y233812D01*
X272776Y233369D01*
X270891Y232110D01*
X269631Y230224D01*
X269188Y228000D01*
X269327Y227302D01*
X241543Y199518D01*
X202505D01*
X202110Y200110D01*
X200224Y201369D01*
X198000Y201812D01*
X195776Y201369D01*
X193890Y200110D01*
X192631Y198224D01*
X192188Y196000D01*
X192631Y193776D01*
X193890Y191891D01*
X195776Y190631D01*
X198000Y190188D01*
X200224Y190631D01*
X202110Y191891D01*
X202505Y192482D01*
X243000D01*
X244346Y192750D01*
X245487Y193513D01*
X259122Y207147D01*
X260292Y206521D01*
X260188Y206000D01*
X260631Y203776D01*
X261891Y201891D01*
X263776Y200631D01*
X266000Y200188D01*
X268224Y200631D01*
X270110Y201891D01*
X270335Y202227D01*
X274620D01*
X284164Y192684D01*
X283883Y191483D01*
X283720Y191332D01*
X281891Y190110D01*
X281495Y189518D01*
X226000D01*
X224654Y189250D01*
X223513Y188487D01*
X213513Y178487D01*
X212750Y177346D01*
X212634Y176761D01*
X212361Y176706D01*
X210972Y175778D01*
X210044Y174389D01*
X209870Y173518D01*
X199583D01*
X198910Y175144D01*
X197275Y177275D01*
X195144Y178910D01*
X192663Y179937D01*
X190000Y180288D01*
X187337Y179937D01*
X184856Y178910D01*
X182725Y177275D01*
X181090Y175144D01*
X180063Y172663D01*
X179712Y170000D01*
X180063Y167337D01*
X181090Y164856D01*
X182725Y162725D01*
X184856Y161090D01*
X187337Y160063D01*
X190000Y159712D01*
X192663Y160063D01*
X195144Y161090D01*
X197275Y162725D01*
X198910Y164856D01*
X199583Y166482D01*
X209870D01*
X210044Y165611D01*
X210972Y164222D01*
X212361Y163294D01*
X214000Y162968D01*
X218000D01*
X219639Y163294D01*
X221028Y164222D01*
X221956Y165611D01*
X222282Y167250D01*
Y172750D01*
X221956Y174389D01*
X221028Y175778D01*
X221003Y176029D01*
X227457Y182482D01*
X281495D01*
X281891Y181891D01*
X283776Y180631D01*
X286000Y180188D01*
X288224Y180631D01*
X290110Y181891D01*
X291332Y183720D01*
X291483Y183883D01*
X292684Y184164D01*
X302227Y174620D01*
X302147Y174184D01*
X301672Y173379D01*
X298000D01*
X296229Y173027D01*
X295490Y172533D01*
X300636Y167386D01*
X299364Y166114D01*
X294217Y171260D01*
X293723Y170521D01*
X293371Y168750D01*
Y163250D01*
X293723Y161479D01*
X294217Y160740D01*
X299364Y165886D01*
X300000Y165250D01*
X300636Y165886D01*
X305783Y160740D01*
X306277Y161479D01*
X306629Y163250D01*
Y168422D01*
X307434Y168897D01*
X307870Y168977D01*
X309718Y167129D01*
Y163250D01*
X310044Y161611D01*
X310972Y160222D01*
X312227Y159383D01*
Y147335D01*
X311891Y147109D01*
X310631Y145224D01*
X310188Y143000D01*
X310631Y140776D01*
X311891Y138890D01*
X313776Y137631D01*
X316000Y137188D01*
X318224Y137631D01*
X320109Y138890D01*
X321369Y140776D01*
X321812Y143000D01*
X321369Y145224D01*
X320109Y147109D01*
X319772Y147335D01*
Y159383D01*
X321028Y160222D01*
X321956Y161611D01*
X322079Y162227D01*
X334878D01*
X341183Y155922D01*
X338548Y153286D01*
X337995Y152459D01*
X337801Y151483D01*
X337995Y150508D01*
X338548Y149681D01*
X339375Y149129D01*
X339562Y148848D01*
X343885D01*
Y147948D01*
X344785D01*
X344785Y143624D01*
X345066Y143437D01*
X345619Y142610D01*
X346446Y142058D01*
X347421Y141863D01*
X348408Y140877D01*
X348602Y139901D01*
X349154Y139074D01*
X349981Y138522D01*
X350169Y138241D01*
X354492D01*
Y136441D01*
X350552D01*
X350687Y135765D01*
X351580Y134429D01*
X352004Y134145D01*
X352128Y132881D01*
X342265Y123018D01*
X311856D01*
X311220Y123970D01*
X309169Y125340D01*
X306750Y125821D01*
X303250D01*
X300831Y125340D01*
X298780Y123970D01*
X297410Y121919D01*
X296929Y119500D01*
X297410Y117081D01*
X298780Y115030D01*
X300561Y113840D01*
X300625Y112838D01*
X300528Y112451D01*
X299952Y112213D01*
X299306Y111717D01*
X303887Y107136D01*
X303250Y106500D01*
X303887Y105864D01*
X299306Y101283D01*
X299952Y100787D01*
X301543Y100128D01*
X303250Y99904D01*
X306750D01*
X308457Y100128D01*
X310048Y100787D01*
X310694Y101283D01*
X306114Y105864D01*
X306750Y106500D01*
X306114Y107136D01*
X310694Y111717D01*
X310048Y112213D01*
X309472Y112451D01*
X309375Y112838D01*
X309439Y113840D01*
X311220Y115030D01*
X311856Y115982D01*
X329408D01*
X329793Y114712D01*
X328890Y114109D01*
X327631Y112224D01*
X327188Y110000D01*
X327631Y107776D01*
X328890Y105891D01*
X329482Y105495D01*
Y80457D01*
X296543Y47518D01*
X264000D01*
X262654Y47250D01*
X261513Y46487D01*
X249543Y34518D01*
X202130D01*
X201956Y35389D01*
X201028Y36778D01*
X199639Y37706D01*
X198000Y38032D01*
X194000D01*
X192361Y37706D01*
X190972Y36778D01*
X190044Y35389D01*
X189718Y33750D01*
Y28250D01*
X190044Y26611D01*
X190972Y25222D01*
X192361Y24294D01*
X194000Y23968D01*
X198000D01*
X199639Y24294D01*
X201028Y25222D01*
X201956Y26611D01*
X202130Y27482D01*
X251000D01*
X252346Y27750D01*
X253487Y28513D01*
X265457Y40482D01*
X298000D01*
X299346Y40750D01*
X300487Y41513D01*
X335487Y76513D01*
X336250Y77654D01*
X336518Y79000D01*
Y105495D01*
X337109Y105891D01*
X338369Y107776D01*
X338812Y110000D01*
X338369Y112224D01*
X337109Y114109D01*
X336207Y114712D01*
X336592Y115982D01*
X343722D01*
X345068Y116250D01*
X345212Y116347D01*
X346437Y115692D01*
X346461Y114491D01*
X345891Y114109D01*
X344631Y112224D01*
X344188Y110000D01*
X344631Y107776D01*
X345891Y105891D01*
X347776Y104631D01*
X350000Y104188D01*
X352224Y104631D01*
X354109Y105891D01*
X355369Y107776D01*
X355812Y110000D01*
X355369Y112224D01*
X354109Y114109D01*
X353518Y114505D01*
Y117250D01*
X361627Y125359D01*
X363176Y125112D01*
X363296Y124932D01*
X364123Y124380D01*
X365099Y124186D01*
X366085Y123199D01*
X366279Y122224D01*
X366832Y121397D01*
X367659Y120844D01*
X368634Y120650D01*
X369621Y119664D01*
X369815Y118688D01*
X370367Y117861D01*
X371194Y117309D01*
X372170Y117115D01*
X373156Y116128D01*
X373350Y115153D01*
X373903Y114326D01*
X374083Y114206D01*
X374330Y112656D01*
X291780Y30106D01*
X290400Y30288D01*
X287737Y29938D01*
X285256Y28910D01*
X283125Y27275D01*
X281490Y25144D01*
X280463Y22663D01*
X280112Y20000D01*
X280463Y17337D01*
X281490Y14856D01*
X283125Y12725D01*
X285256Y11090D01*
X285372Y11042D01*
X285119Y9772D01*
X271039D01*
X270640Y11042D01*
X271797Y11930D01*
X265000Y18727D01*
X258203Y11930D01*
X259360Y11042D01*
X258961Y9772D01*
X153563D01*
X124251Y39084D01*
X124528Y39751D01*
X124758Y41500D01*
X124528Y43249D01*
X123852Y44879D01*
X122779Y46279D01*
X121379Y47352D01*
X119749Y48028D01*
X118000Y48258D01*
X115000D01*
X113251Y48028D01*
X111621Y47352D01*
X110222Y46279D01*
X109148Y44879D01*
X108472Y43249D01*
X108242Y41500D01*
X108472Y39751D01*
X109148Y38121D01*
X110222Y36721D01*
X111621Y35648D01*
X113251Y34973D01*
X115000Y34742D01*
X117923D01*
X147954Y4711D01*
X147468Y3538D01*
X28280D01*
X28206Y4467D01*
X27160Y8825D01*
X25445Y12965D01*
X23104Y16786D01*
X20194Y20194D01*
X16786Y23104D01*
X12965Y25445D01*
X8825Y27160D01*
X4467Y28206D01*
X3538Y28280D01*
Y236720D01*
X4467Y236794D01*
X8825Y237840D01*
X12965Y239555D01*
X16786Y241896D01*
X20194Y244806D01*
X23104Y248214D01*
X25445Y252035D01*
X27160Y256175D01*
X28206Y260532D01*
X28280Y261462D01*
X716720D01*
X716794Y260532D01*
D02*
G37*
G36*
X426482Y110581D02*
Y75505D01*
X425891Y75110D01*
X424631Y73224D01*
X424188Y71000D01*
X424631Y68776D01*
X425891Y66891D01*
X427776Y65631D01*
X430000Y65188D01*
X432224Y65631D01*
X434109Y66891D01*
X435369Y68776D01*
X435812Y71000D01*
X435369Y73224D01*
X434109Y75110D01*
X433518Y75505D01*
Y88659D01*
X434788Y89045D01*
X434891Y88890D01*
X436776Y87631D01*
X439000Y87188D01*
X441224Y87631D01*
X442212Y88291D01*
X443482Y87612D01*
Y67457D01*
X405113Y29088D01*
X403063Y29938D01*
X400400Y30288D01*
X397737Y29938D01*
X395256Y28910D01*
X393125Y27275D01*
X391490Y25144D01*
X390463Y22663D01*
X390112Y20000D01*
X390463Y17337D01*
X391490Y14856D01*
X393125Y12725D01*
X395256Y11090D01*
X395372Y11042D01*
X395119Y9772D01*
X381039D01*
X380640Y11042D01*
X381797Y11930D01*
X375000Y18727D01*
X368203Y11930D01*
X369360Y11042D01*
X368961Y9772D01*
X353563D01*
X349402Y13933D01*
X350110Y14856D01*
X351137Y17337D01*
X351488Y20000D01*
X351137Y22663D01*
X350110Y25144D01*
X348475Y27275D01*
X347253Y28212D01*
X347684Y29482D01*
X367958D01*
X368389Y28212D01*
X368203Y28070D01*
X375000Y21273D01*
X381797Y28070D01*
X381511Y28289D01*
X381828Y29647D01*
X382346Y29750D01*
X383487Y30513D01*
X420487Y67513D01*
X421250Y68654D01*
X421518Y70000D01*
Y113887D01*
X422691Y114373D01*
X426482Y110581D01*
D02*
G37*
G36*
X526000Y7000D02*
X516000D01*
X504000Y19000D01*
Y29000D01*
X526000D01*
Y7000D01*
D02*
G37*
%LPC*%
G36*
X490000Y173379D02*
X486000D01*
X484229Y173027D01*
X483490Y172533D01*
X488000Y168023D01*
X492510Y172533D01*
X491771Y173027D01*
X490000Y173379D01*
D02*
G37*
G36*
X482217Y171260D02*
X481723Y170521D01*
X481371Y168750D01*
Y163250D01*
X481723Y161479D01*
X482217Y160740D01*
X487364Y165886D01*
X488000Y165250D01*
X488636Y165886D01*
X493783Y160740D01*
X494277Y161479D01*
X494629Y163250D01*
Y168750D01*
X494277Y170521D01*
X493783Y171260D01*
X488636Y166114D01*
X488000Y166750D01*
X487364Y166114D01*
X482217Y171260D01*
D02*
G37*
G36*
X488000Y163977D02*
X483490Y159467D01*
X484229Y158973D01*
X486000Y158621D01*
X490000D01*
X491771Y158973D01*
X492510Y159467D01*
X488000Y163977D01*
D02*
G37*
G36*
X265000Y251032D02*
X261000D01*
X259361Y250706D01*
X257972Y249778D01*
X257044Y248389D01*
X256870Y247518D01*
X252505D01*
X252110Y248109D01*
X250224Y249369D01*
X248000Y249812D01*
X245776Y249369D01*
X243890Y248109D01*
X243495Y247518D01*
X233730D01*
X233706Y247639D01*
X232778Y249028D01*
X231389Y249956D01*
X229750Y250282D01*
X224250D01*
X222611Y249956D01*
X221222Y249028D01*
X220335Y247701D01*
X220060Y247663D01*
X219042Y247770D01*
X219025Y247773D01*
X218533Y248510D01*
X214023Y244000D01*
X218533Y239490D01*
X219025Y240227D01*
X219042Y240230D01*
X220060Y240337D01*
X220335Y240299D01*
X221222Y238972D01*
X222611Y238044D01*
X224250Y237718D01*
X229750D01*
X231389Y238044D01*
X232778Y238972D01*
X233706Y240361D01*
X233730Y240482D01*
X243495D01*
X243890Y239890D01*
X245776Y238631D01*
X248000Y238188D01*
X250224Y238631D01*
X252110Y239890D01*
X252505Y240482D01*
X256870D01*
X257044Y239611D01*
X257972Y238222D01*
X259361Y237294D01*
X261000Y236968D01*
X265000D01*
X266639Y237294D01*
X268028Y238222D01*
X268956Y239611D01*
X269282Y241250D01*
Y246750D01*
X268956Y248389D01*
X268028Y249778D01*
X266639Y250706D01*
X265000Y251032D01*
D02*
G37*
G36*
X281000Y251379D02*
X277000D01*
X275229Y251027D01*
X274490Y250533D01*
X279000Y246023D01*
X283510Y250533D01*
X282771Y251027D01*
X281000Y251379D01*
D02*
G37*
G36*
X284783Y249260D02*
X279636Y244114D01*
X279000Y244750D01*
X278364Y244114D01*
X273217Y249260D01*
X272723Y248521D01*
X272371Y246750D01*
Y241250D01*
X272723Y239479D01*
X273217Y238740D01*
X278364Y243886D01*
X279000Y243250D01*
X279636Y243886D01*
X284783Y238740D01*
X285277Y239479D01*
X285629Y241250D01*
Y246750D01*
X285277Y248521D01*
X284783Y249260D01*
D02*
G37*
G36*
X205467Y248510D02*
X204973Y247771D01*
X204621Y246000D01*
Y242000D01*
X204973Y240229D01*
X205467Y239490D01*
X209977Y244000D01*
X205467Y248510D01*
D02*
G37*
G36*
X188467D02*
X187973Y247771D01*
X187621Y246000D01*
Y242000D01*
X187973Y240229D01*
X188467Y239490D01*
X192977Y244000D01*
X188467Y248510D01*
D02*
G37*
G36*
X201533Y248510D02*
X197023Y244000D01*
X201533Y239490D01*
X202027Y240229D01*
X202379Y242000D01*
Y246000D01*
X202027Y247771D01*
X201533Y248510D01*
D02*
G37*
G36*
X214750Y250629D02*
X209250D01*
X207479Y250277D01*
X206740Y249783D01*
X211886Y244636D01*
X211250Y244000D01*
X211886Y243364D01*
X206740Y238217D01*
X207479Y237723D01*
X209250Y237371D01*
X214750D01*
X216521Y237723D01*
X217260Y238217D01*
X212114Y243364D01*
X212750Y244000D01*
X212114Y244636D01*
X217260Y249783D01*
X216521Y250277D01*
X214750Y250629D01*
D02*
G37*
G36*
X197750D02*
X192250D01*
X190479Y250277D01*
X189740Y249783D01*
X194886Y244636D01*
X194250Y244000D01*
X194886Y243364D01*
X189740Y238217D01*
X190479Y237723D01*
X192250Y237371D01*
X197750D01*
X199521Y237723D01*
X200260Y238217D01*
X195114Y243364D01*
X195750Y244000D01*
X195114Y244636D01*
X200260Y249783D01*
X199521Y250277D01*
X197750Y250629D01*
D02*
G37*
G36*
X296364Y241795D02*
X294007Y241326D01*
X292772Y240501D01*
X296364Y236909D01*
X299955Y240501D01*
X298720Y241326D01*
X296364Y241795D01*
D02*
G37*
G36*
X279000Y241977D02*
X274490Y237467D01*
X275229Y236973D01*
X277000Y236621D01*
X281000D01*
X282771Y236973D01*
X283510Y237467D01*
X279000Y241977D01*
D02*
G37*
G36*
X151500Y239389D02*
X146500D01*
X144534Y238998D01*
X143629Y238393D01*
X149000Y233023D01*
X154371Y238393D01*
X153467Y238998D01*
X151500Y239389D01*
D02*
G37*
G36*
X301228Y239228D02*
X297636Y235636D01*
X301228Y232045D01*
X302053Y233280D01*
X302522Y235636D01*
X302053Y237993D01*
X301228Y239228D01*
D02*
G37*
G36*
X291499Y239228D02*
X290674Y237993D01*
X290205Y235636D01*
X290674Y233280D01*
X291499Y232045D01*
X295091Y235636D01*
X291499Y239228D01*
D02*
G37*
G36*
X155643Y237121D02*
X149636Y231114D01*
X149000Y231750D01*
X148364Y231114D01*
X142357Y237121D01*
X141752Y236217D01*
X141361Y234250D01*
Y221750D01*
X141752Y219783D01*
X142357Y218879D01*
X148364Y224886D01*
X149000Y224250D01*
X149636Y224886D01*
X155643Y218879D01*
X156248Y219783D01*
X156639Y221750D01*
Y234250D01*
X156248Y236217D01*
X155643Y237121D01*
D02*
G37*
G36*
X53500Y237389D02*
X48500D01*
X46533Y236998D01*
X45629Y236393D01*
X51000Y231023D01*
X56371Y236394D01*
X55466Y236998D01*
X53500Y237389D01*
D02*
G37*
G36*
X692500Y254805D02*
X672500D01*
X669315Y254386D01*
X666347Y253157D01*
X663799Y251201D01*
X661843Y248653D01*
X660614Y245685D01*
X660195Y242500D01*
X660614Y239315D01*
X661843Y236347D01*
X663799Y233799D01*
X666347Y231843D01*
X669315Y230614D01*
X672500Y230195D01*
X692500D01*
X695685Y230614D01*
X698653Y231843D01*
X701201Y233799D01*
X703157Y236347D01*
X704386Y239315D01*
X704805Y242500D01*
X704386Y245685D01*
X703157Y248653D01*
X701201Y251201D01*
X698653Y253157D01*
X695685Y254386D01*
X692500Y254805D01*
D02*
G37*
G36*
X296364Y234364D02*
X292772Y230772D01*
X294007Y229947D01*
X296364Y229478D01*
X298720Y229947D01*
X299955Y230772D01*
X296364Y234364D01*
D02*
G37*
G36*
X57643Y235121D02*
X51636Y229114D01*
X51000Y229750D01*
X50364Y229114D01*
X44357Y235121D01*
X43752Y234216D01*
X43361Y232250D01*
Y219750D01*
X43752Y217784D01*
X44356Y216879D01*
X50364Y222886D01*
X51000Y222250D01*
X51636Y222886D01*
X57643Y216879D01*
X58247Y217784D01*
X58639Y219750D01*
Y232250D01*
X58247Y234216D01*
X57643Y235121D01*
D02*
G37*
G36*
X115000Y233158D02*
X112643Y232690D01*
X111408Y231864D01*
X115000Y228273D01*
X118592Y231864D01*
X117357Y232690D01*
X115000Y233158D01*
D02*
G37*
G36*
X304322Y232299D02*
X299701Y227678D01*
X303293Y227678D01*
X304322Y228707D01*
Y232299D01*
D02*
G37*
G36*
X119864Y230592D02*
X116273Y227000D01*
X119864Y223408D01*
X120689Y224643D01*
X121158Y227000D01*
X120689Y229357D01*
X119864Y230592D01*
D02*
G37*
G36*
X110136Y230592D02*
X109310Y229357D01*
X108842Y227000D01*
X109310Y224643D01*
X110136Y223408D01*
X113727Y227000D01*
X110136Y230592D01*
D02*
G37*
G36*
X115000Y225727D02*
X111408Y222136D01*
X112643Y221311D01*
X115000Y220842D01*
X117357Y221311D01*
X118592Y222136D01*
X115000Y225727D01*
D02*
G37*
G36*
X181500Y239042D02*
X176500D01*
X174666Y238677D01*
X173111Y237638D01*
X172073Y236084D01*
X171708Y234250D01*
Y221750D01*
X172073Y219916D01*
X173111Y218361D01*
X173427Y218151D01*
X173552Y216887D01*
X150937Y194272D01*
X144164D01*
X142479Y195398D01*
X140450Y195802D01*
X131450D01*
X129421Y195398D01*
X127701Y194249D01*
X126552Y192529D01*
X126148Y190500D01*
X126552Y188471D01*
X127701Y186751D01*
X129421Y185602D01*
X131450Y185198D01*
X140450D01*
X142479Y185602D01*
X144164Y186728D01*
X152500D01*
X152500Y186728D01*
X153944Y187015D01*
X155168Y187832D01*
X181667Y214332D01*
X181668Y214333D01*
X182485Y215556D01*
X182773Y217000D01*
Y217211D01*
X183334Y217323D01*
X184888Y218361D01*
X185927Y219916D01*
X186292Y221750D01*
Y224228D01*
X188383D01*
X189222Y222972D01*
X190611Y222044D01*
X192250Y221718D01*
X197750D01*
X199389Y222044D01*
X200778Y222972D01*
X201617Y224228D01*
X205383D01*
X206222Y222972D01*
X207611Y222044D01*
X209250Y221718D01*
X214750D01*
X216389Y222044D01*
X217778Y222972D01*
X218617Y224228D01*
X220383D01*
X221222Y222972D01*
X222611Y222044D01*
X224250Y221718D01*
X229750D01*
X231389Y222044D01*
X232778Y222972D01*
X233617Y224228D01*
X242002D01*
X242188Y224000D01*
X242631Y221776D01*
X243890Y219890D01*
X245776Y218631D01*
X248000Y218188D01*
X250224Y218631D01*
X252110Y219890D01*
X253369Y221776D01*
X253812Y224000D01*
X253369Y226224D01*
X252110Y228109D01*
X250224Y229369D01*
X248000Y229812D01*
X247603Y229733D01*
X246668Y230668D01*
X245444Y231485D01*
X244000Y231772D01*
X244000Y231772D01*
X233617D01*
X232778Y233028D01*
X231389Y233956D01*
X229750Y234282D01*
X224250D01*
X222611Y233956D01*
X221222Y233028D01*
X220383Y231772D01*
X218617D01*
X217778Y233028D01*
X216389Y233956D01*
X214750Y234282D01*
X209250D01*
X207611Y233956D01*
X206222Y233028D01*
X205383Y231772D01*
X201617D01*
X200778Y233028D01*
X199389Y233956D01*
X197750Y234282D01*
X192250D01*
X190611Y233956D01*
X189222Y233028D01*
X188383Y231772D01*
X186292D01*
Y234250D01*
X185927Y236084D01*
X184888Y237638D01*
X183334Y238677D01*
X181500Y239042D01*
D02*
G37*
G36*
X149000Y222977D02*
X143629Y217607D01*
X144534Y217002D01*
X146500Y216611D01*
X151500D01*
X153467Y217002D01*
X154371Y217607D01*
X149000Y222977D01*
D02*
G37*
G36*
X51000Y220977D02*
X45629Y215607D01*
X46533Y215002D01*
X48500Y214611D01*
X53500D01*
X55466Y215002D01*
X56371Y215607D01*
X51000Y220977D01*
D02*
G37*
G36*
X306636Y233264D02*
X306122Y233162D01*
Y230507D01*
X306636Y231021D01*
X310172Y227485D01*
X308757Y226071D01*
X320071Y214757D01*
X321485Y216172D01*
X325021Y212636D01*
X324507Y212122D01*
X327162Y212122D01*
X327264Y212636D01*
X327093Y213494D01*
X326607Y214222D01*
X323071Y217758D01*
X322344Y218244D01*
X321485Y218415D01*
X320627Y218244D01*
X320357Y218064D01*
X312064Y226357D01*
X312244Y226627D01*
X312415Y227485D01*
X312244Y228344D01*
X311758Y229071D01*
X308222Y232607D01*
X307494Y233093D01*
X306636Y233264D01*
D02*
G37*
G36*
X574467Y218510D02*
X573973Y217771D01*
X573621Y216000D01*
Y212000D01*
X573973Y210229D01*
X574467Y209490D01*
X578977Y214000D01*
X574467Y218510D01*
D02*
G37*
G36*
X587533Y218510D02*
X583023Y214000D01*
X587533Y209490D01*
X588027Y210229D01*
X588379Y212000D01*
Y216000D01*
X588027Y217771D01*
X587533Y218510D01*
D02*
G37*
G36*
X583750Y220629D02*
X578250D01*
X576479Y220277D01*
X575740Y219783D01*
X580886Y214636D01*
X580250Y214000D01*
X580886Y213364D01*
X575740Y208217D01*
X576479Y207723D01*
X578250Y207371D01*
X583750D01*
X585521Y207723D01*
X586260Y208217D01*
X581114Y213364D01*
X581750Y214000D01*
X581114Y214636D01*
X586260Y219783D01*
X585521Y220277D01*
X583750Y220629D01*
D02*
G37*
G36*
X144954Y212731D02*
X141723Y209500D01*
X144954Y206269D01*
X145669Y207338D01*
X146098Y209500D01*
X145669Y211662D01*
X144954Y212731D01*
D02*
G37*
G36*
X126946D02*
X126231Y211662D01*
X125801Y209500D01*
X126231Y207338D01*
X126946Y206269D01*
X130177Y209500D01*
X126946Y212731D01*
D02*
G37*
G36*
X53500Y212389D02*
X48500D01*
X46533Y211998D01*
X45629Y211393D01*
X51000Y206023D01*
X56371Y211394D01*
X55466Y211998D01*
X53500Y212389D01*
D02*
G37*
G36*
X322707Y210322D02*
X321678Y209293D01*
Y205701D01*
X326299Y210322D01*
X322707Y210322D01*
D02*
G37*
G36*
X301493Y225878D02*
X298838D01*
X298736Y225364D01*
X298907Y224506D01*
X299393Y223778D01*
X302929Y220242D01*
X303656Y219756D01*
X304515Y219585D01*
X305373Y219756D01*
X305643Y219936D01*
X313937Y211643D01*
X313756Y211373D01*
X313585Y210515D01*
X313756Y209656D01*
X314242Y208929D01*
X317778Y205393D01*
X318506Y204907D01*
X319364Y204736D01*
X319878Y204838D01*
Y207493D01*
X319364Y206979D01*
X315828Y210515D01*
X317243Y211929D01*
X305929Y223243D01*
X304515Y221828D01*
X300979Y225364D01*
X301493Y225878D01*
D02*
G37*
G36*
X57643Y210121D02*
X51636Y204114D01*
X51000Y204750D01*
X50364Y204114D01*
X44357Y210121D01*
X43752Y209216D01*
X43361Y207250D01*
Y194750D01*
X43752Y192784D01*
X44356Y191879D01*
X50364Y197886D01*
X51000Y197250D01*
X51636Y197886D01*
X57643Y191879D01*
X58247Y192784D01*
X58639Y194750D01*
Y207250D01*
X58247Y209216D01*
X57643Y210121D01*
D02*
G37*
G36*
X140450Y215149D02*
X131450D01*
X129288Y214719D01*
X128219Y214004D01*
X132086Y210136D01*
X131450Y209500D01*
X132086Y208864D01*
X128219Y204996D01*
X129288Y204282D01*
X131450Y203852D01*
X140450D01*
X142612Y204282D01*
X143681Y204996D01*
X139814Y208864D01*
X140450Y209500D01*
X139814Y210136D01*
X143681Y214004D01*
X142612Y214719D01*
X140450Y215149D01*
D02*
G37*
G36*
X627500Y209805D02*
X607500D01*
X604315Y209386D01*
X601347Y208157D01*
X598799Y206201D01*
X596843Y203653D01*
X595752Y201018D01*
X587830D01*
X587706Y201639D01*
X586778Y203028D01*
X585389Y203956D01*
X583750Y204282D01*
X578250D01*
X576611Y203956D01*
X575222Y203028D01*
X574294Y201639D01*
X573968Y200000D01*
Y196000D01*
X574294Y194361D01*
X575222Y192972D01*
X576611Y192044D01*
X578250Y191718D01*
X583750D01*
X585389Y192044D01*
X586778Y192972D01*
X587453Y193982D01*
X595752D01*
X596843Y191347D01*
X598799Y188799D01*
X601347Y186843D01*
X604315Y185614D01*
X607500Y185195D01*
X627500D01*
X630685Y185614D01*
X633653Y186843D01*
X636201Y188799D01*
X638157Y191347D01*
X639386Y194315D01*
X639805Y197500D01*
X639386Y200685D01*
X638157Y203653D01*
X636201Y206201D01*
X633653Y208157D01*
X630685Y209386D01*
X627500Y209805D01*
D02*
G37*
G36*
X119054Y203231D02*
X115823Y200000D01*
X119054Y196769D01*
X119769Y197838D01*
X120198Y200000D01*
X119769Y202162D01*
X119054Y203231D01*
D02*
G37*
G36*
X376605Y193717D02*
Y190677D01*
X377282Y190812D01*
X378618Y191704D01*
X379511Y193041D01*
X379645Y193717D01*
X376605Y193717D01*
D02*
G37*
G36*
X51000Y195977D02*
X45629Y190607D01*
X46533Y190002D01*
X48500Y189611D01*
X53500D01*
X55466Y190002D01*
X56371Y190607D01*
X51000Y195977D01*
D02*
G37*
G36*
X81000Y249812D02*
X78776Y249369D01*
X76891Y248109D01*
X75631Y246224D01*
X75188Y244000D01*
X75631Y241776D01*
X76891Y239890D01*
X77228Y239665D01*
Y236789D01*
X76666Y236677D01*
X75111Y235639D01*
X74073Y234084D01*
X73708Y232250D01*
Y219750D01*
X74073Y217916D01*
X75111Y216362D01*
X76666Y215323D01*
X77228Y215211D01*
Y211789D01*
X76666Y211677D01*
X75111Y210639D01*
X74073Y209084D01*
X73708Y207250D01*
Y194750D01*
X74073Y192916D01*
X75111Y191362D01*
X76666Y190323D01*
X78500Y189958D01*
X83500D01*
X85334Y190323D01*
X86889Y191362D01*
X87266Y191399D01*
X90832Y187833D01*
X90832Y187832D01*
X92056Y187015D01*
X93500Y186728D01*
X93500Y186728D01*
X101836D01*
X103521Y185602D01*
X105550Y185198D01*
X114550D01*
X116579Y185602D01*
X118299Y186751D01*
X119448Y188471D01*
X119852Y190500D01*
X119448Y192529D01*
X118299Y194249D01*
X118057Y194410D01*
Y195220D01*
X113914Y199364D01*
X114550Y200000D01*
X113914Y200636D01*
X118057Y204780D01*
Y205590D01*
X118299Y205751D01*
X119448Y207471D01*
X119852Y209500D01*
X119448Y211529D01*
X118299Y213249D01*
X116579Y214398D01*
X114550Y214802D01*
X105550D01*
X103521Y214398D01*
X101836Y213272D01*
X92500D01*
X91056Y212985D01*
X89832Y212168D01*
X89832Y212167D01*
X88163Y210498D01*
X86899Y210623D01*
X86889Y210639D01*
X85334Y211677D01*
X84773Y211789D01*
Y215211D01*
X85334Y215323D01*
X86889Y216362D01*
X87927Y217916D01*
X88292Y219750D01*
Y232250D01*
X87927Y234084D01*
X86889Y235639D01*
X85334Y236677D01*
X84773Y236789D01*
Y239665D01*
X85110Y239890D01*
X86369Y241776D01*
X86812Y244000D01*
X86369Y246224D01*
X85110Y248109D01*
X83224Y249369D01*
X81000Y249812D01*
D02*
G37*
G36*
X692500Y209805D02*
X672500D01*
X669315Y209386D01*
X666347Y208157D01*
X663799Y206201D01*
X661843Y203653D01*
X660614Y200685D01*
X660195Y197500D01*
X660614Y194315D01*
X661843Y191347D01*
X663799Y188799D01*
X666347Y186843D01*
X669315Y185614D01*
X672500Y185195D01*
X692500D01*
X695685Y185614D01*
X698653Y186843D01*
X701201Y188799D01*
X703157Y191347D01*
X704386Y194315D01*
X704805Y197500D01*
X704386Y200685D01*
X703157Y203653D01*
X701201Y206201D01*
X698653Y208157D01*
X695685Y209386D01*
X692500Y209805D01*
D02*
G37*
G36*
X429041Y172504D02*
X429175Y171828D01*
X430068Y170491D01*
X431405Y169598D01*
X432081Y169464D01*
Y172504D01*
X429041D01*
D02*
G37*
G36*
X355392Y162495D02*
Y159455D01*
X358432D01*
X358298Y160131D01*
X357405Y161467D01*
X356068Y162360D01*
X355392Y162495D01*
D02*
G37*
G36*
X245000Y180812D02*
X242776Y180369D01*
X240891Y179109D01*
X239631Y177224D01*
X239188Y175000D01*
X239631Y172776D01*
X240891Y170891D01*
X242776Y169631D01*
X245000Y169188D01*
X247224Y169631D01*
X249109Y170891D01*
X249505Y171482D01*
X253543D01*
X259327Y165698D01*
X259188Y165000D01*
X259631Y162776D01*
X260891Y160891D01*
X262776Y159631D01*
X265000Y159188D01*
X267224Y159631D01*
X269109Y160891D01*
X270369Y162776D01*
X270812Y165000D01*
X270369Y167224D01*
X269109Y169109D01*
X267224Y170369D01*
X265000Y170812D01*
X264302Y170673D01*
X257487Y177487D01*
X256346Y178250D01*
X255000Y178518D01*
X249505D01*
X249109Y179109D01*
X247224Y180369D01*
X245000Y180812D01*
D02*
G37*
G36*
X300000Y163977D02*
X295490Y159467D01*
X296229Y158973D01*
X298000Y158621D01*
X302000D01*
X303771Y158973D01*
X304510Y159467D01*
X300000Y163977D01*
D02*
G37*
G36*
X365999Y151888D02*
Y148848D01*
X369039D01*
X368904Y149524D01*
X368011Y150861D01*
X366675Y151754D01*
X365999Y151888D01*
D02*
G37*
G36*
X234000Y177032D02*
X230000D01*
X228361Y176706D01*
X226972Y175778D01*
X226044Y174389D01*
X225718Y172750D01*
Y167250D01*
X226044Y165611D01*
X226972Y164222D01*
X228361Y163294D01*
X230000Y162968D01*
X230427D01*
Y148423D01*
X229158Y148038D01*
X229109Y148110D01*
X227224Y149369D01*
X225000Y149812D01*
X222776Y149369D01*
X220891Y148110D01*
X220847Y148044D01*
X220774Y148018D01*
X219411Y148081D01*
X218778Y149028D01*
X217389Y149956D01*
X215750Y150282D01*
X210250D01*
X208611Y149956D01*
X207222Y149028D01*
X206294Y147639D01*
X206270Y147518D01*
X199832D01*
X198910Y149744D01*
X197275Y151875D01*
X195144Y153510D01*
X192663Y154537D01*
X190000Y154888D01*
X187337Y154537D01*
X184856Y153510D01*
X182725Y151875D01*
X181090Y149744D01*
X180063Y147263D01*
X179712Y144600D01*
X180063Y141937D01*
X181090Y139456D01*
X182725Y137325D01*
X184856Y135690D01*
X187337Y134663D01*
X190000Y134312D01*
X192663Y134663D01*
X195144Y135690D01*
X197275Y137325D01*
X198910Y139456D01*
X199335Y140482D01*
X206270D01*
X206294Y140361D01*
X207222Y138972D01*
X208611Y138044D01*
X210250Y137718D01*
X215750D01*
X217389Y138044D01*
X218778Y138972D01*
X219411Y139919D01*
X220774Y139982D01*
X220847Y139956D01*
X220891Y139890D01*
X222776Y138631D01*
X225000Y138188D01*
X227224Y138631D01*
X229109Y139890D01*
X229158Y139962D01*
X230427Y139577D01*
Y119682D01*
X229251Y119528D01*
X227621Y118852D01*
X226222Y117779D01*
X225450Y116772D01*
X222734D01*
X222692Y116986D01*
X221708Y118458D01*
X220236Y119442D01*
X218500Y119787D01*
X217773D01*
Y122300D01*
X218778Y122972D01*
X219706Y124361D01*
X220032Y126000D01*
Y130000D01*
X219706Y131639D01*
X218778Y133028D01*
X217389Y133956D01*
X215750Y134282D01*
X210250D01*
X208611Y133956D01*
X207222Y133028D01*
X206294Y131639D01*
X205968Y130000D01*
Y126000D01*
X206294Y124361D01*
X207222Y122972D01*
X208611Y122044D01*
X210228Y121722D01*
Y119787D01*
X209500D01*
X207764Y119442D01*
X206292Y118458D01*
X205308Y116986D01*
X205266Y116772D01*
X203563D01*
X200160Y120176D01*
X199937Y121863D01*
X198910Y124344D01*
X197275Y126475D01*
X195144Y128110D01*
X192663Y129137D01*
X190000Y129488D01*
X187337Y129137D01*
X184856Y128110D01*
X182725Y126475D01*
X181090Y124344D01*
X180063Y121863D01*
X179712Y119200D01*
X180063Y116537D01*
X181090Y114056D01*
X182725Y111925D01*
X184856Y110290D01*
X187337Y109263D01*
X190000Y108912D01*
X192663Y109263D01*
X195144Y110290D01*
X197275Y111925D01*
X197711Y111954D01*
X199332Y110332D01*
X200556Y109515D01*
X202000Y109228D01*
X202000Y109228D01*
X205266D01*
X205308Y109014D01*
X206292Y107542D01*
X207764Y106558D01*
X209500Y106213D01*
X218500D01*
X220236Y106558D01*
X221708Y107542D01*
X222692Y109014D01*
X222734Y109228D01*
X225450D01*
X226222Y108222D01*
X227621Y107148D01*
X229251Y106473D01*
X231000Y106242D01*
X234000D01*
X235749Y106473D01*
X237379Y107148D01*
X238778Y108222D01*
X239852Y109621D01*
X240527Y111251D01*
X240758Y113000D01*
X240527Y114749D01*
X239852Y116379D01*
X238778Y117779D01*
X237973Y118397D01*
Y165693D01*
X238282Y167250D01*
Y172750D01*
X237956Y174389D01*
X237028Y175778D01*
X235639Y176706D01*
X234000Y177032D01*
D02*
G37*
G36*
X339945Y147048D02*
X340080Y146372D01*
X340973Y145035D01*
X342309Y144142D01*
X342985Y144008D01*
X342985Y147048D01*
X339945D01*
D02*
G37*
G36*
X722500Y167305D02*
X702500D01*
X699315Y166886D01*
X696347Y165657D01*
X693799Y163701D01*
X691843Y161153D01*
X690614Y158185D01*
X690195Y155000D01*
X690614Y151815D01*
X691843Y148847D01*
X693799Y146299D01*
X696347Y144343D01*
X699315Y143114D01*
X702500Y142695D01*
X722500D01*
X725685Y143114D01*
X728653Y144343D01*
X731201Y146299D01*
X733157Y148847D01*
X734386Y151815D01*
X734805Y155000D01*
X734386Y158185D01*
X733157Y161153D01*
X731201Y163701D01*
X728653Y165657D01*
X725685Y166886D01*
X722500Y167305D01*
D02*
G37*
G36*
X92000Y146032D02*
X88000D01*
X86361Y145706D01*
X84972Y144778D01*
X84044Y143389D01*
X83870Y142518D01*
X80505D01*
X80110Y143110D01*
X78224Y144369D01*
X76000Y144812D01*
X73776Y144369D01*
X71891Y143110D01*
X70631Y141224D01*
X70188Y139000D01*
X70631Y136776D01*
X71891Y134890D01*
X73776Y133631D01*
X76000Y133188D01*
X78224Y133631D01*
X80110Y134890D01*
X80505Y135482D01*
X83870D01*
X84044Y134611D01*
X84933Y133280D01*
X85102Y132937D01*
Y132063D01*
X84933Y131720D01*
X84044Y130389D01*
X83870Y129518D01*
X80505D01*
X80110Y130110D01*
X78224Y131369D01*
X76000Y131812D01*
X73776Y131369D01*
X71891Y130110D01*
X70631Y128224D01*
X70188Y126000D01*
X70631Y123776D01*
X71891Y121890D01*
X72482Y121495D01*
Y102130D01*
X71611Y101956D01*
X70222Y101028D01*
X69294Y99639D01*
X68968Y98000D01*
Y94000D01*
X69294Y92361D01*
X70222Y90972D01*
X71611Y90044D01*
X73250Y89718D01*
X78750D01*
X80389Y90044D01*
X81778Y90972D01*
X82706Y92361D01*
X83032Y94000D01*
Y98000D01*
X82706Y99639D01*
X81778Y101028D01*
X80389Y101956D01*
X79518Y102130D01*
Y121495D01*
X80110Y121890D01*
X80505Y122482D01*
X83870D01*
X84044Y121611D01*
X84972Y120222D01*
X86361Y119294D01*
X88000Y118968D01*
X92000D01*
X93639Y119294D01*
X95028Y120222D01*
X95956Y121611D01*
X96282Y123250D01*
Y128750D01*
X95956Y130389D01*
X95067Y131720D01*
X94898Y132063D01*
Y132937D01*
X95067Y133280D01*
X95956Y134611D01*
X96282Y136250D01*
Y141750D01*
X95956Y143389D01*
X95028Y144778D01*
X93639Y145706D01*
X92000Y146032D01*
D02*
G37*
G36*
X147511Y142336D02*
X146639Y142162D01*
X145138Y141159D01*
X142309Y138330D01*
X141306Y136829D01*
X141132Y135957D01*
X147511D01*
X147511Y142336D01*
D02*
G37*
G36*
X400261Y130675D02*
X399585Y130540D01*
X398248Y129647D01*
X397356Y128311D01*
X397221Y127635D01*
X400261D01*
Y130675D01*
D02*
G37*
G36*
X149311Y142336D02*
X149311Y135057D01*
X148411D01*
Y134157D01*
X141132D01*
X141306Y133286D01*
X142309Y131784D01*
X146198Y127895D01*
X147700Y126892D01*
X148571Y126718D01*
X148572Y133997D01*
X149472D01*
Y134897D01*
X156750D01*
X156576Y135768D01*
X155573Y137270D01*
X151684Y141159D01*
X150182Y142162D01*
X149311Y142336D01*
D02*
G37*
G36*
X156750Y133097D02*
X150372D01*
X150371Y126718D01*
X151243Y126892D01*
X152745Y127895D01*
X155573Y130723D01*
X156576Y132225D01*
X156750Y133097D01*
D02*
G37*
G36*
X156350Y123794D02*
X155673Y123660D01*
X154337Y122767D01*
X152216Y120646D01*
X151323Y119309D01*
X151188Y118633D01*
X156350D01*
X156350Y123794D01*
D02*
G37*
G36*
X158150Y123794D02*
X158150Y118279D01*
X163665D01*
X163530Y118956D01*
X162637Y120292D01*
X160162Y122767D01*
X158826Y123660D01*
X158150Y123794D01*
D02*
G37*
G36*
X157603Y117733D02*
X157250D01*
Y117380D01*
X157603D01*
Y117733D01*
D02*
G37*
G36*
X163665Y116480D02*
X158503D01*
Y111318D01*
X159179Y111453D01*
X160516Y112346D01*
X162637Y114467D01*
X163530Y115803D01*
X163665Y116480D01*
D02*
G37*
G36*
X272750Y110282D02*
X267250D01*
X265611Y109956D01*
X264222Y109028D01*
X263294Y107639D01*
X263221Y107273D01*
X260550D01*
X259778Y108279D01*
X258379Y109352D01*
X256749Y110028D01*
X255000Y110258D01*
X252000D01*
X250251Y110028D01*
X248621Y109352D01*
X247222Y108279D01*
X246148Y106879D01*
X245473Y105249D01*
X245242Y103500D01*
X245473Y101751D01*
X246148Y100121D01*
X247222Y98722D01*
X247996Y98127D01*
X248208Y96543D01*
X242437Y90772D01*
X234335D01*
X234109Y91110D01*
X232224Y92369D01*
X230000Y92812D01*
X227776Y92369D01*
X225891Y91110D01*
X224631Y89224D01*
X224188Y87000D01*
X224631Y84776D01*
X225891Y82891D01*
X227776Y81631D01*
X230000Y81188D01*
X232224Y81631D01*
X234109Y82891D01*
X234335Y83228D01*
X244000D01*
X244000Y83228D01*
X245444Y83515D01*
X246668Y84332D01*
X256168Y93832D01*
X256985Y95056D01*
X257272Y96500D01*
Y97189D01*
X258379Y97648D01*
X259778Y98722D01*
X260550Y99727D01*
X263717D01*
X264222Y98972D01*
X265611Y98044D01*
X267250Y97718D01*
X272750D01*
X274389Y98044D01*
X275778Y98972D01*
X276706Y100361D01*
X277032Y102000D01*
Y106000D01*
X276706Y107639D01*
X275778Y109028D01*
X274389Y109956D01*
X272750Y110282D01*
D02*
G37*
G36*
X255000Y129258D02*
X252000D01*
X250251Y129028D01*
X248621Y128352D01*
X247222Y127278D01*
X246148Y125879D01*
X245473Y124249D01*
X245242Y122500D01*
X245473Y120751D01*
X246148Y119121D01*
X247222Y117722D01*
X248621Y116648D01*
X250251Y115972D01*
X252000Y115742D01*
X255000D01*
X256749Y115972D01*
X258379Y116648D01*
X259778Y117722D01*
X260746Y118982D01*
X262968D01*
Y118000D01*
X263294Y116361D01*
X264222Y114972D01*
X265611Y114044D01*
X267250Y113718D01*
X272750D01*
X274389Y114044D01*
X275778Y114972D01*
X276706Y116361D01*
X276730Y116482D01*
X278543D01*
X279488Y115537D01*
X279410Y115419D01*
X278929Y113000D01*
X279410Y110581D01*
X280780Y108530D01*
X282831Y107160D01*
X285250Y106679D01*
X288750D01*
X291169Y107160D01*
X293220Y108530D01*
X294590Y110581D01*
X295071Y113000D01*
X294590Y115419D01*
X293220Y117470D01*
X291169Y118840D01*
X288750Y119321D01*
X285653D01*
X282487Y122487D01*
X281346Y123250D01*
X280000Y123518D01*
X276730D01*
X276706Y123639D01*
X275778Y125028D01*
X274389Y125956D01*
X272750Y126282D01*
X267250D01*
X265919Y126018D01*
X260746D01*
X259778Y127278D01*
X258379Y128352D01*
X256749Y129028D01*
X255000Y129258D01*
D02*
G37*
G36*
X311967Y110444D02*
X308023Y106500D01*
X311967Y102556D01*
X312463Y103202D01*
X313122Y104793D01*
X313347Y106500D01*
X313122Y108207D01*
X312463Y109798D01*
X311967Y110444D01*
D02*
G37*
G36*
X298033Y110444D02*
X297537Y109798D01*
X296878Y108207D01*
X296654Y106500D01*
X296878Y104793D01*
X297537Y103202D01*
X298033Y102556D01*
X301977Y106500D01*
X298033Y110444D01*
D02*
G37*
G36*
X118327Y106152D02*
X117456Y105978D01*
X115954Y104975D01*
X113125Y102147D01*
X112122Y100645D01*
X111949Y99774D01*
X118327D01*
Y106152D01*
D02*
G37*
G36*
X508533Y108510D02*
X504023Y104000D01*
X508533Y99490D01*
X509027Y100229D01*
X509379Y102000D01*
Y106000D01*
X509027Y107771D01*
X508533Y108510D01*
D02*
G37*
G36*
X495467Y108510D02*
X494973Y107771D01*
X494621Y106000D01*
Y102000D01*
X494973Y100229D01*
X495467Y99490D01*
X499977Y104000D01*
X495467Y108510D01*
D02*
G37*
G36*
X722500Y122305D02*
X702500D01*
X699315Y121886D01*
X696347Y120657D01*
X693799Y118701D01*
X691843Y116153D01*
X690614Y113185D01*
X690195Y110000D01*
X690614Y106815D01*
X691843Y103847D01*
X693799Y101299D01*
X696347Y99343D01*
X699315Y98114D01*
X702500Y97695D01*
X722500D01*
X725685Y98114D01*
X728653Y99343D01*
X731201Y101299D01*
X733157Y103847D01*
X734386Y106815D01*
X734805Y110000D01*
X734386Y113185D01*
X733157Y116153D01*
X731201Y118701D01*
X728653Y120657D01*
X725685Y121886D01*
X722500Y122305D01*
D02*
G37*
G36*
X657500D02*
X637500D01*
X634315Y121886D01*
X631347Y120657D01*
X628799Y118701D01*
X626843Y116153D01*
X625614Y113185D01*
X625195Y110000D01*
X625614Y106815D01*
X626843Y103847D01*
X628799Y101299D01*
X631347Y99343D01*
X634315Y98114D01*
X637500Y97695D01*
X657500D01*
X660685Y98114D01*
X663653Y99343D01*
X666201Y101299D01*
X668157Y103847D01*
X669386Y106815D01*
X669805Y110000D01*
X669386Y113185D01*
X668157Y116153D01*
X666201Y118701D01*
X663653Y120657D01*
X660685Y121886D01*
X657500Y122305D01*
D02*
G37*
G36*
X504750Y110629D02*
X499250D01*
X497479Y110277D01*
X496740Y109783D01*
X501886Y104636D01*
X501250Y104000D01*
X501886Y103364D01*
X496740Y98217D01*
X497479Y97723D01*
X499250Y97371D01*
X504750D01*
X506521Y97723D01*
X507260Y98217D01*
X502114Y103364D01*
X502750Y104000D01*
X502114Y104636D01*
X507260Y109783D01*
X506521Y110277D01*
X504750Y110629D01*
D02*
G37*
G36*
X190000Y104431D02*
X187248Y104069D01*
X184685Y103007D01*
X183203Y101870D01*
X190000Y95073D01*
X196797Y101870D01*
X195315Y103007D01*
X192752Y104069D01*
X190000Y104431D01*
D02*
G37*
G36*
X617000Y97379D02*
X613000D01*
X611229Y97027D01*
X610490Y96533D01*
X615000Y92023D01*
X619510Y96533D01*
X618771Y97027D01*
X617000Y97379D01*
D02*
G37*
G36*
X134944Y96803D02*
X134268Y96669D01*
X132931Y95776D01*
X130810Y93654D01*
X129917Y92318D01*
X129783Y91642D01*
X134944D01*
Y96803D01*
D02*
G37*
G36*
X120127Y106152D02*
X120127Y98874D01*
X119227D01*
Y97973D01*
X111949D01*
X112122Y97102D01*
X113125Y95600D01*
X117015Y91711D01*
X118516Y90708D01*
X119388Y90534D01*
Y97813D01*
X120288D01*
Y98713D01*
X127566D01*
X127393Y99584D01*
X126389Y101086D01*
X122500Y104975D01*
X120998Y105978D01*
X120127Y106152D01*
D02*
G37*
G36*
X127566Y96913D02*
X121188D01*
Y90534D01*
X122059Y90708D01*
X123561Y91711D01*
X126389Y94540D01*
X127393Y96041D01*
X127566Y96913D01*
D02*
G37*
G36*
X135844Y90742D02*
Y90388D01*
X136198D01*
Y90742D01*
X135844D01*
D02*
G37*
G36*
X222463Y97940D02*
X217523Y93000D01*
X222463Y88060D01*
X223012Y88881D01*
X223384Y90750D01*
Y95250D01*
X223012Y97119D01*
X222463Y97940D01*
D02*
G37*
G36*
X205537Y97940D02*
X204988Y97119D01*
X204616Y95250D01*
Y90750D01*
X204988Y88881D01*
X205537Y88060D01*
X210477Y93000D01*
X205537Y97940D01*
D02*
G37*
G36*
X198070Y100597D02*
X191273Y93800D01*
X198070Y87003D01*
X199207Y88484D01*
X200269Y91048D01*
X200631Y93800D01*
X200269Y96552D01*
X199207Y99115D01*
X198070Y100597D01*
D02*
G37*
G36*
X181930Y100597D02*
X180793Y99115D01*
X179731Y96552D01*
X179369Y93800D01*
X179731Y91048D01*
X180793Y88484D01*
X181930Y87003D01*
X188727Y93800D01*
X181930Y100597D01*
D02*
G37*
G36*
X218500Y100134D02*
X209500D01*
X207631Y99762D01*
X206810Y99213D01*
X212386Y93636D01*
X211750Y93000D01*
X212386Y92364D01*
X206810Y86787D01*
X207631Y86238D01*
X209500Y85866D01*
X218500D01*
X220369Y86238D01*
X221190Y86787D01*
X215614Y92364D01*
X216250Y93000D01*
X215614Y93636D01*
X221190Y99213D01*
X220369Y99762D01*
X218500Y100134D01*
D02*
G37*
G36*
X609217Y95260D02*
X608723Y94521D01*
X608371Y92750D01*
Y87250D01*
X608723Y85479D01*
X609217Y84740D01*
X614364Y89886D01*
X615000Y89250D01*
X615636Y89886D01*
X620783Y84740D01*
X621277Y85479D01*
X621629Y87250D01*
Y92750D01*
X621277Y94521D01*
X620783Y95260D01*
X615636Y90114D01*
X615000Y90750D01*
X614364Y90114D01*
X609217Y95260D01*
D02*
G37*
G36*
X137098Y89488D02*
X137098Y84327D01*
X137774Y84461D01*
X139110Y85354D01*
X141232Y87476D01*
X142125Y88812D01*
X142259Y89488D01*
X137098D01*
D02*
G37*
G36*
X129783Y89842D02*
X129917Y89165D01*
X130810Y87829D01*
X133285Y85354D01*
X134621Y84461D01*
X135298Y84327D01*
X135298Y89842D01*
X129783D01*
D02*
G37*
G36*
X190000Y92527D02*
X183203Y85730D01*
X184685Y84593D01*
X187248Y83531D01*
X190000Y83169D01*
X192752Y83531D01*
X195315Y84593D01*
X196797Y85730D01*
X190000Y92527D01*
D02*
G37*
G36*
X615000Y87977D02*
X610490Y83467D01*
X611229Y82973D01*
X613000Y82621D01*
X617000D01*
X618771Y82973D01*
X619510Y83467D01*
X615000Y87977D01*
D02*
G37*
G36*
X528200Y93200D02*
X501800D01*
Y83013D01*
X501013Y82487D01*
X493250Y74725D01*
X493000Y74758D01*
X490000D01*
X488251Y74528D01*
X486621Y73852D01*
X485221Y72779D01*
X484148Y71379D01*
X483473Y69749D01*
X483242Y68000D01*
X483473Y66251D01*
X484148Y64621D01*
X485221Y63222D01*
X486621Y62148D01*
X488251Y61473D01*
X488482Y61442D01*
Y51442D01*
X487750Y50346D01*
X487482Y49000D01*
Y46634D01*
X487263Y46487D01*
X486500Y45346D01*
X486232Y44000D01*
Y36000D01*
X486500Y34654D01*
X487263Y33513D01*
X488404Y32750D01*
X489750Y32482D01*
X492250D01*
X493596Y32750D01*
X494737Y33513D01*
X495500Y34654D01*
X495768Y36000D01*
Y44000D01*
X495500Y45346D01*
X494737Y46487D01*
X494678Y47799D01*
X495250Y48654D01*
X495518Y50000D01*
Y61791D01*
X496379Y62148D01*
X497779Y63222D01*
X498852Y64621D01*
X499528Y66251D01*
X499758Y68000D01*
X499528Y69749D01*
X499146Y70671D01*
X500627Y72152D01*
X501800Y71666D01*
Y66800D01*
X528200D01*
Y93200D01*
D02*
G37*
G36*
X477574Y81801D02*
X473273Y77500D01*
X477574Y73199D01*
X478149Y73950D01*
X478859Y75662D01*
X479101Y77500D01*
X478859Y79338D01*
X478149Y81050D01*
X477574Y81801D01*
D02*
G37*
G36*
X400533Y76510D02*
X396023Y72000D01*
X400533Y67490D01*
X401027Y68229D01*
X401379Y70000D01*
Y74000D01*
X401027Y75771D01*
X400533Y76510D01*
D02*
G37*
G36*
X387467Y76510D02*
X386973Y75771D01*
X386621Y74000D01*
Y70000D01*
X386973Y68229D01*
X387467Y67490D01*
X391977Y72000D01*
X387467Y76510D01*
D02*
G37*
G36*
X108000Y146032D02*
X104000D01*
X102361Y145706D01*
X100972Y144778D01*
X100044Y143389D01*
X99718Y141750D01*
Y136250D01*
X100044Y134611D01*
X100934Y133280D01*
X101102Y132937D01*
Y132063D01*
X100934Y131720D01*
X100044Y130389D01*
X99718Y128750D01*
Y123250D01*
X100044Y121611D01*
X100972Y120222D01*
X102361Y119294D01*
X104000Y118968D01*
X108000D01*
X109639Y119294D01*
X111028Y120222D01*
X111956Y121611D01*
X112088Y122273D01*
X113340Y122414D01*
X123825Y111929D01*
X123756Y111826D01*
X123430Y110187D01*
X123756Y108548D01*
X124684Y107159D01*
X128573Y103270D01*
X129963Y102342D01*
X131601Y102016D01*
X133240Y102342D01*
X133343Y102410D01*
X137174Y98580D01*
X137021Y97813D01*
X136744Y97536D01*
X136744Y91288D01*
X142992D01*
X143269Y91565D01*
X144035Y91718D01*
X148999Y86755D01*
X148630Y85539D01*
X147776Y85369D01*
X145891Y84109D01*
X144631Y82224D01*
X144188Y80000D01*
X144267Y79602D01*
X142437Y77772D01*
X135335D01*
X135110Y78109D01*
X133224Y79369D01*
X131000Y79812D01*
X128776Y79369D01*
X126890Y78109D01*
X125631Y76224D01*
X125188Y74000D01*
X125631Y71776D01*
X126890Y69890D01*
X128776Y68631D01*
X131000Y68188D01*
X133224Y68631D01*
X135110Y69890D01*
X135335Y70227D01*
X144000D01*
X144000Y70227D01*
X145444Y70515D01*
X146668Y71332D01*
X149602Y74267D01*
X150000Y74188D01*
X152224Y74631D01*
X154109Y75890D01*
X155369Y77776D01*
X155539Y78630D01*
X156755Y78999D01*
X181241Y54513D01*
X182382Y53750D01*
X183728Y53482D01*
X285495D01*
X285891Y52891D01*
X287776Y51631D01*
X290000Y51188D01*
X292224Y51631D01*
X294109Y52891D01*
X295369Y54776D01*
X295812Y57000D01*
X295369Y59224D01*
X294109Y61109D01*
X292224Y62369D01*
X290000Y62812D01*
X287776Y62369D01*
X285891Y61109D01*
X285495Y60518D01*
X185185D01*
X149010Y96692D01*
X149163Y97459D01*
X148875Y98903D01*
X148058Y100127D01*
X145583Y102602D01*
X144359Y103419D01*
X142915Y103707D01*
X142149Y103554D01*
X138317Y107385D01*
X138386Y107488D01*
X138712Y109127D01*
X138386Y110765D01*
X137458Y112155D01*
X133569Y116044D01*
X132179Y116972D01*
X130541Y117298D01*
X128902Y116972D01*
X128799Y116903D01*
X117215Y128487D01*
X116074Y129250D01*
X114728Y129518D01*
X112130D01*
X111956Y130389D01*
X111067Y131720D01*
X110898Y132063D01*
Y132937D01*
X111067Y133280D01*
X111956Y134611D01*
X112130Y135482D01*
X120384D01*
X130381Y125485D01*
X130312Y125382D01*
X129986Y123743D01*
X130312Y122105D01*
X131241Y120716D01*
X135130Y116826D01*
X136519Y115898D01*
X138158Y115572D01*
X139796Y115898D01*
X139899Y115967D01*
X144437Y111429D01*
X144285Y110662D01*
X144572Y109218D01*
X145390Y107994D01*
X147865Y105520D01*
X149088Y104702D01*
X150532Y104415D01*
X151299Y104567D01*
X185353Y70513D01*
X186495Y69750D01*
X187841Y69482D01*
X285495D01*
X285891Y68891D01*
X287776Y67631D01*
X290000Y67188D01*
X292224Y67631D01*
X294109Y68891D01*
X295369Y70776D01*
X295812Y73000D01*
X295369Y75224D01*
X294109Y77109D01*
X292224Y78369D01*
X290000Y78812D01*
X287776Y78369D01*
X285891Y77109D01*
X285495Y76518D01*
X189298D01*
X156273Y109542D01*
X156426Y110309D01*
X156703Y110586D01*
X156703Y116833D01*
X150456D01*
X150178Y116556D01*
X149412Y116403D01*
X144874Y120941D01*
X144943Y121044D01*
X145268Y122683D01*
X144943Y124322D01*
X144014Y125711D01*
X140125Y129600D01*
X138736Y130528D01*
X137097Y130854D01*
X135458Y130528D01*
X135356Y130460D01*
X124328Y141487D01*
X123187Y142250D01*
X121841Y142518D01*
X112130D01*
X111956Y143389D01*
X111028Y144778D01*
X109639Y145706D01*
X108000Y146032D01*
D02*
G37*
G36*
X396750Y78629D02*
X391250D01*
X389479Y78277D01*
X388740Y77783D01*
X393886Y72636D01*
X393250Y72000D01*
X393886Y71364D01*
X388740Y66217D01*
X389479Y65723D01*
X391250Y65371D01*
X396750D01*
X398521Y65723D01*
X399260Y66217D01*
X394114Y71364D01*
X394750Y72000D01*
X394114Y72636D01*
X399260Y77783D01*
X398521Y78277D01*
X396750Y78629D01*
D02*
G37*
G36*
X627500Y79805D02*
X607500D01*
X604315Y79386D01*
X601347Y78157D01*
X598799Y76201D01*
X596843Y73653D01*
X595614Y70685D01*
X595195Y67500D01*
X595614Y64315D01*
X596843Y61347D01*
X598799Y58799D01*
X601347Y56843D01*
X604315Y55614D01*
X607500Y55195D01*
X627500D01*
X630685Y55614D01*
X633653Y56843D01*
X636201Y58799D01*
X638157Y61347D01*
X639386Y64315D01*
X639805Y67500D01*
X639386Y70685D01*
X638157Y73653D01*
X636201Y76201D01*
X633653Y78157D01*
X630685Y79386D01*
X627500Y79805D01*
D02*
G37*
G36*
X721533Y58510D02*
X717023Y54000D01*
X721533Y49490D01*
X722027Y50229D01*
X722379Y52000D01*
Y56000D01*
X722027Y57771D01*
X721533Y58510D01*
D02*
G37*
G36*
X708467Y58510D02*
X707973Y57771D01*
X707621Y56000D01*
Y52000D01*
X707973Y50229D01*
X708467Y49490D01*
X712977Y54000D01*
X708467Y58510D01*
D02*
G37*
G36*
X717750Y60629D02*
X712250D01*
X710479Y60277D01*
X709740Y59783D01*
X714886Y54636D01*
X714250Y54000D01*
X714886Y53364D01*
X709740Y48217D01*
X710479Y47723D01*
X712250Y47371D01*
X717750D01*
X719521Y47723D01*
X720260Y48217D01*
X715114Y53364D01*
X715750Y54000D01*
X715114Y54636D01*
X720260Y59783D01*
X719521Y60277D01*
X717750Y60629D01*
D02*
G37*
G36*
X78750Y86282D02*
X73250D01*
X71611Y85956D01*
X70222Y85028D01*
X69294Y83639D01*
X68968Y82000D01*
Y78000D01*
X69294Y76361D01*
X70222Y74972D01*
X71611Y74044D01*
X72482Y73870D01*
Y64000D01*
X72750Y62654D01*
X73513Y61513D01*
X86513Y48513D01*
X87654Y47750D01*
X88134Y47655D01*
X88148Y47621D01*
X89221Y46221D01*
X90621Y45148D01*
X92251Y44472D01*
X94000Y44242D01*
X97000D01*
X98749Y44472D01*
X100379Y45148D01*
X101778Y46221D01*
X102852Y47621D01*
X103527Y49251D01*
X103758Y51000D01*
X103527Y52749D01*
X102852Y54379D01*
X101778Y55778D01*
X100379Y56852D01*
X98749Y57527D01*
X97000Y57758D01*
X94000D01*
X92251Y57527D01*
X90621Y56852D01*
X89221Y55778D01*
X89198Y55777D01*
X79518Y65457D01*
Y73870D01*
X80389Y74044D01*
X81778Y74972D01*
X82706Y76361D01*
X83032Y78000D01*
Y82000D01*
X82706Y83639D01*
X81778Y85028D01*
X80389Y85956D01*
X78750Y86282D01*
D02*
G37*
G36*
X717750Y44282D02*
X712250D01*
X710611Y43956D01*
X709222Y43028D01*
X708294Y41639D01*
X707968Y40000D01*
Y36000D01*
X707977Y35952D01*
X702762Y30736D01*
X701494Y30819D01*
X701201Y31201D01*
X698653Y33157D01*
X695685Y34386D01*
X692500Y34805D01*
X672500D01*
X669315Y34386D01*
X666347Y33157D01*
X663799Y31201D01*
X661843Y28653D01*
X660614Y25685D01*
X660195Y22500D01*
X660614Y19315D01*
X661843Y16347D01*
X663799Y13799D01*
X666347Y11843D01*
X669315Y10614D01*
X672500Y10195D01*
X692500D01*
X695685Y10614D01*
X698653Y11843D01*
X701201Y13799D01*
X703157Y16347D01*
X704386Y19315D01*
X704805Y22500D01*
X704767Y22792D01*
X713692Y31718D01*
X717750D01*
X719389Y32044D01*
X720778Y32972D01*
X721706Y34361D01*
X722032Y36000D01*
Y40000D01*
X721706Y41639D01*
X720778Y43028D01*
X719389Y43956D01*
X717750Y44282D01*
D02*
G37*
G36*
X118000Y67258D02*
X115000D01*
X113251Y67028D01*
X111621Y66352D01*
X110222Y65279D01*
X109148Y63879D01*
X108472Y62249D01*
X108242Y60500D01*
X108472Y58751D01*
X109148Y57121D01*
X110222Y55722D01*
X111621Y54648D01*
X113251Y53973D01*
X115000Y53742D01*
X118000D01*
X119749Y53973D01*
X121379Y54648D01*
X122779Y55722D01*
X123746Y56982D01*
X139043D01*
X167513Y28513D01*
X168654Y27750D01*
X170000Y27482D01*
X173870D01*
X174044Y26611D01*
X174972Y25222D01*
X176361Y24294D01*
X178000Y23968D01*
X182000D01*
X183639Y24294D01*
X185028Y25222D01*
X185956Y26611D01*
X186282Y28250D01*
Y33750D01*
X185956Y35389D01*
X185028Y36778D01*
X183639Y37706D01*
X182000Y38032D01*
X178000D01*
X176361Y37706D01*
X174972Y36778D01*
X174044Y35389D01*
X173870Y34518D01*
X171457D01*
X142987Y62987D01*
X141846Y63750D01*
X140500Y64018D01*
X123746D01*
X122779Y65279D01*
X121379Y66352D01*
X119749Y67028D01*
X118000Y67258D01*
D02*
G37*
G36*
X265000Y30631D02*
X262248Y30269D01*
X259685Y29207D01*
X258203Y28070D01*
X265000Y21273D01*
X271797Y28070D01*
X270315Y29207D01*
X267752Y30269D01*
X265000Y30631D01*
D02*
G37*
G36*
X273070Y26797D02*
X266273Y20000D01*
X273070Y13203D01*
X274207Y14685D01*
X275269Y17249D01*
X275631Y20000D01*
X275269Y22752D01*
X274207Y25315D01*
X273070Y26797D01*
D02*
G37*
G36*
X256930Y26797D02*
X255793Y25315D01*
X254731Y22752D01*
X254369Y20000D01*
X254731Y17249D01*
X255793Y14685D01*
X256930Y13203D01*
X263727Y20000D01*
X256930Y26797D01*
D02*
G37*
G36*
X627500Y34805D02*
X607500D01*
X604315Y34386D01*
X601347Y33157D01*
X598799Y31201D01*
X596843Y28653D01*
X595614Y25685D01*
X595195Y22500D01*
X595614Y19315D01*
X596843Y16347D01*
X598799Y13799D01*
X601347Y11843D01*
X604315Y10614D01*
X607500Y10195D01*
X627500D01*
X630685Y10614D01*
X633653Y11843D01*
X636201Y13799D01*
X638157Y16347D01*
X639386Y19315D01*
X639805Y22500D01*
X639386Y25685D01*
X638157Y28653D01*
X636201Y31201D01*
X633653Y33157D01*
X630685Y34386D01*
X627500Y34805D01*
D02*
G37*
G36*
X477533Y18510D02*
X473023Y14000D01*
X477533Y9490D01*
X478027Y10229D01*
X478379Y12000D01*
Y16000D01*
X478027Y17771D01*
X477533Y18510D01*
D02*
G37*
G36*
X464467Y18510D02*
X463973Y17771D01*
X463621Y16000D01*
Y12000D01*
X463973Y10229D01*
X464467Y9490D01*
X468977Y14000D01*
X464467Y18510D01*
D02*
G37*
G36*
X473750Y20629D02*
X468250D01*
X466479Y20277D01*
X465740Y19783D01*
X470886Y14636D01*
X470250Y14000D01*
X470886Y13364D01*
X465740Y8217D01*
X466479Y7723D01*
X468250Y7371D01*
X473750D01*
X475521Y7723D01*
X476260Y8217D01*
X471114Y13364D01*
X471750Y14000D01*
X471114Y14636D01*
X476260Y19783D01*
X475521Y20277D01*
X473750Y20629D01*
D02*
G37*
G36*
X87740Y25737D02*
X34941D01*
Y6260D01*
X87740D01*
Y25737D01*
D02*
G37*
G36*
X383070Y26797D02*
X376273Y20000D01*
X383070Y13203D01*
X384207Y14685D01*
X385269Y17249D01*
X385631Y20000D01*
X385269Y22752D01*
X384207Y25315D01*
X383070Y26797D01*
D02*
G37*
G36*
X366930Y26797D02*
X365793Y25315D01*
X364731Y22752D01*
X364369Y20000D01*
X364731Y17249D01*
X365793Y14685D01*
X366930Y13203D01*
X373727Y20000D01*
X366930Y26797D01*
D02*
G37*
%LPD*%
D10*
X106000Y139000D02*
D03*
X90000D02*
D03*
X106000Y126000D02*
D03*
X90000D02*
D03*
X263000Y244000D02*
D03*
X279000D02*
D03*
X300000Y166000D02*
D03*
X316000D02*
D03*
X615000Y90000D02*
D03*
X599000D02*
D03*
X488000Y166000D02*
D03*
X472000D02*
D03*
X232000Y170000D02*
D03*
X216000D02*
D03*
X196000Y31000D02*
D03*
X180000D02*
D03*
D14*
X51000Y201000D02*
D03*
X81000D02*
D03*
X149000Y228000D02*
D03*
X179000D02*
D03*
X51000Y226000D02*
D03*
X81000D02*
D03*
D21*
X227000Y244000D02*
D03*
Y228000D02*
D03*
X486000Y136000D02*
D03*
Y120000D02*
D03*
X270000Y104000D02*
D03*
Y120000D02*
D03*
X213000Y128000D02*
D03*
Y144000D02*
D03*
X195000Y244000D02*
D03*
Y228000D02*
D03*
X76000Y80000D02*
D03*
Y96000D02*
D03*
X471000Y14000D02*
D03*
Y30000D02*
D03*
X599000Y121000D02*
D03*
Y105000D02*
D03*
X581000Y214000D02*
D03*
Y198000D02*
D03*
X715000Y54000D02*
D03*
Y38000D02*
D03*
X502000Y104000D02*
D03*
Y120000D02*
D03*
X394000Y72000D02*
D03*
Y88000D02*
D03*
X212000Y244000D02*
D03*
Y228000D02*
D03*
D22*
X89000Y51000D02*
X95500D01*
X76000Y64000D02*
X89000Y51000D01*
X76000Y64000D02*
Y79000D01*
X116500Y60500D02*
X140500D01*
X75000Y80000D02*
X76000Y79000D01*
Y80000D01*
Y97000D02*
Y126000D01*
X75000Y96000D02*
X76000Y97000D01*
X298000Y44000D02*
X333000Y79000D01*
X264000Y44000D02*
X298000D01*
X251000Y31000D02*
X264000Y44000D01*
X187841Y73000D02*
X290000D01*
X150355Y110485D02*
X187841Y73000D01*
X143092Y97636D02*
Y97636D01*
X131071Y109657D02*
X143092Y97636D01*
X114728Y126000D02*
X131071Y109657D01*
X106000Y126000D02*
X114728D01*
X183728Y57000D02*
X290000D01*
X143092Y97636D02*
X183728Y57000D01*
X150355Y110485D02*
Y110485D01*
X137627Y123213D02*
X150355Y110485D01*
X121841Y139000D02*
X137627Y123213D01*
X106000Y139000D02*
X121841D01*
X76000Y126000D02*
X92000D01*
X76000Y139000D02*
X92000D01*
X196000Y31000D02*
X251000D01*
X170000D02*
X180000D01*
X140500Y60500D02*
X170000Y31000D01*
X359000Y225465D02*
Y251000D01*
Y225465D02*
X377473Y206991D01*
X255000Y175000D02*
X265000Y165000D01*
X245000Y175000D02*
X255000D01*
X350180Y206000D02*
X363331Y192849D01*
X347171Y206000D02*
X350180D01*
X323607Y229565D02*
X347171Y206000D01*
X302393Y208393D02*
X311787Y199000D01*
X350109D01*
X359795Y189314D01*
X323607Y229565D02*
Y229607D01*
X348000Y215000D02*
X348251D01*
X366866Y196385D01*
X460000Y105000D02*
X465000Y110000D01*
X460000Y68000D02*
Y105000D01*
X398829Y149000D02*
X414000Y164171D01*
X386000Y186000D02*
X402000Y170000D01*
X386000Y186000D02*
Y198465D01*
X414000Y164171D02*
Y182707D01*
X424142Y192849D01*
X377473Y206991D02*
X386000Y198465D01*
X439000Y93000D02*
Y110109D01*
X381000Y33000D02*
X418000Y70000D01*
X328800Y33000D02*
X381000D01*
X315800Y20000D02*
X328800Y33000D01*
X333000Y79000D02*
Y110000D01*
X418000Y70000D02*
Y116967D01*
X227000Y244000D02*
X248000D01*
X263000D01*
X227000Y244000D02*
X227000Y244000D01*
X380000Y169000D02*
X386000Y163000D01*
X358896Y169000D02*
X380000D01*
X349189Y178707D02*
X358896Y169000D01*
X395950Y242950D02*
X486000D01*
X374000Y221000D02*
X395950Y242950D01*
X374000Y217536D02*
Y221000D01*
Y217536D02*
X381009Y210527D01*
X243000Y196000D02*
X275000Y228000D01*
X198000Y196000D02*
X243000D01*
X402000Y183000D02*
X402399Y182601D01*
X406823D01*
X420607Y196385D01*
X442000Y203636D02*
Y208000D01*
X430938Y235000D02*
X461000D01*
X406465Y210527D02*
X430938Y235000D01*
X565000Y146000D02*
Y169000D01*
X518000Y216000D02*
X565000Y169000D01*
X581000Y134000D02*
Y164000D01*
X517350Y227650D02*
X581000Y164000D01*
X431083Y227650D02*
X517350D01*
X498879Y222950D02*
X557000Y164829D01*
Y146000D02*
Y164829D01*
X410424Y206991D02*
X431083Y227650D01*
X413535Y203456D02*
X433030Y222950D01*
X433151Y216000D02*
X496000D01*
X433030Y222950D02*
X498879D01*
X417071Y199920D02*
X433151Y216000D01*
X427678Y189314D02*
X442000Y203636D01*
X434749Y182243D02*
X442506Y190000D01*
X470000D01*
X431213Y185778D02*
X446435Y201000D01*
X470000D01*
X488000Y200000D02*
X533000Y155000D01*
X488000Y200000D02*
X489000D01*
X190000Y144600D02*
X190600Y144000D01*
X215000D01*
X270000Y120000D02*
X280000D01*
X287000Y113000D01*
X267500Y122500D02*
X270000Y120000D01*
X253500Y122500D02*
X267500D01*
X290400Y23752D02*
X384544Y117896D01*
X290400Y20000D02*
Y23752D01*
X400400Y20000D02*
X401000D01*
X410000Y124967D02*
X418000Y116967D01*
X424142Y139109D02*
X451700Y111551D01*
X425800Y20000D02*
X451700Y45900D01*
X420607Y135574D02*
X447000Y109180D01*
X401000Y20000D02*
X447000Y66000D01*
X451700Y45900D02*
Y111551D01*
X447000Y66000D02*
Y109180D01*
X417071Y132038D02*
X439000Y110109D01*
X430000Y71000D02*
Y112038D01*
X413535Y128503D02*
X430000Y112038D01*
X486000Y136000D02*
X510000D01*
X513000Y133000D01*
X522000D01*
X533000Y146000D02*
Y155000D01*
X568000Y133000D02*
X580000D01*
X581000Y134000D01*
X410000Y206991D02*
X410424D01*
X305000Y119500D02*
X343722D01*
X363331Y139109D01*
X190000Y170000D02*
X216000D01*
Y176000D01*
X226000Y186000D02*
X286000D01*
X216000Y176000D02*
X226000Y186000D01*
X215000Y144000D02*
X225000D01*
X350000Y118707D02*
X366866Y135574D01*
X350000Y110000D02*
Y118707D01*
X486000Y136000D02*
Y148000D01*
X460000Y68000D02*
X469500Y58500D01*
X470500D01*
X471000Y30000D02*
Y57000D01*
X491000Y40000D02*
Y49000D01*
X492000Y50000D01*
Y67500D01*
X491500Y68000D02*
X492000Y67500D01*
X491500Y68000D02*
X503500Y80000D01*
X515000D01*
X491000Y16000D02*
Y21000D01*
X550000Y80000D01*
X577000D01*
X581500Y197500D02*
X617500D01*
X581000Y198000D02*
X581500Y197500D01*
X682500Y22500D02*
X699500D01*
X715000Y38000D01*
X577000Y80000D02*
X587000Y90000D01*
X599000D01*
Y105000D01*
D23*
X116500Y41500D02*
X152000Y6000D01*
X253500Y96500D02*
Y103500D01*
X244000Y87000D02*
X253500Y96500D01*
X230000Y87000D02*
X244000D01*
X131000Y74000D02*
X144000D01*
X150000Y80000D01*
X348000Y229394D02*
X373938Y203456D01*
X376000Y88000D02*
X394000D01*
X355000Y67000D02*
X376000Y88000D01*
X355000Y46000D02*
Y67000D01*
X462828Y175172D02*
X472000Y166000D01*
X441820Y175172D02*
X462828D01*
X472000Y127000D02*
Y166000D01*
Y127000D02*
X479000Y120000D01*
X486000D01*
Y101000D02*
Y120000D01*
X316000Y143000D02*
Y166000D01*
X394000Y88000D02*
Y108967D01*
X336482Y165958D02*
Y166000D01*
Y165958D02*
X345653Y156787D01*
X336482Y166000D02*
X345653Y175172D01*
X227000Y228000D02*
X244000D01*
X248000Y224000D01*
X248000D01*
X266000Y206000D02*
X276182D01*
X316000Y166182D01*
Y166000D02*
Y166182D01*
X212000Y228000D02*
X227000D01*
X195000D02*
X212000D01*
X179000D02*
X195000D01*
X81000Y226000D02*
Y244000D01*
X179000Y217000D02*
Y228000D01*
X152500Y190500D02*
X179000Y217000D01*
X135950Y190500D02*
X152500D01*
X316000Y166000D02*
X336482D01*
X327200Y6000D02*
X341200Y20000D01*
X152000Y6000D02*
X327200D01*
X269500Y103500D02*
X270000Y104000D01*
X253500Y103500D02*
X269500D01*
X214000Y113000D02*
X232500D01*
X202000D02*
X214000D01*
X195800Y119200D02*
X202000Y113000D01*
X190000Y119200D02*
X195800D01*
X82000Y202000D02*
X93500Y190500D01*
X81000Y202000D02*
X82000D01*
X81000D02*
Y226000D01*
Y201000D02*
Y202000D01*
X92500Y209500D02*
X110050D01*
X85000Y202000D02*
X92500Y209500D01*
X82000Y202000D02*
X85000D01*
X93500Y190500D02*
X110050D01*
X502000Y120000D02*
X525000D01*
Y101000D02*
Y120000D01*
X565000Y101000D02*
Y120000D01*
X565000Y120000D01*
X486000D02*
X502000D01*
X502000Y120000D01*
X232500Y113000D02*
X234200Y114700D01*
Y167800D01*
X232000Y170000D02*
X234200Y167800D01*
X214000Y116500D02*
Y123500D01*
Y127000D02*
X215000Y128000D01*
X214000Y113000D02*
Y116500D01*
Y123500D02*
Y127000D01*
X394000Y108967D02*
X402929Y117896D01*
X341200Y16800D02*
Y20000D01*
Y16800D02*
X352000Y6000D01*
X437200D01*
X451200Y20000D01*
X682500Y242500D02*
X683500D01*
X571000Y101000D02*
X591000Y121000D01*
X599000D01*
X565000Y101000D02*
X571000D01*
X599000Y121000D02*
X613500D01*
X647500Y155000D01*
X617500Y242500D02*
X639500D01*
X647500Y234500D01*
Y155000D02*
Y234500D01*
X682500Y67500D02*
Y140500D01*
X668000Y155000D02*
X682500Y140500D01*
X647500Y155000D02*
X668000D01*
X532200Y119200D02*
X533000Y120000D01*
X541000Y101000D02*
Y120000D01*
X533000Y95000D02*
Y120000D01*
X557000Y101000D02*
Y120000D01*
D24*
X375000Y20000D02*
D03*
X400400D02*
D03*
X425800D02*
D03*
X451200D02*
D03*
X190000Y170000D02*
D03*
Y144600D02*
D03*
X190000Y119200D02*
D03*
X190000Y93800D02*
D03*
X265000Y20000D02*
D03*
X290400D02*
D03*
X315800D02*
D03*
X341200D02*
D03*
D26*
X296364Y235636D02*
D03*
X359000Y251000D02*
D03*
X348000Y230000D02*
D03*
Y215000D02*
D03*
X131000Y74000D02*
D03*
X150000Y80000D02*
D03*
X398829Y149000D02*
D03*
X402000Y170000D02*
D03*
X376000Y88000D02*
D03*
X486000Y101000D02*
D03*
X316000Y143000D02*
D03*
X439000Y93000D02*
D03*
X355000Y46000D02*
D03*
X248000Y224000D02*
D03*
X266000Y206000D02*
D03*
X248000Y244000D02*
D03*
X386000Y163000D02*
D03*
X333000Y110000D02*
D03*
X489000Y242000D02*
D03*
X275000Y228000D02*
D03*
X198000Y196000D02*
D03*
X245000Y175000D02*
D03*
X265000Y165000D02*
D03*
X81000Y244000D02*
D03*
X230000Y87000D02*
D03*
X402000Y183000D02*
D03*
X442000Y208000D02*
D03*
X518000Y216000D02*
D03*
X496000D02*
D03*
X470000Y190000D02*
D03*
Y201000D02*
D03*
X461000Y235000D02*
D03*
X489000Y200000D02*
D03*
X115000Y227000D02*
D03*
X76000Y126000D02*
D03*
Y139000D02*
D03*
X290000Y73000D02*
D03*
Y57000D02*
D03*
X430000Y71000D02*
D03*
X525000Y101000D02*
D03*
X565000D02*
D03*
X286000Y186000D02*
D03*
X225000Y144000D02*
D03*
X350000Y110000D02*
D03*
X465000D02*
D03*
X486000Y148000D02*
D03*
D27*
X157426Y117556D02*
D03*
X150355Y110485D02*
D03*
X136021Y90565D02*
D03*
X143092Y97636D02*
D03*
D28*
X95500Y51000D02*
D03*
X116500Y60500D02*
D03*
Y41500D02*
D03*
X470500Y77500D02*
D03*
Y58500D02*
D03*
X491500Y68000D02*
D03*
X253500Y103500D02*
D03*
Y122500D02*
D03*
X232500Y113000D02*
D03*
D29*
X110050Y200000D02*
D03*
X135950Y190500D02*
D03*
X110050D02*
D03*
X135950Y209500D02*
D03*
X110050D02*
D03*
D30*
X302393Y208393D02*
D03*
X313000Y219000D02*
D03*
X323607Y229607D02*
D03*
D31*
X345653Y175172D02*
D03*
X349189Y178707D02*
D03*
X352724Y182243D02*
D03*
X356260Y185778D02*
D03*
X359795Y189314D02*
D03*
X363331Y192849D02*
D03*
X366866Y196385D02*
D03*
X370402Y199920D02*
D03*
X373938Y203456D02*
D03*
X377473Y206991D02*
D03*
X381009Y210527D02*
D03*
X384544Y214062D02*
D03*
X441820Y156787D02*
D03*
X438284Y153251D02*
D03*
X434749Y149716D02*
D03*
X431213Y146180D02*
D03*
X427678Y142645D02*
D03*
X424142Y139109D02*
D03*
X420607Y135574D02*
D03*
X417071Y132038D02*
D03*
X413535Y128503D02*
D03*
X410000Y124967D02*
D03*
X406465Y121432D02*
D03*
X402929Y117896D02*
D03*
D32*
Y214062D02*
D03*
X406465Y210527D02*
D03*
X410000Y206991D02*
D03*
X413535Y203456D02*
D03*
X417071Y199920D02*
D03*
X420607Y196385D02*
D03*
X424142Y192849D02*
D03*
X427678Y189314D02*
D03*
X431213Y185778D02*
D03*
X434749Y182243D02*
D03*
X438284Y178707D02*
D03*
X441820Y175172D02*
D03*
X384544Y117896D02*
D03*
X381009Y121432D02*
D03*
X377473Y124967D02*
D03*
X373938Y128503D02*
D03*
X370402Y132038D02*
D03*
X366866Y135574D02*
D03*
X363331Y139109D02*
D03*
X359795Y142645D02*
D03*
X356260Y146180D02*
D03*
X352724Y149716D02*
D03*
X349189Y153251D02*
D03*
X345653Y156787D02*
D03*
D33*
X568000Y133000D02*
D03*
X522000Y133000D02*
D03*
D34*
X565000Y120000D02*
D03*
D35*
X557000D02*
D03*
X549000D02*
D03*
X541000Y120000D02*
D03*
X533000D02*
D03*
X525000D02*
D03*
Y146000D02*
D03*
X533000D02*
D03*
X541000Y146000D02*
D03*
X549000D02*
D03*
X557000D02*
D03*
X565000D02*
D03*
D36*
X214000Y113000D02*
D03*
Y93000D02*
D03*
D37*
X287000Y113000D02*
D03*
X305000Y119500D02*
D03*
Y106500D02*
D03*
D38*
X131071Y109657D02*
D03*
X119757Y98343D02*
D03*
X148941Y134527D02*
D03*
X137627Y123213D02*
D03*
D39*
X491000Y40000D02*
D03*
Y16000D02*
D03*
D40*
X577000Y80000D02*
D03*
X515000D02*
D03*
X577000Y18000D02*
D03*
D41*
X521000Y24000D02*
D03*
D42*
X83000Y20997D02*
Y14332D01*
X79668Y11000D01*
X76336Y14332D01*
Y20997D01*
X63007Y11000D02*
X59674D01*
X61340D01*
Y20997D01*
X63007Y19331D01*
X54676Y11000D02*
Y12666D01*
X53010D01*
Y11000D01*
X54676D01*
X46345Y19331D02*
X44679Y20997D01*
X41347D01*
X39681Y19331D01*
Y12666D01*
X41347Y11000D01*
X44679D01*
X46345Y12666D01*
Y19331D01*
D43*
X682500Y242500D02*
D03*
X617500D02*
D03*
Y197500D02*
D03*
X682500D02*
D03*
X712500Y155000D02*
D03*
X647500D02*
D03*
Y110000D02*
D03*
X712500D02*
D03*
X682500Y67500D02*
D03*
X617500D02*
D03*
Y22500D02*
D03*
X682500D02*
D03*
M02*
