G04 Layer_Color=65535*
%FSLAX44Y44*%
%MOMM*%
G71*
G01*
G75*
%ADD42C,0.2540*%
%ADD44C,0.2000*%
%ADD45C,0.5000*%
%ADD46C,0.1000*%
%ADD47C,0.1800*%
%ADD48C,0.1600*%
D42*
X362303Y7302D02*
X463902D01*
X463902Y32703D01*
X362303Y32702D02*
X463902Y32703D01*
X362303Y7302D02*
Y32702D01*
X446300Y44450D02*
X456300D01*
X451300Y37200D02*
X456300Y44450D01*
X446300D02*
X451300Y37200D01*
X177302Y81098D02*
Y182698D01*
Y81098D02*
X202703Y81098D01*
X202703Y182698D01*
X177302D02*
X202703D01*
X214450Y88700D02*
Y98700D01*
X207200Y93700D02*
X214450Y88700D01*
X207200Y93700D02*
X214450Y98700D01*
X60000Y110500D02*
Y115000D01*
Y150000D02*
Y154500D01*
X18750Y95000D02*
X22199Y95000D01*
X18750Y170000D02*
X22199Y170000D01*
X40000Y95000D02*
X46000D01*
X40000Y170000D02*
X46000D01*
X141996Y194002D02*
X149506D01*
X141996Y184002D02*
Y194002D01*
X87996Y184002D02*
X141996D01*
X87996D02*
Y194002D01*
X80506D02*
X87996D01*
X149506D02*
Y197250D01*
X80506Y194002D02*
Y197250D01*
X142008Y228002D02*
X149506D01*
X142008D02*
Y234002D01*
X132500D02*
X142008D01*
X132500Y234000D02*
Y234002D01*
X88006Y234000D02*
X97500D01*
X88006D02*
X88006Y228002D01*
X80501D02*
X88006D01*
X80501Y224500D02*
Y228002D01*
X149500Y224500D02*
Y228002D01*
X149506D01*
X252302Y7302D02*
X353902D01*
X353902Y32703D01*
X252302Y32702D02*
X353902Y32703D01*
X252302Y7302D02*
Y32702D01*
X336300Y44450D02*
X346300D01*
X341300Y37200D02*
X346300Y44450D01*
X336300D02*
X341300Y37200D01*
D44*
X62177Y152177D02*
G03*
X62177Y152177I-1677J0D01*
G01*
X196000Y31000D02*
Y37000D01*
Y15000D02*
Y21000D01*
X35000Y42000D02*
Y48000D01*
Y25000D02*
Y31000D01*
X70000Y41500D02*
Y48500D01*
Y24500D02*
Y31500D01*
X120000Y119500D02*
X128000D01*
X120000Y144500D02*
X128000D01*
X117000Y93000D02*
X129000D01*
X117000Y109000D02*
X129000D01*
X39000Y185000D02*
Y191000D01*
X133500Y241750D02*
X138750Y245000D01*
X133500Y241750D02*
X138750Y238500D01*
Y245000D01*
X162000Y140000D02*
X168000D01*
X157000Y168000D02*
Y174000D01*
X226000Y213000D02*
X232000D01*
X221000Y234000D02*
Y240000D01*
X608003Y114500D02*
X618000D01*
X614668Y117832D01*
X618000Y121165D01*
X608003D01*
Y124497D02*
X618000D01*
X614668D01*
X608003Y131161D01*
X613002Y126163D01*
X618000Y131161D01*
X608003Y134494D02*
X616334D01*
X618000Y136160D01*
Y139492D01*
X616334Y141158D01*
X608003D01*
X618000Y144490D02*
X608003D01*
Y149489D01*
X609669Y151155D01*
X613002D01*
X614668Y149489D01*
Y144490D01*
X579669Y22664D02*
X578003Y20998D01*
Y17666D01*
X579669Y16000D01*
X581335D01*
X583002Y17666D01*
Y20998D01*
X584668Y22664D01*
X586334D01*
X588000Y20998D01*
Y17666D01*
X586334Y16000D01*
X578003Y32661D02*
Y25997D01*
X588000D01*
Y32661D01*
X583002Y25997D02*
Y29329D01*
X579669Y42658D02*
X578003Y40992D01*
Y37660D01*
X579669Y35994D01*
X586334D01*
X588000Y37660D01*
Y40992D01*
X586334Y42658D01*
X578003Y50989D02*
Y47656D01*
X579669Y45990D01*
X586334D01*
X588000Y47656D01*
Y50989D01*
X586334Y52655D01*
X579669D01*
X578003Y50989D01*
X588000Y55987D02*
X578003D01*
X588000Y62652D01*
X578003D01*
Y65984D02*
X588000D01*
Y70982D01*
X586334Y72648D01*
X579669D01*
X578003Y70982D01*
Y65984D01*
X162003Y90998D02*
Y87666D01*
X163669Y86000D01*
X170334D01*
X172000Y87666D01*
Y90998D01*
X170334Y92664D01*
X163669D01*
X162003Y90998D01*
Y95997D02*
X172000D01*
Y102661D01*
X162003Y112658D02*
Y105994D01*
X172000D01*
Y112658D01*
X167002Y105994D02*
Y109326D01*
X162003Y115990D02*
X172000D01*
Y120989D01*
X170334Y122655D01*
X163669D01*
X162003Y120989D01*
Y115990D01*
X578003Y205000D02*
X588000D01*
Y209998D01*
X586334Y211665D01*
X584668D01*
X583002Y209998D01*
Y205000D01*
Y209998D01*
X581335Y211665D01*
X579669D01*
X578003Y209998D01*
Y205000D01*
Y219995D02*
Y216663D01*
X579669Y214997D01*
X586334D01*
X588000Y216663D01*
Y219995D01*
X586334Y221661D01*
X579669D01*
X578003Y219995D01*
Y229992D02*
Y226660D01*
X579669Y224994D01*
X586334D01*
X588000Y226660D01*
Y229992D01*
X586334Y231658D01*
X579669D01*
X578003Y229992D01*
Y234990D02*
Y241655D01*
Y238323D01*
X588000D01*
X128000Y161003D02*
Y171000D01*
X123002D01*
X121335Y169334D01*
Y167668D01*
X123002Y166002D01*
X128000D01*
X123002D01*
X121335Y164335D01*
Y162669D01*
X123002Y161003D01*
X128000D01*
X118003Y171000D02*
Y164335D01*
X114671Y161003D01*
X111339Y164335D01*
Y171000D01*
Y166002D01*
X118003D01*
X108006Y161003D02*
X101342D01*
X104674D01*
Y171000D01*
D45*
X667678Y220000D02*
G03*
X667678Y220000I-17678J0D01*
G01*
X697678Y132500D02*
G03*
X697678Y132500I-17678J0D01*
G01*
X667678Y45000D02*
G03*
X667678Y45000I-17678J0D01*
G01*
X595000Y260000D02*
X705000D01*
X595000Y180000D02*
Y260000D01*
Y180000D02*
X705000D01*
Y260000D01*
X625000Y172500D02*
X735000D01*
X625000Y92500D02*
Y172500D01*
Y92500D02*
X735000D01*
Y172500D01*
X595000Y85000D02*
X705000D01*
X595000Y5000D02*
Y85000D01*
Y5000D02*
X705000D01*
Y85000D01*
D46*
X113250Y62000D02*
X153250D01*
X113250Y12000D02*
Y62000D01*
Y12000D02*
X153250D01*
Y62000D01*
D47*
X212000Y14000D02*
Y21997D01*
X215999D01*
X217332Y20665D01*
Y17999D01*
X215999Y16666D01*
X212000D01*
X214666D02*
X217332Y14000D01*
X225329Y21997D02*
X219997D01*
Y17999D01*
X222663Y19332D01*
X223996D01*
X225329Y17999D01*
Y15333D01*
X223996Y14000D01*
X221330D01*
X219997Y15333D01*
X212000Y31000D02*
Y38997D01*
X215999D01*
X217332Y37664D01*
Y34999D01*
X215999Y33666D01*
X212000D01*
X214666D02*
X217332Y31000D01*
X225329Y38997D02*
X222663Y37664D01*
X219997Y34999D01*
Y32333D01*
X221330Y31000D01*
X223996D01*
X225329Y32333D01*
Y33666D01*
X223996Y34999D01*
X219997D01*
X58000Y62997D02*
Y57666D01*
X60666Y55000D01*
X63332Y57666D01*
Y62997D01*
X65997D02*
Y55000D01*
X69996D01*
X71329Y56333D01*
Y61665D01*
X69996Y62997D01*
X65997D01*
X79327Y55000D02*
X73995D01*
X79327Y60332D01*
Y61665D01*
X77994Y62997D01*
X75328D01*
X73995Y61665D01*
X59000Y19997D02*
Y14666D01*
X61666Y12000D01*
X64332Y14666D01*
Y19997D01*
X66997D02*
Y12000D01*
X70996D01*
X72329Y13333D01*
Y18664D01*
X70996Y19997D01*
X66997D01*
X74995Y12000D02*
X77661D01*
X76328D01*
Y19997D01*
X74995Y18664D01*
X26000Y84997D02*
Y78333D01*
X27333Y77000D01*
X29999D01*
X31332Y78333D01*
Y84997D01*
X39329Y83665D02*
X37996Y84997D01*
X35330D01*
X33997Y83665D01*
Y82332D01*
X35330Y80999D01*
X37996D01*
X39329Y79666D01*
Y78333D01*
X37996Y77000D01*
X35330D01*
X33997Y78333D01*
X41995Y84997D02*
Y77000D01*
X45994D01*
X47326Y78333D01*
Y79666D01*
X45994Y80999D01*
X41995D01*
X45994D01*
X47326Y82332D01*
Y83665D01*
X45994Y84997D01*
X41995D01*
X363000Y46997D02*
Y40333D01*
X364333Y39000D01*
X366999D01*
X368332Y40333D01*
Y46997D01*
X370997Y39000D02*
Y44332D01*
X373663Y46997D01*
X376329Y44332D01*
Y39000D01*
Y42999D01*
X370997D01*
X378995Y39000D02*
Y46997D01*
X382994D01*
X384327Y45665D01*
Y42999D01*
X382994Y41666D01*
X378995D01*
X381661D02*
X384327Y39000D01*
X386992Y46997D02*
X392324D01*
X389658D01*
Y39000D01*
X394990D02*
X397655D01*
X396323D01*
Y46997D01*
X394990Y45665D01*
X259332D02*
X257999Y46997D01*
X255333D01*
X254000Y45665D01*
Y44332D01*
X255333Y42999D01*
X257999D01*
X259332Y41666D01*
Y40333D01*
X257999Y39000D01*
X255333D01*
X254000Y40333D01*
X261997Y46997D02*
Y39000D01*
X264663Y41666D01*
X267329Y39000D01*
Y46997D01*
X269995D02*
Y39000D01*
X273994D01*
X275326Y40333D01*
Y45665D01*
X273994Y46997D01*
X269995D01*
X24000Y54000D02*
Y61997D01*
X27999D01*
X29332Y60665D01*
Y57999D01*
X27999Y56666D01*
X24000D01*
X26666D02*
X29332Y54000D01*
X31997Y60665D02*
X33330Y61997D01*
X35996D01*
X37329Y60665D01*
Y59332D01*
X35996Y57999D01*
X34663D01*
X35996D01*
X37329Y56666D01*
Y55333D01*
X35996Y54000D01*
X33330D01*
X31997Y55333D01*
X33000Y12000D02*
Y19997D01*
X36999D01*
X38332Y18664D01*
Y15999D01*
X36999Y14666D01*
X33000D01*
X35666D02*
X38332Y12000D01*
X46329D02*
X40997D01*
X46329Y17332D01*
Y18664D01*
X44996Y19997D01*
X42330D01*
X40997Y18664D01*
X148000Y155000D02*
Y162997D01*
X151999D01*
X153332Y161665D01*
Y158999D01*
X151999Y157666D01*
X148000D01*
X150666D02*
X153332Y155000D01*
X155997D02*
X158663D01*
X157330D01*
Y162997D01*
X155997Y161665D01*
X167994Y162997D02*
X165328Y161665D01*
X162662Y158999D01*
Y156333D01*
X163995Y155000D01*
X166661D01*
X167994Y156333D01*
Y157666D01*
X166661Y158999D01*
X162662D01*
X157000Y130000D02*
X149003D01*
Y133999D01*
X150336Y135332D01*
X153001D01*
X154334Y133999D01*
Y130000D01*
Y132666D02*
X157000Y135332D01*
Y137997D02*
Y140663D01*
Y139330D01*
X149003D01*
X150336Y137997D01*
X157000Y148661D02*
X149003D01*
X153001Y144662D01*
Y149994D01*
X221000Y203000D02*
X213003D01*
Y206999D01*
X214335Y208332D01*
X217001D01*
X218334Y206999D01*
Y203000D01*
Y205666D02*
X221000Y208332D01*
Y210997D02*
Y213663D01*
Y212330D01*
X213003D01*
X214335Y210997D01*
X221000Y217662D02*
Y220328D01*
Y218995D01*
X213003D01*
X214335Y217662D01*
X209111Y246224D02*
Y254221D01*
X213110D01*
X214443Y252889D01*
Y250223D01*
X213110Y248890D01*
X209111D01*
X211777D02*
X214443Y246224D01*
X217108Y254221D02*
X222440D01*
Y252889D01*
X217108Y247557D01*
Y246224D01*
X28000Y196000D02*
Y203997D01*
X31999D01*
X33332Y202665D01*
Y199999D01*
X31999Y198666D01*
X28000D01*
X30666D02*
X33332Y196000D01*
X35997D02*
X38663D01*
X37330D01*
Y203997D01*
X35997Y202665D01*
X91003Y125332D02*
Y120000D01*
X95001D01*
Y122666D01*
Y120000D01*
X99000D01*
Y127997D02*
X93668D01*
X91003Y130663D01*
X93668Y133329D01*
X99000D01*
X95001D01*
Y127997D01*
X99000Y135995D02*
Y138661D01*
Y137328D01*
X91003D01*
X92336Y135995D01*
X97000Y73997D02*
Y66000D01*
X100999D01*
X102332Y67333D01*
Y72664D01*
X100999Y73997D01*
X97000D01*
X104997Y66000D02*
Y71332D01*
X107663Y73997D01*
X110329Y71332D01*
Y66000D01*
Y69999D01*
X104997D01*
X112995Y66000D02*
X115661D01*
X114328D01*
Y73997D01*
X112995Y72664D01*
X92336Y98332D02*
X91003Y96999D01*
Y94333D01*
X92336Y93000D01*
X97667D01*
X99000Y94333D01*
Y96999D01*
X97667Y98332D01*
X99000Y100997D02*
Y103663D01*
Y102330D01*
X91003D01*
X92336Y100997D01*
D48*
X55465Y47930D02*
Y56500D01*
X59750Y52215D02*
X51180D01*
X55465Y30930D02*
Y39500D01*
X59750Y35215D02*
X51180D01*
M02*
