G04 Layer_Color=16711935*
%FSLAX44Y44*%
%MOMM*%
G71*
G01*
G75*
%ADD33R,1.5000X0.5500*%
G04:AMPARAMS|DCode=34|XSize=1.5mm|YSize=0.55mm|CornerRadius=0mm|HoleSize=0mm|Usage=FLASHONLY|Rotation=90.000|XOffset=0mm|YOffset=0mm|HoleType=Round|Shape=Octagon|*
%AMOCTAGOND34*
4,1,8,0.1375,0.7500,-0.1375,0.7500,-0.2750,0.6125,-0.2750,-0.6125,-0.1375,-0.7500,0.1375,-0.7500,0.2750,-0.6125,0.2750,0.6125,0.1375,0.7500,0.0*
%
%ADD34OCTAGOND34*%

%ADD35R,0.5500X1.5000*%
G04:AMPARAMS|DCode=49|XSize=1.1532mm|YSize=1.0032mm|CornerRadius=0.3016mm|HoleSize=0mm|Usage=FLASHONLY|Rotation=270.000|XOffset=0mm|YOffset=0mm|HoleType=Round|Shape=RoundedRectangle|*
%AMROUNDEDRECTD49*
21,1,1.1532,0.4000,0,0,270.0*
21,1,0.5500,1.0032,0,0,270.0*
1,1,0.6032,-0.2000,-0.2750*
1,1,0.6032,-0.2000,0.2750*
1,1,0.6032,0.2000,0.2750*
1,1,0.6032,0.2000,-0.2750*
%
%ADD49ROUNDEDRECTD49*%
G04:AMPARAMS|DCode=51|XSize=1.9532mm|YSize=1.2032mm|CornerRadius=0.3516mm|HoleSize=0mm|Usage=FLASHONLY|Rotation=270.000|XOffset=0mm|YOffset=0mm|HoleType=Round|Shape=RoundedRectangle|*
%AMROUNDEDRECTD51*
21,1,1.9532,0.5000,0,0,270.0*
21,1,1.2500,1.2032,0,0,270.0*
1,1,0.7032,-0.2500,-0.6250*
1,1,0.7032,-0.2500,0.6250*
1,1,0.7032,0.2500,0.6250*
1,1,0.7032,0.2500,-0.6250*
%
%ADD51ROUNDEDRECTD51*%
G04:AMPARAMS|DCode=54|XSize=1.1532mm|YSize=1.0032mm|CornerRadius=0.3016mm|HoleSize=0mm|Usage=FLASHONLY|Rotation=0.000|XOffset=0mm|YOffset=0mm|HoleType=Round|Shape=RoundedRectangle|*
%AMROUNDEDRECTD54*
21,1,1.1532,0.4000,0,0,0.0*
21,1,0.5500,1.0032,0,0,0.0*
1,1,0.6032,0.2750,-0.2000*
1,1,0.6032,-0.2750,-0.2000*
1,1,0.6032,-0.2750,0.2000*
1,1,0.6032,0.2750,0.2000*
%
%ADD54ROUNDEDRECTD54*%
%ADD62C,1.8032*%
G04:AMPARAMS|DCode=63|XSize=0.8532mm|YSize=0.8032mm|CornerRadius=0.2516mm|HoleSize=0mm|Usage=FLASHONLY|Rotation=135.000|XOffset=0mm|YOffset=0mm|HoleType=Round|Shape=RoundedRectangle|*
%AMROUNDEDRECTD63*
21,1,0.8532,0.3000,0,0,135.0*
21,1,0.3500,0.8032,0,0,135.0*
1,1,0.5032,-0.0177,0.2298*
1,1,0.5032,0.2298,-0.0177*
1,1,0.5032,0.0177,-0.2298*
1,1,0.5032,-0.2298,0.0177*
%
%ADD63ROUNDEDRECTD63*%
%ADD64O,1.4032X1.1032*%
%ADD65O,1.7032X0.8032*%
G04:AMPARAMS|DCode=66|XSize=0.6032mm|YSize=2.8032mm|CornerRadius=0mm|HoleSize=0mm|Usage=FLASHONLY|Rotation=225.000|XOffset=0mm|YOffset=0mm|HoleType=Round|Shape=Rectangle|*
%AMROTATEDRECTD66*
4,1,4,-0.7778,1.2043,1.2043,-0.7778,0.7778,-1.2043,-1.2043,0.7778,-0.7778,1.2043,0.0*
%
%ADD66ROTATEDRECTD66*%

G04:AMPARAMS|DCode=67|XSize=0.5032mm|YSize=2.0032mm|CornerRadius=0mm|HoleSize=0mm|Usage=FLASHONLY|Rotation=225.000|XOffset=0mm|YOffset=0mm|HoleType=Round|Shape=Round|*
%AMOVALD67*
21,1,1.5000,0.5032,0.0000,0.0000,315.0*
1,1,0.5032,-0.5303,0.5303*
1,1,0.5032,0.5303,-0.5303*
%
%ADD67OVALD67*%

G04:AMPARAMS|DCode=68|XSize=0.5032mm|YSize=2.0032mm|CornerRadius=0mm|HoleSize=0mm|Usage=FLASHONLY|Rotation=315.000|XOffset=0mm|YOffset=0mm|HoleType=Round|Shape=Round|*
%AMOVALD68*
21,1,1.5000,0.5032,0.0000,0.0000,45.0*
1,1,0.5032,-0.5303,-0.5303*
1,1,0.5032,0.5303,0.5303*
%
%ADD68OVALD68*%

G04:AMPARAMS|DCode=69|XSize=1.5532mm|YSize=1.1032mm|CornerRadius=0.3266mm|HoleSize=0mm|Usage=FLASHONLY|Rotation=0.000|XOffset=0mm|YOffset=0mm|HoleType=Round|Shape=RoundedRectangle|*
%AMROUNDEDRECTD69*
21,1,1.5532,0.4500,0,0,0.0*
21,1,0.9000,1.1032,0,0,0.0*
1,1,0.6532,0.4500,-0.2250*
1,1,0.6532,-0.4500,-0.2250*
1,1,0.6532,-0.4500,0.2250*
1,1,0.6532,0.4500,0.2250*
%
%ADD69ROUNDEDRECTD69*%
%ADD70O,1.3532X1.0032*%
G04:AMPARAMS|DCode=71|XSize=1.1532mm|YSize=1.0032mm|CornerRadius=0.3016mm|HoleSize=0mm|Usage=FLASHONLY|Rotation=135.000|XOffset=0mm|YOffset=0mm|HoleType=Round|Shape=RoundedRectangle|*
%AMROUNDEDRECTD71*
21,1,1.1532,0.4000,0,0,135.0*
21,1,0.5500,1.0032,0,0,135.0*
1,1,0.6032,-0.0530,0.3359*
1,1,0.6032,0.3359,-0.0530*
1,1,0.6032,0.0530,-0.3359*
1,1,0.6032,-0.3359,0.0530*
%
%ADD71ROUNDEDRECTD71*%
G04:AMPARAMS|DCode=72|XSize=1.2532mm|YSize=0.7032mm|CornerRadius=0.2266mm|HoleSize=0mm|Usage=FLASHONLY|Rotation=90.000|XOffset=0mm|YOffset=0mm|HoleType=Round|Shape=RoundedRectangle|*
%AMROUNDEDRECTD72*
21,1,1.2532,0.2500,0,0,90.0*
21,1,0.8000,0.7032,0,0,90.0*
1,1,0.4532,0.1250,0.4000*
1,1,0.4532,0.1250,-0.4000*
1,1,0.4532,-0.1250,-0.4000*
1,1,0.4532,-0.1250,0.4000*
%
%ADD72ROUNDEDRECTD72*%
%ADD73R,2.4032X2.4032*%
%ADD74R,1.2032X1.2032*%
%ADD75O,4.2032X2.2032*%
G36*
X317822Y242462D02*
X317862Y242435D01*
X317963Y242347D01*
X321498Y238812D01*
X321586Y238712D01*
X321613Y238671D01*
X322192Y238092D01*
X321613Y237512D01*
X321586Y237472D01*
X321498Y237372D01*
X321498Y237372D01*
X320804Y236678D01*
X330678Y226804D01*
X331372Y227498D01*
X331472Y227586D01*
X331512Y227613D01*
X332092Y228192D01*
X332671Y227613D01*
X332712Y227586D01*
X332812Y227498D01*
X336347Y223963D01*
X336435Y223862D01*
X336462Y223822D01*
X337042Y223243D01*
X336462Y222663D01*
X336435Y222623D01*
X336347Y222523D01*
X330691Y216866D01*
X330590Y216778D01*
X330550Y216751D01*
X329971Y216172D01*
X329391Y216751D01*
X329351Y216778D01*
X329251Y216866D01*
X325715Y220401D01*
X325627Y220501D01*
X325601Y220541D01*
X325021Y221121D01*
X325600Y221701D01*
X325627Y221741D01*
X325715Y221841D01*
X326409Y222535D01*
X316536Y232409D01*
X315841Y231715D01*
X315741Y231627D01*
X315701Y231600D01*
X315121Y231021D01*
X314542Y231600D01*
X314501Y231627D01*
X314401Y231715D01*
X310866Y235251D01*
X310778Y235351D01*
X310751Y235391D01*
X310172Y235970D01*
X310751Y236550D01*
X310778Y236590D01*
X310866Y236691D01*
X310866Y236691D01*
X316523Y242347D01*
X316623Y242435D01*
X316663Y242462D01*
X317243Y243042D01*
X317822Y242462D01*
D02*
G37*
G36*
X307215Y231856D02*
X307256Y231829D01*
X307356Y231741D01*
X310892Y228205D01*
X310979Y228105D01*
X311007Y228064D01*
X311586Y227485D01*
X311006Y226906D01*
X310979Y226865D01*
X310892Y226765D01*
X310197Y226071D01*
X320071Y216197D01*
X320765Y216891D01*
X320865Y216979D01*
X320906Y217006D01*
X321485Y217586D01*
X322065Y217006D01*
X322105Y216979D01*
X322205Y216891D01*
X325741Y213356D01*
X325829Y213256D01*
X325855Y213216D01*
X326435Y212636D01*
X325855Y212057D01*
X325829Y212016D01*
X325741Y211916D01*
X320084Y206259D01*
X319984Y206171D01*
X319943Y206144D01*
X319364Y205565D01*
X318784Y206145D01*
X318744Y206171D01*
X318644Y206259D01*
X315109Y209795D01*
X315021Y209895D01*
X314994Y209935D01*
X314414Y210515D01*
X314994Y211094D01*
X315021Y211135D01*
X315109Y211235D01*
X315803Y211929D01*
X305929Y221803D01*
X305235Y221108D01*
X305135Y221021D01*
X305094Y220994D01*
X304515Y220414D01*
X303935Y220994D01*
X303895Y221021D01*
X303795Y221108D01*
X300259Y224644D01*
X300171Y224744D01*
X300145Y224784D01*
X299565Y225364D01*
X300145Y225944D01*
X300172Y225984D01*
X300259Y226084D01*
X300259Y226084D01*
X305916Y231741D01*
X306016Y231829D01*
X306056Y231856D01*
X306636Y232435D01*
X307215Y231856D01*
D02*
G37*
G36*
X296609Y221249D02*
X296649Y221222D01*
X296749Y221134D01*
X300285Y217599D01*
X300373Y217498D01*
X300400Y217458D01*
X300979Y216879D01*
X300400Y216299D01*
X300373Y216259D01*
X300285Y216159D01*
X299591Y215464D01*
X309464Y205591D01*
X310159Y206285D01*
X310259Y206373D01*
X310299Y206400D01*
X310879Y206979D01*
X311458Y206400D01*
X311499Y206373D01*
X311599Y206285D01*
X315134Y202749D01*
X315222Y202649D01*
X315249Y202609D01*
X315828Y202029D01*
X315249Y201450D01*
X315222Y201410D01*
X315134Y201310D01*
X309477Y195653D01*
X309377Y195565D01*
X309337Y195538D01*
X308757Y194958D01*
X308178Y195538D01*
X308137Y195565D01*
X308037Y195653D01*
X304502Y199188D01*
X304414Y199288D01*
X304387Y199328D01*
X303808Y199908D01*
X304387Y200488D01*
X304414Y200528D01*
X304502Y200628D01*
X305196Y201322D01*
X295322Y211196D01*
X294628Y210502D01*
X294528Y210414D01*
X294487Y210387D01*
X293908Y209808D01*
X293328Y210387D01*
X293288Y210414D01*
X293188Y210502D01*
X289653Y214037D01*
X289565Y214137D01*
X289538Y214178D01*
X288958Y214757D01*
X289538Y215337D01*
X289565Y215377D01*
X289653Y215477D01*
X295310Y221134D01*
X295410Y221222D01*
X295450Y221249D01*
X296029Y221828D01*
X296609Y221249D01*
D02*
G37*
G36*
X527000Y6000D02*
X516000D01*
X503000Y19000D01*
Y30000D01*
X527000D01*
Y6000D01*
D02*
G37*
D33*
X568000Y133000D02*
D03*
X522000Y133000D02*
D03*
D34*
X565000Y120000D02*
D03*
D35*
X557000D02*
D03*
X549000D02*
D03*
X541000Y120000D02*
D03*
X533000D02*
D03*
X525000D02*
D03*
Y146000D02*
D03*
X533000D02*
D03*
X541000Y146000D02*
D03*
X549000D02*
D03*
X557000D02*
D03*
X565000D02*
D03*
D49*
X106000Y139000D02*
D03*
X90000D02*
D03*
X106000Y126000D02*
D03*
X90000D02*
D03*
X263000Y244000D02*
D03*
X279000D02*
D03*
X300000Y166000D02*
D03*
X316000D02*
D03*
X615000Y90000D02*
D03*
X599000D02*
D03*
X488000Y166000D02*
D03*
X472000D02*
D03*
X232000Y170000D02*
D03*
X216000D02*
D03*
X196000Y31000D02*
D03*
X180000D02*
D03*
D51*
X51000Y201000D02*
D03*
X81000D02*
D03*
X149000Y228000D02*
D03*
X179000D02*
D03*
X51000Y226000D02*
D03*
X81000D02*
D03*
D54*
X227000Y244000D02*
D03*
Y228000D02*
D03*
X486000Y136000D02*
D03*
Y120000D02*
D03*
X270000Y104000D02*
D03*
Y120000D02*
D03*
X213000Y128000D02*
D03*
Y144000D02*
D03*
X195000Y244000D02*
D03*
Y228000D02*
D03*
X76000Y80000D02*
D03*
Y96000D02*
D03*
X471000Y14000D02*
D03*
Y30000D02*
D03*
X599000Y121000D02*
D03*
Y105000D02*
D03*
X581000Y214000D02*
D03*
Y198000D02*
D03*
X715000Y54000D02*
D03*
Y38000D02*
D03*
X502000Y104000D02*
D03*
Y120000D02*
D03*
X394000Y72000D02*
D03*
Y88000D02*
D03*
X212000Y244000D02*
D03*
Y228000D02*
D03*
D62*
X341200Y20000D02*
D03*
X315800D02*
D03*
X290400D02*
D03*
X265000D02*
D03*
X451200D02*
D03*
X425800D02*
D03*
X400400D02*
D03*
X375000D02*
D03*
X190000Y93800D02*
D03*
Y170000D02*
D03*
Y144600D02*
D03*
X190000Y119200D02*
D03*
D63*
X157426Y117556D02*
D03*
X150355Y110485D02*
D03*
X136021Y90565D02*
D03*
X143092Y97636D02*
D03*
D64*
X95500Y51000D02*
D03*
X116500Y60500D02*
D03*
Y41500D02*
D03*
X470500Y77500D02*
D03*
Y58500D02*
D03*
X491500Y68000D02*
D03*
X253500Y103500D02*
D03*
Y122500D02*
D03*
X232500Y113000D02*
D03*
D65*
X110050Y200000D02*
D03*
X135950Y190500D02*
D03*
X110050D02*
D03*
X135950Y209500D02*
D03*
X110050D02*
D03*
D66*
X302393Y208393D02*
D03*
X313000Y219000D02*
D03*
X323607Y229607D02*
D03*
D67*
X345653Y175172D02*
D03*
X349189Y178707D02*
D03*
X352724Y182243D02*
D03*
X356260Y185778D02*
D03*
X359795Y189314D02*
D03*
X363331Y192849D02*
D03*
X366866Y196385D02*
D03*
X370402Y199920D02*
D03*
X373938Y203456D02*
D03*
X377473Y206991D02*
D03*
X381009Y210527D02*
D03*
X384544Y214062D02*
D03*
X441820Y156787D02*
D03*
X438284Y153251D02*
D03*
X434749Y149716D02*
D03*
X431213Y146180D02*
D03*
X427678Y142645D02*
D03*
X424142Y139109D02*
D03*
X420607Y135574D02*
D03*
X417071Y132038D02*
D03*
X413535Y128503D02*
D03*
X410000Y124967D02*
D03*
X406465Y121432D02*
D03*
X402929Y117896D02*
D03*
D68*
Y214062D02*
D03*
X406465Y210527D02*
D03*
X410000Y206991D02*
D03*
X413535Y203456D02*
D03*
X417071Y199920D02*
D03*
X420607Y196385D02*
D03*
X424142Y192849D02*
D03*
X427678Y189314D02*
D03*
X431213Y185778D02*
D03*
X434749Y182243D02*
D03*
X438284Y178707D02*
D03*
X441820Y175172D02*
D03*
X384544Y117896D02*
D03*
X381009Y121432D02*
D03*
X377473Y124967D02*
D03*
X373938Y128503D02*
D03*
X370402Y132038D02*
D03*
X366866Y135574D02*
D03*
X363331Y139109D02*
D03*
X359795Y142645D02*
D03*
X356260Y146180D02*
D03*
X352724Y149716D02*
D03*
X349189Y153251D02*
D03*
X345653Y156787D02*
D03*
D69*
X214000Y113000D02*
D03*
Y93000D02*
D03*
D70*
X287000Y113000D02*
D03*
X305000Y119500D02*
D03*
Y106500D02*
D03*
D71*
X148941Y134527D02*
D03*
X137627Y123213D02*
D03*
X119757Y98343D02*
D03*
X131071Y109657D02*
D03*
D72*
X491000Y40000D02*
D03*
Y16000D02*
D03*
D73*
X577000Y80000D02*
D03*
X515000D02*
D03*
X577000Y18000D02*
D03*
D74*
X521000Y24000D02*
D03*
D75*
X712500Y155000D02*
D03*
X647500D02*
D03*
Y110000D02*
D03*
X712500D02*
D03*
X682500Y67500D02*
D03*
X617500D02*
D03*
Y22500D02*
D03*
X682500D02*
D03*
Y242500D02*
D03*
X617500D02*
D03*
Y197500D02*
D03*
X682500D02*
D03*
M02*
