G04 Layer_Color=8388736*
%FSLAX44Y44*%
%MOMM*%
G71*
G01*
G75*
G04:AMPARAMS|DCode=49|XSize=1.1532mm|YSize=1.0032mm|CornerRadius=0.3016mm|HoleSize=0mm|Usage=FLASHONLY|Rotation=270.000|XOffset=0mm|YOffset=0mm|HoleType=Round|Shape=RoundedRectangle|*
%AMROUNDEDRECTD49*
21,1,1.1532,0.4000,0,0,270.0*
21,1,0.5500,1.0032,0,0,270.0*
1,1,0.6032,-0.2000,-0.2750*
1,1,0.6032,-0.2000,0.2750*
1,1,0.6032,0.2000,0.2750*
1,1,0.6032,0.2000,-0.2750*
%
%ADD49ROUNDEDRECTD49*%
%ADD50O,2.2032X0.8032*%
%ADD51R,2.2032X0.8032*%
%ADD52R,1.5032X2.9032*%
G04:AMPARAMS|DCode=53|XSize=1.9532mm|YSize=1.2032mm|CornerRadius=0.3516mm|HoleSize=0mm|Usage=FLASHONLY|Rotation=270.000|XOffset=0mm|YOffset=0mm|HoleType=Round|Shape=RoundedRectangle|*
%AMROUNDEDRECTD53*
21,1,1.9532,0.5000,0,0,270.0*
21,1,1.2500,1.2032,0,0,270.0*
1,1,0.7032,-0.2500,-0.6250*
1,1,0.7032,-0.2500,0.6250*
1,1,0.7032,0.2500,0.6250*
1,1,0.7032,0.2500,-0.6250*
%
%ADD53ROUNDEDRECTD53*%
%ADD54R,1.6032X1.8032*%
%ADD55R,1.6032X0.6032*%
%ADD56R,1.5032X1.6532*%
%ADD57R,2.1032X2.1032*%
G04:AMPARAMS|DCode=58|XSize=1.8032mm|YSize=2.4032mm|CornerRadius=0.5016mm|HoleSize=0mm|Usage=FLASHONLY|Rotation=180.000|XOffset=0mm|YOffset=0mm|HoleType=Round|Shape=RoundedRectangle|*
%AMROUNDEDRECTD58*
21,1,1.8032,1.4000,0,0,180.0*
21,1,0.8000,2.4032,0,0,180.0*
1,1,1.0032,-0.4000,0.7000*
1,1,1.0032,0.4000,0.7000*
1,1,1.0032,0.4000,-0.7000*
1,1,1.0032,-0.4000,-0.7000*
%
%ADD58ROUNDEDRECTD58*%
G04:AMPARAMS|DCode=59|XSize=0.9032mm|YSize=2.0032mm|CornerRadius=0.2766mm|HoleSize=0mm|Usage=FLASHONLY|Rotation=180.000|XOffset=0mm|YOffset=0mm|HoleType=Round|Shape=RoundedRectangle|*
%AMROUNDEDRECTD59*
21,1,0.9032,1.4500,0,0,180.0*
21,1,0.3500,2.0032,0,0,180.0*
1,1,0.5532,-0.1750,0.7250*
1,1,0.5532,0.1750,0.7250*
1,1,0.5532,0.1750,-0.7250*
1,1,0.5532,-0.1750,-0.7250*
%
%ADD59ROUNDEDRECTD59*%
G04:AMPARAMS|DCode=60|XSize=1.1532mm|YSize=1.0032mm|CornerRadius=0.3016mm|HoleSize=0mm|Usage=FLASHONLY|Rotation=0.000|XOffset=0mm|YOffset=0mm|HoleType=Round|Shape=RoundedRectangle|*
%AMROUNDEDRECTD60*
21,1,1.1532,0.4000,0,0,0.0*
21,1,0.5500,1.0032,0,0,0.0*
1,1,0.6032,0.2750,-0.2000*
1,1,0.6032,-0.2750,-0.2000*
1,1,0.6032,-0.2750,0.2000*
1,1,0.6032,0.2750,0.2000*
%
%ADD60ROUNDEDRECTD60*%
%ADD61C,1.8032*%
%ADD62C,1.2032*%
%ADD63C,0.9032*%
D49*
X204000Y34000D02*
D03*
X188000D02*
D03*
X204000Y18000D02*
D03*
X188000D02*
D03*
X43000Y45000D02*
D03*
X27000D02*
D03*
X43000Y28000D02*
D03*
X27000D02*
D03*
X78000Y45000D02*
D03*
X62000D02*
D03*
X78000Y28000D02*
D03*
X62000D02*
D03*
X47000Y188000D02*
D03*
X31000D02*
D03*
X149000Y171000D02*
D03*
X165000D02*
D03*
X229000Y237000D02*
D03*
X213000D02*
D03*
D50*
X101500Y56100D02*
D03*
Y43400D02*
D03*
Y30700D02*
D03*
Y18000D02*
D03*
X165000Y56100D02*
D03*
Y43400D02*
D03*
Y30700D02*
D03*
D51*
Y18000D02*
D03*
D52*
X138500Y132000D02*
D03*
X109500D02*
D03*
D53*
X108000Y101000D02*
D03*
X138000D02*
D03*
D54*
X55500Y100250D02*
D03*
Y164750D02*
D03*
D55*
X57500Y132500D02*
D03*
X57500Y139250D02*
D03*
Y125750D02*
D03*
Y145750D02*
D03*
Y119250D02*
D03*
D56*
X31000Y98250D02*
D03*
Y166750D02*
D03*
D57*
X30000Y144500D02*
D03*
X31000Y120500D02*
D03*
D58*
X151000Y211000D02*
D03*
X79000D02*
D03*
D59*
X115000Y244000D02*
D03*
X127500D02*
D03*
X102500D02*
D03*
D60*
X165000Y148000D02*
D03*
Y132000D02*
D03*
X229000Y205000D02*
D03*
Y221000D02*
D03*
D61*
X375000Y20000D02*
D03*
X400400D02*
D03*
X425800D02*
D03*
X451200D02*
D03*
X190000Y170000D02*
D03*
Y144600D02*
D03*
X190000Y119200D02*
D03*
X190000Y93800D02*
D03*
X265000Y20000D02*
D03*
X290400D02*
D03*
X315800D02*
D03*
X341200D02*
D03*
D62*
X682500Y242500D02*
D03*
X617500D02*
D03*
Y197500D02*
D03*
X682500D02*
D03*
X712500Y155000D02*
D03*
X647500D02*
D03*
Y110000D02*
D03*
X712500D02*
D03*
X682500Y67500D02*
D03*
X617500D02*
D03*
Y22500D02*
D03*
X682500D02*
D03*
D63*
X296364Y235636D02*
D03*
X359000Y251000D02*
D03*
X348000Y230000D02*
D03*
Y215000D02*
D03*
X131000Y74000D02*
D03*
X150000Y80000D02*
D03*
X398829Y149000D02*
D03*
X402000Y170000D02*
D03*
X376000Y88000D02*
D03*
X486000Y101000D02*
D03*
X316000Y143000D02*
D03*
X439000Y93000D02*
D03*
X355000Y46000D02*
D03*
X248000Y224000D02*
D03*
X266000Y206000D02*
D03*
X248000Y244000D02*
D03*
X386000Y163000D02*
D03*
X333000Y110000D02*
D03*
X489000Y242000D02*
D03*
X275000Y228000D02*
D03*
X198000Y196000D02*
D03*
X245000Y175000D02*
D03*
X265000Y165000D02*
D03*
X81000Y244000D02*
D03*
X230000Y87000D02*
D03*
X402000Y183000D02*
D03*
X442000Y208000D02*
D03*
X518000Y216000D02*
D03*
X496000D02*
D03*
X470000Y190000D02*
D03*
Y201000D02*
D03*
X461000Y235000D02*
D03*
X489000Y200000D02*
D03*
X115000Y227000D02*
D03*
X76000Y126000D02*
D03*
Y139000D02*
D03*
X290000Y73000D02*
D03*
Y57000D02*
D03*
X430000Y71000D02*
D03*
X525000Y101000D02*
D03*
X565000D02*
D03*
X286000Y186000D02*
D03*
X225000Y144000D02*
D03*
X350000Y110000D02*
D03*
X465000D02*
D03*
X486000Y148000D02*
D03*
M02*
