M48
;Layer_Color=9474304
;FILE_FORMAT=4:4
METRIC
;TYPE=PLATED
T1F00S00C0.3000
T2F00S00C0.8000
T3F00S00C1.0500
%
T01
X00076000Y00126000
Y00139000
X00131000Y00074000
X00150000Y00080000
X00230000Y00087000
X00225000Y00144000
X00316000Y00143000
X00333000Y00110000
X00350000
X00376000Y00088000
X00355000Y00046000
X00290000Y00057000
Y00073000
X00430000Y00071000
X00439000Y00093000
X00465000Y00110000
X00486000Y00101000
X00525000
X00565000
X00518000Y00216000
X00496000
X00489000Y00200000
X00470000Y00201000
Y00190000
X00442000Y00208000
X00461000Y00235000
X00489000Y00242000
X00486000Y00148000
X00398829Y00149000
X00402000Y00170000
Y00183000
X00386000Y00163000
X00348000Y00215000
Y00230000
X00359000Y00251000
X00296364Y00235636
X00275000Y00228000
X00248000Y00224000
Y00244000
X00266000Y00206000
X00286000Y00186000
X00265000Y00165000
X00245000Y00175000
X00198000Y00196000
X00115000Y00227000
X00081000Y00244000
T02
X00617500Y00022500
Y00067500
X00682500
Y00022500
X00712500Y00110000
X00647500
Y00155000
X00712500
X00682500Y00197500
Y00242500
X00617500
Y00197500
T03
X00190000Y00093800
X00190000Y00119200
X00190000Y00144600
X00265000Y00020000
X00290400
X00315800
X00341200
X00375000
X00400400
X00425800
X00451200
X00190000Y00170000
M30
